<svg width="108" height="86" viewBox="0 0 108 86" fill="none" xmlns="http://www.w3.org/2000/svg">
<path d="M52.6004 84.6002C75.6307 84.6002 94.3004 65.9305 94.3004 42.9002C94.3004 19.8699 75.6307 1.2002 52.6004 1.2002C29.5701 1.2002 10.9004 19.8699 10.9004 42.9002C10.9004 65.9305 29.5701 84.6002 52.6004 84.6002Z" fill="#FDFFFC"/>
<path d="M52.2001 61.5C46.5001 61.4 41.7001 59 38.2001 54.2C37.7001 53.4 36.9001 52.6 37.8001 51.7C38.6001 50.9 39.3001 51.8 39.9001 52.2C47.9001 57.2 55.9001 57.4 64.0001 52.5C64.4001 52.3 64.8001 52 65.2001 51.7C65.7001 51.4 66.2001 51.2 66.6001 51.6C67.1001 52 67.1001 52.6 66.7001 53.2C65.9001 54.6 64.9001 55.9 63.6001 57C60.6001 59.9 56.8001 61.4 52.2001 61.5Z" fill="#AC4039"/>
<path d="M66.2997 28C68.2997 28 69.6997 28.8 70.8997 30.1C72.3997 31.7 73.3997 33.6 74.1997 35.6C74.3997 36.1 74.4997 36.6 73.9997 37C73.3997 37.5 72.8997 37.2 72.4997 36.7C69.5997 33.7 63.7997 33.4 60.2997 36.8C59.8997 37.1 59.5997 37.4 59.0997 37.1C58.4997 36.8 58.4997 36.2 58.6997 35.7C59.6997 33 60.9997 30.5 63.4997 28.8C64.3997 28.3 65.3997 28 66.2997 28Z" fill="#AC4039"/>
<path d="M45.999 35.9999C46.099 36.5999 45.799 36.8999 45.499 37.0999C44.899 37.3999 44.499 36.9999 44.099 36.6999C41.299 34.2999 38.099 33.7999 34.699 35.0999C33.699 35.4999 32.799 36.0999 32.099 36.7999C31.699 37.1999 31.299 37.4999 30.699 37.1999C30.099 36.7999 30.199 36.1999 30.399 35.5999C31.299 33.1999 32.499 30.9999 34.599 29.2999C36.599 27.6999 39.099 27.5999 41.199 29.0999C43.799 30.7999 44.999 33.3999 45.999 35.9999Z" fill="#AC4039"/>
<path d="M52.2996 85.6002C28.7996 85.6002 9.59961 66.5002 9.59961 42.9002C9.59961 19.4002 28.6996 0.200195 52.2996 0.200195C75.8996 0.200195 94.9996 19.3002 94.9996 42.9002C94.9996 66.5002 75.7996 85.6002 52.2996 85.6002ZM52.2996 2.30017C29.8996 2.30017 11.5996 20.5002 11.5996 43.0002C11.5996 65.5002 29.7996 83.7002 52.2996 83.7002C74.7996 83.7002 92.9996 65.5002 92.9996 43.0002C92.9996 20.5002 74.6996 2.30017 52.2996 2.30017Z" fill="#AC4039"/>
<path d="M92.0996 32.0003L90.7996 27.2003C98.7996 25.0003 101.6 23.0003 102.2 22.3003C101.9 21.5003 99.1996 19.1003 88.9996 16.9003C79.5996 14.9003 66.9996 13.7003 53.6996 13.7003C40.3996 13.7003 27.7996 14.8003 18.3996 16.9003C7.5996 19.2003 5.1996 21.8003 5.1996 22.4003C5.1996 23.1003 5.1996 24.7003 13.8996 26.8003L12.6996 31.7003C4.89962 29.9003 0.0996094 27.7003 0.0996094 22.4003C0.0996094 11.6003 35.0996 8.80029 53.6996 8.80029C72.1996 8.80029 107.2 11.7003 107.2 22.4003C107.2 24.8003 105.6 28.4003 92.0996 32.0003Z" fill="#AC4039"/>
<path d="M22.4996 42.1002C20.8996 43.9002 19.2996 45.7002 17.6996 47.5002C17.4996 47.7002 17.1996 48.0002 16.9996 48.3002C16.7996 48.6002 16.7996 48.9002 16.9996 49.2002C17.1996 49.4002 17.6996 49.4002 17.8996 49.2002C19.4996 47.4002 21.0996 45.6002 22.6996 43.8002C22.8996 43.6002 23.1996 43.3002 23.3996 43.0002C23.5996 42.7002 23.5996 42.4002 23.3996 42.1002C23.0996 41.9002 22.6996 41.9002 22.4996 42.1002Z" fill="#AC4039"/>
<path d="M25.8004 42.1002C24.2004 43.9002 22.6004 45.7002 21.0004 47.5002C20.8004 47.7002 20.5004 48.0002 20.3004 48.3002C20.1004 48.6002 20.1004 48.9002 20.3004 49.2002C20.5004 49.4002 21.0004 49.4002 21.2004 49.2002C22.8004 47.4002 24.4004 45.6002 26.0004 43.8002C26.2004 43.6002 26.5004 43.3002 26.7004 43.0002C26.9004 42.7002 26.9004 42.4002 26.7004 42.1002C26.4004 41.9002 26.0004 41.9002 25.8004 42.1002Z" fill="#AC4039"/>
<path d="M29.0992 42.1002C27.4992 43.9002 25.8992 45.7002 24.2992 47.5002C24.0992 47.7002 23.7992 48.0002 23.5992 48.3002C23.3992 48.6002 23.3992 48.9002 23.5992 49.2002C23.7992 49.4002 24.2992 49.4002 24.4992 49.2002C26.0992 47.4002 27.6992 45.6002 29.2992 43.8002C29.4992 43.6002 29.7992 43.3002 29.9992 43.0002C30.1992 42.7002 30.1992 42.4002 29.9992 42.1002C29.6992 41.9002 29.2992 41.9002 29.0992 42.1002Z" fill="#AC4039"/>
<path d="M80.0992 42.1002C78.4992 43.9002 76.8992 45.7002 75.2992 47.5002C75.0992 47.7002 74.7992 48.0002 74.5992 48.3002C74.3992 48.6002 74.3992 48.9002 74.5992 49.2002C74.7992 49.4002 75.2992 49.4002 75.4992 49.2002C77.0992 47.4002 78.6992 45.6002 80.2992 43.8002C80.4992 43.6002 80.7992 43.3002 80.9992 43.0002C81.1992 42.7002 81.1992 42.4002 80.9992 42.1002C80.6992 41.9002 80.2992 41.9002 80.0992 42.1002Z" fill="#AC4039"/>
<path d="M83.4 42.1002C81.8 43.9002 80.2 45.7002 78.6 47.5002C78.4 47.7002 78.1 48.0002 77.9 48.3002C77.7 48.6002 77.7 48.9002 77.9 49.2002C78.1 49.4002 78.6 49.4002 78.8 49.2002C80.4 47.4002 82 45.6002 83.6 43.8002C83.8 43.6002 84.1 43.3002 84.3 43.0002C84.5 42.7002 84.5 42.4002 84.3 42.1002C84 41.9002 83.6 41.9002 83.4 42.1002Z" fill="#AC4039"/>
<path d="M86.6988 42.1002C85.0988 43.9002 83.4988 45.7002 81.8988 47.5002C81.6988 47.7002 81.3988 48.0002 81.1988 48.3002C80.9988 48.6002 80.9988 48.9002 81.1988 49.2002C81.3988 49.4002 81.8988 49.4002 82.0988 49.2002C83.6988 47.4002 85.2988 45.6002 86.8988 43.8002C87.0988 43.6002 87.3988 43.3002 87.5988 43.0002C87.7988 42.7002 87.7988 42.4002 87.5988 42.1002C87.2988 41.9002 86.8988 41.9002 86.6988 42.1002Z" fill="#AC4039"/>
</svg>
