<svg width="86" height="86" viewBox="0 0 86 86" fill="none" xmlns="http://www.w3.org/2000/svg">
<path d="M42.9996 85.7001V83.7001C46.8996 83.7001 50.6996 83.1001 54.3996 82.0001L54.9996 83.9001C51.1996 85.0001 47.0996 85.6001 42.9996 85.7001ZM30.9996 84.0001C27.0996 82.9001 23.3996 81.2001 19.8996 79.0001L20.9996 77.3C24.2996 79.4 27.7996 81.0001 31.4996 82.1001L30.9996 84.0001ZM66.0996 78.8L64.9996 77.1001C68.2996 75.0001 71.1996 72.4001 73.6996 69.5001L75.1996 70.8C72.5996 73.9 69.4996 76.6 66.0996 78.8ZM10.6996 71.1001C7.99962 68.0001 5.79961 64.6001 4.09961 60.9001L5.8996 60.1001C7.4996 63.6001 9.69962 66.9 12.1996 69.8L10.6996 71.1001ZM81.7996 60.6001L79.9996 59.8C81.5996 56.3 82.6996 52.5001 83.1996 48.7001L85.1996 49.0001C84.5996 53.0001 83.3996 56.9001 81.7996 60.6001ZM0.599609 49.3C0.299609 47.2 0.0996094 45.1001 0.0996094 43.0001C0.0996094 41.1001 0.199603 39.1001 0.499603 37.2001L2.4996 37.5001C2.2996 39.3001 2.09961 41.2001 2.09961 43.0001C2.09961 45.0001 2.1996 47.1001 2.4996 49.0001L0.599609 49.3ZM83.0996 37.1001C82.4996 33.3001 81.3996 29.5001 79.7996 26.0001L81.5996 25.2001C83.2996 28.9001 84.4996 32.8 84.9996 36.8L83.0996 37.1001ZM5.69962 26.3L3.8996 25.5001C5.5996 21.8001 7.7996 18.3001 10.3996 15.2001L11.8996 16.5001C9.3996 19.5001 7.29962 22.8 5.69962 26.3ZM73.5996 16.3C71.0996 13.4 68.0996 10.8001 64.7996 8.70007L65.8996 7.00006C69.2996 9.20006 72.3996 11.9001 75.0996 14.9001L73.5996 16.3ZM20.5996 8.90005L19.4996 7.20007C22.8996 5.00007 26.5996 3.20007 30.4996 2.10007L31.0996 4.00006C27.3996 5.10006 23.7996 6.70005 20.5996 8.90005ZM54.2996 3.90005C50.5996 2.80005 46.6996 2.30005 42.7996 2.30005H42.4996V0.300049H42.8996C46.9996 0.300049 50.9996 0.900061 54.8996 2.00006L54.2996 3.90005Z" fill="#FFC785"/>
<path d="M28.8 41.2C32.5555 41.2 35.6 37.6182 35.6 33.2C35.6 28.7817 32.5555 25.2 28.8 25.2C25.0445 25.2 22 28.7817 22 33.2C22 37.6182 25.0445 41.2 28.8 41.2Z" fill="#FFC785"/>
<path d="M56.9992 41.2C60.7547 41.2 63.7992 37.6182 63.7992 33.2C63.7992 28.7817 60.7547 25.2 56.9992 25.2C53.2437 25.2 50.1992 28.7817 50.1992 33.2C50.1992 37.6182 53.2437 41.2 56.9992 41.2Z" fill="#FFC785"/>
<path d="M52.7992 60.2001H32.8992C31.9992 60.2001 31.1992 59.4001 31.1992 58.5001C31.1992 57.6001 31.9992 56.8 32.8992 56.8H52.7992C53.6992 56.8 54.4992 57.6001 54.4992 58.5001C54.4992 59.4001 53.7992 60.2001 52.7992 60.2001Z" fill="#FFC785"/>
</svg>
