<svg width="87" height="86" viewBox="0 0 87 86" fill="none" xmlns="http://www.w3.org/2000/svg">
<path d="M43.5713 61.4901C37.8713 61.3501 33.1213 58.9801 29.6113 54.2101C29.0613 53.4601 28.3513 52.6001 29.2113 51.7401C30.0013 50.9501 30.7013 51.8501 31.3513 52.2501C39.3413 57.2401 47.3813 57.4101 55.4913 52.5301C55.8913 52.2901 56.2813 52.0401 56.6713 51.7801C57.1413 51.4701 57.6513 51.2602 58.1113 51.6702C58.5913 52.1102 58.5813 52.6901 58.2613 53.2601C57.4713 54.7001 56.4213 55.9401 55.2013 57.0301C51.9313 59.9301 48.1013 61.3901 43.5713 61.4901Z" fill="#FFC990"/>
<path d="M30.7203 39.4901C28.7703 39.9701 27.2002 39.4701 25.7402 38.5301C23.9002 37.3501 22.5103 35.7401 21.2903 33.9501C20.9603 33.4701 20.7603 33.0201 21.1403 32.5301C21.6003 31.9401 22.1402 32.1001 22.6802 32.4501C26.2202 34.6801 31.9003 33.7101 34.5103 29.6201C34.7703 29.2101 35.0803 28.8601 35.6303 29.0201C36.2603 29.2001 36.4102 29.7101 36.3402 30.2501C35.9802 33.1101 35.2403 35.8301 33.2203 38.0201C32.5003 38.8001 31.6103 39.3501 30.7203 39.4901Z" fill="#FFC990"/>
<path d="M51 29.8501C51.07 29.2501 51.39 29.0001 51.8 28.9001C52.44 28.7401 52.71 29.2201 53.02 29.6601C55.14 32.7001 58.06 33.9801 61.72 33.5801C62.77 33.4701 63.75 33.1201 64.67 32.6101C65.15 32.3501 65.64 32.1001 66.09 32.5801C66.59 33.1101 66.33 33.6902 65.99 34.1702C64.49 36.2702 62.75 38.1301 60.34 39.1901C57.98 40.2301 55.58 39.7101 53.87 37.7701C51.85 35.4801 51.38 32.6201 51 29.8501Z" fill="#FFC990"/>
<path d="M43.6407 84.61C66.6544 84.61 85.3107 65.9537 85.3107 42.94C85.3107 19.9263 66.6544 1.27002 43.6407 1.27002C20.627 1.27002 1.9707 19.9263 1.9707 42.94C1.9707 65.9537 20.627 84.61 43.6407 84.61Z" stroke="#F7C287" stroke-width="2" stroke-miterlimit="10"/>
<path d="M24.8002 22.1199C27.9002 21.5699 30.6902 18.91 30.0202 17.04C30.0002 16.98 29.9702 16.91 29.9402 16.85L29.8802 16.72C29.5102 15.97 28.6702 15.5399 27.5902 15.4599C26.0802 15.3499 24.2202 16.04 22.9402 17.19L20.7602 19.1499L17.2102 22.3399C16.5802 22.9099 16.8802 23.5199 17.7202 23.3699L22.4202 22.53L24.8002 22.1199Z" fill="#FFC990"/>
<path d="M62.4805 22.1199C59.3805 21.5699 56.5905 18.91 57.2605 17.04C57.2805 16.98 57.3105 16.91 57.3405 16.85L57.4005 16.72C57.7705 15.97 58.6105 15.5399 59.6905 15.4599C61.2005 15.3499 63.0605 16.04 64.3405 17.19L66.5205 19.1499L70.0705 22.3399C70.7005 22.9099 70.4005 23.5199 69.5605 23.3699L64.8605 22.53L62.4805 22.1199Z" fill="#FFC990"/>
</svg>
