<svg width="108" height="86" viewBox="0 0 108 86" fill="none" xmlns="http://www.w3.org/2000/svg">
<path d="M52.2295 61.4899C46.5295 61.3499 41.7795 58.9799 38.2695 54.2099C37.7195 53.4599 37.0095 52.5999 37.8695 51.7399C38.6595 50.9499 39.3595 51.8499 40.0095 52.2499C47.9995 57.2399 56.0395 57.4099 64.1495 52.5299C64.5495 52.2899 64.9395 52.0399 65.3295 51.7799C65.7995 51.4699 66.3095 51.2599 66.7695 51.6699C67.2495 52.1099 67.2395 52.6899 66.9195 53.2599C66.1295 54.6999 65.0795 55.9399 63.8595 57.0299C60.5995 59.9099 56.7795 61.3799 52.2395 61.4799L52.2295 61.4899Z" fill="#FFC990"/>
<path d="M66.2592 28.0401C68.2692 28.0101 69.6792 28.87 70.8892 30.11C72.4092 31.67 73.3992 33.5601 74.1792 35.5901C74.3892 36.1301 74.4892 36.6201 73.9992 37.0101C73.4192 37.4801 72.9292 37.19 72.4792 36.74C69.5392 33.75 63.7892 33.41 60.3192 36.8C59.9692 37.14 59.5892 37.4101 59.0892 37.1301C58.5192 36.8201 58.4892 36.28 58.6792 35.77C59.6892 33.07 61.0192 30.5801 63.4892 28.9201C64.3692 28.3301 65.3592 27.9901 66.2592 28.0601V28.0401Z" fill="#FFC990"/>
<path d="M46.0193 36C46.0993 36.6 45.8494 36.92 45.4794 37.12C44.8994 37.43 44.5193 37.03 44.1093 36.68C41.3093 34.26 38.1593 33.75 34.7093 35.05C33.7193 35.42 32.8593 36 32.0893 36.72C31.6893 37.09 31.2794 37.46 30.7194 37.1C30.0994 36.71 30.2094 36.08 30.4194 35.54C31.3494 33.14 32.5693 30.91 34.6493 29.27C36.6793 27.67 39.1293 27.59 41.2693 29.04C43.8093 30.76 44.9694 33.41 46.0294 36H46.0193Z" fill="#FFC990"/>
<path d="M52.3008 84.61C75.3145 84.61 93.9709 65.9537 93.9709 42.94C93.9709 19.9263 75.3145 1.27002 52.3008 1.27002C29.2871 1.27002 10.6309 19.9263 10.6309 42.94C10.6309 65.9537 29.2871 84.61 52.3008 84.61Z" stroke="#F7C287" stroke-width="2" stroke-miterlimit="10"/>
<path d="M13.2398 29.29C4.88984 27.3 2.58984 25.35 2.58984 22.44C2.58984 16.28 25.4399 11.29 53.6399 11.29C81.8399 11.29 104.69 16.28 104.69 22.44C104.69 25.08 98.4298 27.71 91.4298 29.61" stroke="#F7C287" stroke-width="5" stroke-miterlimit="10"/>
<path d="M22.45 42.14C20.87 43.94 19.29 45.74 17.7 47.54C17.48 47.79 17.2499 48.05 17.0299 48.3C16.8099 48.55 16.7799 48.93 17.0299 49.18C17.2599 49.41 17.6899 49.43 17.9099 49.18C19.4899 47.38 21.0699 45.58 22.6599 43.78C22.8799 43.53 23.1099 43.27 23.3299 43.02C23.5499 42.77 23.5799 42.39 23.3299 42.14C23.0999 41.91 22.67 41.89 22.45 42.14Z" fill="#F7C287"/>
<path d="M25.7605 42.14C24.1805 43.94 22.6005 45.74 21.0105 47.54C20.7905 47.79 20.5605 48.05 20.3405 48.3C20.1205 48.55 20.0905 48.93 20.3405 49.18C20.5705 49.41 21.0005 49.43 21.2205 49.18C22.8005 47.38 24.3805 45.58 25.9705 43.78C26.1905 43.53 26.4205 43.27 26.6405 43.02C26.8605 42.77 26.8905 42.39 26.6405 42.14C26.4105 41.91 25.9805 41.89 25.7605 42.14Z" fill="#F7C287"/>
<path d="M29.0691 42.14C27.4891 43.94 25.9091 45.74 24.3191 47.54C24.0991 47.79 23.8691 48.05 23.6491 48.3C23.4291 48.55 23.3991 48.93 23.6491 49.18C23.8791 49.41 24.3091 49.43 24.5291 49.18C26.1091 47.38 27.6891 45.58 29.2791 43.78C29.4991 43.53 29.7291 43.27 29.9491 43.02C30.1691 42.77 30.1991 42.39 29.9491 42.14C29.7191 41.91 29.2891 41.89 29.0691 42.14Z" fill="#F7C287"/>
<path d="M80.0691 42.14C78.4891 43.94 76.9091 45.74 75.3191 47.54C75.0991 47.79 74.8691 48.05 74.6491 48.3C74.4291 48.55 74.3991 48.93 74.6491 49.18C74.8791 49.41 75.3091 49.43 75.5291 49.18C77.1091 47.38 78.6891 45.58 80.2791 43.78C80.4991 43.53 80.7291 43.27 80.9491 43.02C81.1691 42.77 81.1991 42.39 80.9491 42.14C80.7191 41.91 80.2891 41.89 80.0691 42.14Z" fill="#F7C287"/>
<path d="M83.3796 42.14C81.7996 43.94 80.2196 45.74 78.6296 47.54C78.4096 47.79 78.1796 48.05 77.9596 48.3C77.7396 48.55 77.7096 48.93 77.9596 49.18C78.1896 49.41 78.6196 49.43 78.8396 49.18C80.4196 47.38 81.9996 45.58 83.5896 43.78C83.8096 43.53 84.0397 43.27 84.2597 43.02C84.4797 42.77 84.5097 42.39 84.2597 42.14C84.0297 41.91 83.5996 41.89 83.3796 42.14Z" fill="#F7C287"/>
<path d="M86.6902 42.14C85.1102 43.94 83.5302 45.74 81.9402 47.54C81.7202 47.79 81.4902 48.05 81.2702 48.3C81.0502 48.55 81.0202 48.93 81.2702 49.18C81.5002 49.41 81.9302 49.43 82.1502 49.18C83.7302 47.38 85.3102 45.58 86.9002 43.78C87.1202 43.53 87.3502 43.27 87.5702 43.02C87.7902 42.77 87.8202 42.39 87.5702 42.14C87.3402 41.91 86.9102 41.89 86.6902 42.14Z" fill="#F7C287"/>
</svg>
