<svg width="87" height="86" viewBox="0 0 87 86" fill="none" xmlns="http://www.w3.org/2000/svg">
<path d="M43.6005 61.5C37.9005 61.4 33.1005 59 29.6005 54.2C29.1005 53.4 28.3005 52.6 29.2005 51.7C30.0005 50.9 30.7004 51.8 31.3004 52.2C39.3004 57.2 47.3004 57.4 55.4004 52.5C55.8004 52.3 56.2005 52 56.6005 51.7C57.1005 51.4 57.6005 51.2 58.0005 51.6C58.5005 52 58.5005 52.6 58.1005 53.2C57.3005 54.6 56.3005 55.9 55.0005 57C51.9005 59.9 48.1005 61.4 43.6005 61.5Z" fill="#FDFFFC"/>
<path d="M30.701 39.5C28.701 40 27.201 39.5 25.701 38.5C23.901 37.3 22.501 35.7 21.201 33.9C20.901 33.4 20.701 33 21.101 32.5C21.601 31.9 22.101 32.1 22.601 32.4C26.101 34.6 31.8009 33.7 34.4009 29.6C34.7009 29.2 35.0009 28.8 35.5009 29C36.1009 29.2 36.301 29.7 36.201 30.2C35.801 33.1 35.101 35.8 33.101 38C32.501 38.8 31.601 39.4 30.701 39.5Z" fill="#FDFFFC"/>
<path d="M51 29.9001C51.1 29.3001 51.4 29.0001 51.8 28.9001C52.4 28.7001 52.7 29.2002 53 29.7002C55.1 32.7002 58 34.0001 61.7 33.6001C62.7 33.5001 63.7 33.1001 64.7 32.6001C65.2 32.3001 65.7 32.1001 66.1 32.6001C66.6 33.1001 66.3 33.7002 66 34.2002C64.5 36.3002 62.8 38.2002 60.4 39.2002C58 40.2002 55.6 39.7001 53.9 37.8001C51.9 35.5001 51.4 32.6001 51 29.9001Z" fill="#FDFFFC"/>
<path d="M43.6004 84.6002C66.6307 84.6002 85.3004 65.9305 85.3004 42.9002C85.3004 19.8699 66.6307 1.2002 43.6004 1.2002C20.5701 1.2002 1.90039 19.8699 1.90039 42.9002C1.90039 65.9305 20.5701 84.6002 43.6004 84.6002Z" fill="#FDFFFC"/>
<path d="M24.7995 22.1001C27.8995 21.6001 30.6996 18.9001 29.9996 17.0001C29.9996 16.9001 29.9996 16.9001 29.8996 16.8001L29.7995 16.7001C29.3995 15.9001 28.5996 15.5001 27.4996 15.4001C25.9996 15.3001 24.0996 16.0001 22.8996 17.1001L20.6996 19.1001L17.1996 22.3001C16.5996 22.9001 16.8996 23.5001 17.6996 23.3001L22.3996 22.5001L24.7995 22.1001Z" fill="#FDFFFC"/>
<path d="M62.4999 22.1001C59.3999 21.6001 56.5998 18.9001 57.2998 17.0001C57.2998 16.9001 57.2999 16.9001 57.3999 16.8001L57.4999 16.7001C57.8999 15.9001 58.6998 15.5001 59.7998 15.4001C61.2998 15.3001 63.1999 16.0001 64.3999 17.1001L66.5999 19.1001L70.0999 22.3001C70.6999 22.9001 70.3999 23.5001 69.5999 23.3001L64.8999 22.5001L62.4999 22.1001Z" fill="#FDFFFC"/>
<path d="M43.6005 61.5C37.9005 61.4 33.1005 59 29.6005 54.2C29.1005 53.4 28.3005 52.6 29.2005 51.7C30.0005 50.9 30.7004 51.8 31.3004 52.2C39.3004 57.2 47.3004 57.4 55.4004 52.5C55.8004 52.3 56.2005 52 56.6005 51.7C57.1005 51.4 57.6005 51.2 58.0005 51.6C58.5005 52 58.5005 52.6 58.1005 53.2C57.3005 54.6 56.3005 55.9 55.0005 57C51.9005 59.9 48.1005 61.4 43.6005 61.5Z" fill="#AC4039"/>
<path d="M30.701 39.5C28.701 40 27.201 39.5 25.701 38.5C23.901 37.3 22.501 35.7 21.201 33.9C20.901 33.4 20.701 33 21.101 32.5C21.601 31.9 22.101 32.1 22.601 32.4C26.101 34.6 31.8009 33.7 34.4009 29.6C34.7009 29.2 35.0009 28.8 35.5009 29C36.1009 29.2 36.301 29.7 36.201 30.2C35.801 33.1 35.101 35.8 33.101 38C32.501 38.8 31.601 39.4 30.701 39.5Z" fill="#AC4039"/>
<path d="M51 29.9001C51.1 29.3001 51.4 29.0001 51.8 28.9001C52.4 28.7001 52.7 29.2002 53 29.7002C55.1 32.7002 58 34.0001 61.7 33.6001C62.7 33.5001 63.7 33.1001 64.7 32.6001C65.2 32.3001 65.7 32.1001 66.1 32.6001C66.6 33.1001 66.3 33.7002 66 34.2002C64.5 36.3002 62.8 38.2002 60.4 39.2002C58 40.2002 55.6 39.7001 53.9 37.8001C51.9 35.5001 51.4 32.6001 51 29.9001Z" fill="#AC4039"/>
<path d="M43.6004 85.6002C20.1004 85.6002 0.900391 66.5002 0.900391 42.9002C0.900391 19.4002 20.0004 0.200195 43.6004 0.200195C67.2004 0.200195 86.3004 19.3002 86.3004 42.9002C86.3004 66.5002 67.2004 85.6002 43.6004 85.6002ZM43.6004 2.30017C21.2004 2.30017 2.90039 20.5002 2.90039 43.0002C2.90039 65.5002 21.1004 83.7002 43.6004 83.7002C66.1004 83.7002 84.3004 65.5002 84.3004 43.0002C84.3004 20.5002 66.1004 2.30017 43.6004 2.30017Z" fill="#AC4039"/>
<path d="M24.7995 22.1001C27.8995 21.6001 30.6996 18.9001 29.9996 17.0001C29.9996 16.9001 29.9996 16.9001 29.8996 16.8001L29.7995 16.7001C29.3995 15.9001 28.5996 15.5001 27.4996 15.4001C25.9996 15.3001 24.0996 16.0001 22.8996 17.1001L20.6996 19.1001L17.1996 22.3001C16.5996 22.9001 16.8996 23.5001 17.6996 23.3001L22.3996 22.5001L24.7995 22.1001Z" fill="#AC4039"/>
<path d="M62.4999 22.1001C59.3999 21.6001 56.5998 18.9001 57.2998 17.0001C57.2998 16.9001 57.2999 16.9001 57.3999 16.8001L57.4999 16.7001C57.8999 15.9001 58.6998 15.5001 59.7998 15.4001C61.2998 15.3001 63.1999 16.0001 64.3999 17.1001L66.5999 19.1001L70.0999 22.3001C70.6999 22.9001 70.3999 23.5001 69.5999 23.3001L64.8999 22.5001L62.4999 22.1001Z" fill="#AC4039"/>
</svg>
