<svg width="86" height="86" viewBox="0 0 86 86" fill="none" xmlns="http://www.w3.org/2000/svg">
<path d="M42.6 84.5999C65.5751 84.5999 84.2 65.975 84.2 42.9999C84.2 20.0249 65.5751 1.3999 42.6 1.3999C19.625 1.3999 1 20.0249 1 42.9999C1 65.975 19.625 84.5999 42.6 84.5999Z" fill="#FEFFFD"/>
<path d="M42.9996 85.6998V83.6998C46.8996 83.6998 50.6996 83.0998 54.3996 81.9998L54.9996 83.8998C51.1996 84.9998 47.0996 85.5998 42.9996 85.6998ZM30.9996 83.9998C27.0996 82.8998 23.3996 81.1998 19.8996 78.9998L20.9996 77.2998C24.2996 79.3998 27.7996 80.9998 31.4996 82.0998L30.9996 83.9998ZM66.0996 78.7998L64.9996 77.0998C68.2996 74.9998 71.1996 72.3998 73.6996 69.4998L75.1996 70.7998C72.5996 73.8998 69.4996 76.5998 66.0996 78.7998ZM10.6996 71.0998C7.99962 67.9998 5.79961 64.5998 4.09961 60.8998L5.8996 60.0998C7.4996 63.5998 9.69962 66.8998 12.1996 69.7998L10.6996 71.0998ZM81.7996 60.5998L79.9996 59.7998C81.5996 56.2998 82.6996 52.4998 83.1996 48.6998L85.1996 48.9998C84.5996 52.9998 83.3996 56.8998 81.7996 60.5998ZM0.599609 49.2998C0.299609 47.1998 0.0996094 45.0998 0.0996094 42.9998C0.0996094 41.0998 0.199603 39.0998 0.499603 37.1998L2.4996 37.4998C2.2996 39.2998 2.09961 41.1998 2.09961 42.9998C2.09961 44.9998 2.1996 47.0998 2.4996 48.9998L0.599609 49.2998ZM83.0996 37.0998C82.4996 33.2998 81.3996 29.4998 79.7996 25.9998L81.5996 25.1998C83.2996 28.8998 84.4996 32.7998 84.9996 36.7998L83.0996 37.0998ZM5.69962 26.2998L3.8996 25.4998C5.5996 21.7998 7.7996 18.2998 10.3996 15.1998L11.8996 16.4998C9.3996 19.4998 7.29962 22.7998 5.69962 26.2998ZM73.5996 16.2998C71.0996 13.3998 68.0996 10.7998 64.7996 8.69983L65.8996 6.99982C69.2996 9.19982 72.3996 11.8998 75.0996 14.8998L73.5996 16.2998ZM20.5996 8.89981L19.4996 7.19983C22.8996 4.99983 26.5996 3.19982 30.4996 2.09982L31.0996 3.99982C27.3996 5.09982 23.7996 6.69981 20.5996 8.89981ZM54.2996 3.89981C50.5996 2.79981 46.6996 2.2998 42.7996 2.2998H42.4996V0.299805H42.8996C46.9996 0.299805 50.9996 0.899817 54.8996 1.99982L54.2996 3.89981Z" fill="#A1473E"/>
<path d="M28.8 41.1997C32.5555 41.1997 35.6 37.618 35.6 33.1997C35.6 28.7814 32.5555 25.1997 28.8 25.1997C25.0445 25.1997 22 28.7814 22 33.1997C22 37.618 25.0445 41.1997 28.8 41.1997Z" fill="#A1473E"/>
<path d="M56.9992 41.1997C60.7547 41.1997 63.7992 37.618 63.7992 33.1997C63.7992 28.7814 60.7547 25.1997 56.9992 25.1997C53.2437 25.1997 50.1992 28.7814 50.1992 33.1997C50.1992 37.618 53.2437 41.1997 56.9992 41.1997Z" fill="#A1473E"/>
<path d="M52.7992 60.1998H32.8992C31.9992 60.1998 31.1992 59.3998 31.1992 58.4998C31.1992 57.5998 31.9992 56.7998 32.8992 56.7998H52.7992C53.6992 56.7998 54.4992 57.5998 54.4992 58.4998C54.4992 59.3998 53.7992 60.1998 52.7992 60.1998Z" fill="#A1473E"/>
</svg>
