<?xml version="1.0" encoding="UTF-8"?>
<svg width="14px" height="14px" viewBox="0 0 14 14" version="1.1" xmlns="http://www.w3.org/2000/svg" xmlns:xlink="http://www.w3.org/1999/xlink">
    <!-- Generator: Sketch 51.2 (57519) - http://www.bohemiancoding.com/sketch -->
    <title>Group 5</title>
    <desc>Created with Sketch.</desc>
    <defs></defs>
    <g id="第一階段" stroke="none" stroke-width="1" fill="none" fill-rule="evenodd">
        <g id="Group-5" fill="#01ffff">
            <rect id="Rectangle-12" x="0" y="0" width="14" height="2"></rect>
            <path d="M10,12 L12,12 L12,10 L10,10 L10,12 Z M8,12 L8,10 L6,10 L6,12 L8,12 Z M4,12 L4,10 L2,10 L2,12 L4,12 Z M2,14 L0,14 L0,6 L0,4 L14,4 L14,6 L14,14 L12,14 L2,14 Z M10,8 L12,8 L12,6 L10,6 L10,8 Z M8,8 L8,6 L6,6 L6,8 L8,8 Z M4,8 L4,6 L2,6 L2,8 L4,8 Z" id="Combined-Shape"></path>
        </g>
    </g>
</svg>