<?xml version="1.0" encoding="utf-8"?>
<!-- Generator: Adobe Illustrator 23.0.2, SVG Export Plug-In . SVG Version: 6.00 Build 0)  -->
<svg version="1.1" id="圖層_1" xmlns="http://www.w3.org/2000/svg" xmlns:xlink="http://www.w3.org/1999/xlink" x="0px" y="0px"
	 viewBox="0 0 42 42" style="enable-background:new 0 0 42 42;" xml:space="preserve">
<style type="text/css">
	.st0{fill:#01FFFF;}
</style>
<g id="Group_381" transform="translate(16.194 12.282)">
	<path id="Path_1109" class="st0" d="M10.1,0H7.6C4.8,0,2.9,1.9,2.9,4.9v2.2H0.4C0.2,7.1,0,7.3,0,7.5c0,0,0,0,0,0v3.2
		c0,0.2,0.2,0.4,0.4,0.4h2.5v8.2c0,0.2,0.2,0.4,0.4,0.4h3.3c0.2,0,0.4-0.2,0.4-0.4v-8.2h3c0.2,0,0.4-0.2,0.4-0.4V7.5
		c0-0.1,0-0.2-0.1-0.3c-0.1-0.1-0.2-0.1-0.3-0.1h-3V5.2c0-0.9,0.2-1.4,1.4-1.4h1.7c0.2,0,0.4-0.2,0.4-0.4v-3C10.5,0.2,10.4,0,10.1,0
		z"/>
</g>
<g>
	<polygon class="st0" points="23.3,41 1,41 1,15.2 15.2,1 41,1 41,23.3 42,23.3 42,0 14.8,0 0,14.8 0,42 23.3,42 	"/>
	<polygon class="st0" points="41,31.5 41,41 31.5,41 31.5,42 42,42 42,31.5 	"/>
</g>
</svg>
