<?xml version="1.0" encoding="utf-8"?>
<!-- Generator: Adobe Illustrator 23.0.2, SVG Export Plug-In . SVG Version: 6.00 Build 0)  -->
<svg version="1.1" id="圖層_1" xmlns="http://www.w3.org/2000/svg" xmlns:xlink="http://www.w3.org/1999/xlink" x="0px" y="0px"
	 viewBox="0 0 42 42" style="enable-background:new 0 0 42 42;" xml:space="preserve">
<style type="text/css">
	.st0{fill:#01FFFF;}
</style>
<g id="Group_380" transform="translate(12.461 12.462)">
	<path id="Path_1107" class="st0" d="M13,0H5.5C2.5,0,0,2.5,0,5.5V13c0,3,2.5,5.5,5.5,5.5H13c3,0,5.5-2.5,5.5-5.5V5.5
		C18.5,2.5,16,0,13,0z M16.7,13c0,2-1.6,3.7-3.7,3.7c0,0,0,0,0,0H5.5c-2,0-3.7-1.6-3.7-3.7c0,0,0,0,0,0V5.5c0-2,1.6-3.7,3.7-3.7H13
		c2,0,3.7,1.6,3.7,3.7V13z"/>
	<path id="Path_1108" class="st0" d="M9.3,4.5c-2.6,0-4.8,2.1-4.8,4.8c0,2.6,2.1,4.8,4.8,4.8c2.6,0,4.8-2.1,4.8-4.8c0,0,0,0,0,0
		C14,6.6,11.9,4.5,9.3,4.5z M9.3,12.2c-1.6,0-2.9-1.3-2.9-2.9s1.3-2.9,2.9-2.9c1.6,0,2.9,1.3,2.9,2.9S10.9,12.2,9.3,12.2L9.3,12.2z"
		/>
	<ellipse id="Ellipse_98" class="st0" cx="14.1" cy="4.5" rx="1.1" ry="1.1"/>
</g>
<g>
	<polygon class="st0" points="23.3,41 1,41 1,15.2 15.2,1 41,1 41,23.3 42,23.3 42,0 14.8,0 0,14.8 0,42 23.3,42 	"/>
	<polygon class="st0" points="41,31.5 41,41 31.5,41 31.5,42 42,42 42,31.5 	"/>
</g>
</svg>
