<svg width="122" height="26" viewBox="0 0 122 26" fill="none" xmlns="http://www.w3.org/2000/svg">
<g clip-path="url(#clip0_134_933)">
<path d="M3.36977 20.8699C3.03977 20.3799 2.48977 20.1599 1.96977 20.1599C1.69977 20.1599 1.41977 20.2199 1.16977 20.3499C0.759766 20.5599 0.449766 20.8899 0.269766 21.2599C0.0797656 21.6299 0.00976562 22.0399 0.00976562 22.4399C0.00976562 23.2999 0.339766 24.1599 0.919766 24.7299C1.37977 25.1899 1.93977 25.4599 2.49977 25.5999C3.06977 25.7499 3.64977 25.7899 4.20977 25.7899C4.88977 25.7899 5.53977 25.7399 6.10977 25.7399H61.0698C61.3498 25.7399 61.5698 25.5199 61.5698 25.2399C61.5698 24.9599 61.3498 24.7399 61.0698 24.7399C60.4498 24.7399 59.8398 24.7399 59.2198 24.7399H6.08977C5.46977 24.7399 4.80977 24.7899 4.18977 24.7899C3.66977 24.7899 3.16977 24.7499 2.73977 24.6399C2.29977 24.5199 1.92977 24.3299 1.60977 24.0199C1.26977 23.6899 0.989766 23.0299 0.999766 22.4399C0.999766 22.1699 1.04977 21.9199 1.15977 21.7199C1.25977 21.5199 1.39977 21.3699 1.62977 21.2499C1.72977 21.1999 1.84977 21.1699 1.96977 21.1699C2.21977 21.1699 2.43977 21.2799 2.53977 21.4299C2.68977 21.6599 2.99977 21.7199 3.22977 21.5699C3.45977 21.4199 3.51977 21.1099 3.36977 20.8799V20.8699Z" fill="#F4115D"/>
<path d="M3.44981 21.4399C3.46981 20.9399 3.08981 20.5199 2.58981 20.4899C2.08981 20.4599 1.66981 20.8499 1.63981 21.3499C1.60981 21.8499 1.99981 22.2699 2.49981 22.2999C2.99981 22.3299 3.41981 21.9399 3.44981 21.4399Z" fill="#F4115D"/>
<path d="M118.77 21.4199C118.87 21.2699 119.09 21.1599 119.34 21.1599C119.46 21.1599 119.59 21.1899 119.68 21.2399C119.9 21.3499 120.04 21.5099 120.14 21.7099C120.24 21.9099 120.3 22.1599 120.3 22.4299C120.3 23.0199 120.03 23.6799 119.69 24.0099C119.37 24.3299 118.99 24.5099 118.56 24.6299C118.12 24.7499 117.63 24.7799 117.11 24.7799C116.49 24.7799 115.83 24.7299 115.21 24.7299H60.25C59.97 24.7299 59.75 24.9499 59.75 25.2299C59.75 25.5099 59.97 25.7299 60.25 25.7299H115.21C115.78 25.7299 116.43 25.7799 117.11 25.7799C117.67 25.7799 118.25 25.7399 118.82 25.5899C119.38 25.4399 119.94 25.1699 120.4 24.7199C120.97 24.1399 121.3 23.2899 121.31 22.4299C121.31 22.0299 121.23 21.6199 121.05 21.2499C120.86 20.8799 120.56 20.5499 120.15 20.3399C119.9 20.2099 119.62 20.1499 119.35 20.1499C118.83 20.1499 118.28 20.3699 117.95 20.8599C117.8 21.0899 117.86 21.3999 118.09 21.5499C118.32 21.6999 118.63 21.6399 118.78 21.4099L118.77 21.4199Z" fill="#F4115D"/>
<path d="M117.85 21.44C117.83 20.94 118.21 20.52 118.71 20.49C119.21 20.47 119.63 20.85 119.66 21.35C119.68 21.85 119.3 22.27 118.8 22.3C118.3 22.33 117.88 21.94 117.85 21.44Z" fill="#F4115D"/>
<path d="M50.5899 14.5101C51.0999 13.5901 52.1599 13.1101 53.2999 13.1101C54.3299 13.1101 55.3699 13.5201 56.0099 14.2701C56.6399 15.0101 56.9399 15.9601 56.9399 16.9601C56.9399 18.1701 56.4899 19.4201 55.7099 20.3301C54.3499 21.9201 52.1399 22.6801 49.9599 22.6801C49.8099 22.6801 49.6599 22.6801 49.5099 22.6701C47.1799 22.5601 44.9099 21.6801 42.7399 20.6301C40.0699 19.3401 37.7599 17.7301 35.2899 16.4201C32.8099 15.1101 30.1499 14.1101 26.8399 14.1101C26.7299 14.1101 26.6099 14.1101 26.4999 14.1101C25.2199 14.1401 23.8399 14.5701 22.7299 15.1201C21.9899 15.4901 21.2699 16.0101 20.7899 16.7601C20.3899 17.3801 20.1699 18.1701 20.1699 18.9701C20.1699 19.5101 20.2699 20.0501 20.5299 20.5301C20.7799 21.0101 21.1999 21.4301 21.7699 21.6601C22.0699 21.7801 22.3999 21.8401 22.7099 21.8401C23.4899 21.8401 24.2699 21.5001 24.7699 20.8701C25.1399 20.4001 25.3199 19.8301 25.3199 19.2601C25.3199 18.7401 25.1699 18.2101 24.8599 17.7701C24.6999 17.5401 24.3899 17.4901 24.1599 17.6501C23.9299 17.8101 23.8799 18.1201 24.0399 18.3501C24.2199 18.6001 24.3199 18.9301 24.3199 19.2601C24.3199 19.6201 24.1999 19.9801 23.9899 20.2501C23.6999 20.6201 23.1999 20.8401 22.7099 20.8401C22.5099 20.8401 22.3199 20.8001 22.1399 20.7301C21.7999 20.5901 21.5699 20.3601 21.4099 20.0601C21.2499 19.7601 21.1699 19.3701 21.1699 18.9601C21.1699 18.3601 21.3499 17.7201 21.6299 17.3001C21.9799 16.7601 22.5399 16.3301 23.1799 16.0101C24.1699 15.5101 25.4599 15.1301 26.5299 15.1101C26.6399 15.1101 26.7499 15.1101 26.8499 15.1101C29.9599 15.1101 32.4299 16.0301 34.8399 17.3001C37.2399 18.5701 39.5699 20.1901 42.3199 21.5301C44.5399 22.6001 46.9299 23.5501 49.4799 23.6701C49.6499 23.6701 49.8099 23.6801 49.9799 23.6801C52.3799 23.6801 54.8799 22.8501 56.4899 20.9801C57.4399 19.8701 57.9599 18.4001 57.9599 16.9601C57.9599 15.7601 57.5999 14.5601 56.7899 13.6201C55.9199 12.6001 54.5999 12.1101 53.3199 12.1101C51.9099 12.1101 50.4799 12.7101 49.7399 14.0201C49.5999 14.2601 49.6899 14.5701 49.9299 14.7001C50.1699 14.8301 50.4799 14.7501 50.6099 14.5101H50.5899Z" fill="#F4115D"/>
<path d="M50.6598 15.69C51.2728 15.69 51.7698 15.193 51.7698 14.58C51.7698 13.9669 51.2728 13.47 50.6598 13.47C50.0468 13.47 49.5498 13.9669 49.5498 14.58C49.5498 15.193 50.0468 15.69 50.6598 15.69Z" fill="#F4115D"/>
<path d="M36.9402 20.6701C36.9402 20.0501 36.4402 19.5601 35.8302 19.5601C35.2202 19.5601 34.7202 20.0601 34.7202 20.6701C34.7202 21.2801 35.2202 21.7801 35.8302 21.7801C36.4402 21.7801 36.9402 21.2801 36.9402 20.6701Z" fill="#F4115D"/>
<path d="M25.1101 18.4999C25.1101 17.8799 24.6101 17.3899 24.0001 17.3899C23.3901 17.3899 22.8901 17.8899 22.8901 18.4999C22.8901 19.1099 23.3901 19.6099 24.0001 19.6099C24.6101 19.6099 25.1101 19.1099 25.1101 18.4999Z" fill="#F4115D"/>
<path d="M39.0398 18.62C37.9498 18.02 36.6998 17.51 35.3698 17.5C35.1898 17.5 34.9998 17.51 34.8098 17.53C34.0198 17.62 33.2598 17.96 32.6598 18.47C32.0598 18.98 31.6198 19.7 31.5498 20.54V20.76C31.5498 20.98 31.5698 21.22 31.6498 21.45C31.8598 22.04 32.3198 22.44 32.7798 22.7C33.2598 22.97 33.8098 23.12 34.3698 23.12C34.6098 23.12 34.8398 23.09 35.0798 23.03C35.8698 22.83 36.5698 22.26 36.8698 21.46C36.9398 21.28 36.9798 21.07 36.9798 20.86C36.9798 20.59 36.9098 20.28 36.6798 20.03C36.4898 19.83 36.1798 19.81 35.9698 20C35.7698 20.19 35.7498 20.5 35.9398 20.71C35.9598 20.73 35.9798 20.77 35.9798 20.87L35.9298 21.13C35.7698 21.58 35.3298 21.95 34.8298 22.08C34.6798 22.12 34.5298 22.14 34.3698 22.14C33.9998 22.14 33.6098 22.03 33.2698 21.84C32.9398 21.66 32.6798 21.4 32.5998 21.14C32.5598 21.03 32.5398 20.91 32.5398 20.77V20.63C32.5898 20.1 32.8698 19.62 33.3198 19.23C33.7598 18.85 34.3498 18.59 34.9298 18.52C35.0798 18.5 35.2198 18.49 35.3698 18.49C36.4298 18.49 37.5298 18.92 38.5598 19.48C38.7998 19.61 39.1098 19.52 39.2398 19.28C39.3698 19.04 39.2798 18.73 39.0398 18.6V18.62Z" fill="#F4115D"/>
<path d="M34.9001 15.95C35.6401 17.26 37.0701 17.86 38.4801 17.86C39.7601 17.86 41.0801 17.37 41.9501 16.35C42.7601 15.4 43.1201 14.21 43.1201 13.01C43.1201 11.56 42.6001 10.1 41.6501 8.99004C40.0401 7.12004 37.5401 6.29004 35.1401 6.29004C34.9701 6.29004 34.8101 6.29004 34.6401 6.30004C32.0901 6.42004 29.7001 7.37004 27.4801 8.44004C24.7201 9.78004 22.4001 11.4 20.0001 12.67C17.5901 13.94 15.1201 14.86 12.0101 14.86C11.9001 14.86 11.7901 14.86 11.6901 14.86C10.6201 14.84 9.34008 14.45 8.34008 13.96C7.71008 13.65 7.14008 13.21 6.79008 12.67C6.51008 12.25 6.33008 11.61 6.33008 11.01C6.33008 10.6 6.41008 10.21 6.57008 9.91004C6.73008 9.61004 6.96008 9.38004 7.30008 9.24004C7.48008 9.17004 7.67008 9.13004 7.87008 9.13004C8.36008 9.13004 8.86008 9.36004 9.15008 9.72004C9.36008 9.99004 9.48008 10.35 9.48008 10.71C9.48008 11.04 9.38008 11.37 9.20008 11.62C9.04008 11.85 9.09008 12.16 9.32008 12.32C9.55008 12.48 9.86008 12.43 10.0201 12.2C10.3301 11.76 10.4801 11.23 10.4801 10.71C10.4801 10.14 10.3001 9.56004 9.93008 9.10004C9.42008 8.47004 8.65008 8.13004 7.87008 8.13004C7.55008 8.13004 7.23008 8.19004 6.93008 8.31004C6.36008 8.54004 5.94008 8.96004 5.69008 9.44004C5.44008 9.92004 5.33008 10.47 5.33008 11C5.33008 11.8 5.55008 12.59 5.95008 13.21C6.43008 13.96 7.15008 14.48 7.89008 14.85C9.00008 15.4 10.3801 15.83 11.6601 15.86C11.7801 15.86 11.8901 15.86 12.0001 15.86C15.3101 15.86 17.9801 14.86 20.4501 13.55C22.9301 12.24 25.2401 10.63 27.9001 9.34004C30.0701 8.29004 32.3401 7.41004 34.6701 7.30004C34.8201 7.30004 34.9701 7.29004 35.1201 7.29004C37.3001 7.29004 39.5101 8.05004 40.8701 9.64004C41.6601 10.55 42.1001 11.81 42.1001 13.01C42.1001 14.01 41.8001 14.97 41.1701 15.7C40.5301 16.45 39.4901 16.86 38.4601 16.86C37.3201 16.86 36.2701 16.38 35.7501 15.46C35.6101 15.22 35.3101 15.13 35.0701 15.27C34.8301 15.41 34.7401 15.71 34.8801 15.95H34.9001Z" fill="#F4115D"/>
<path d="M35.8502 16.5C36.4633 16.5 36.9602 16.0031 36.9602 15.39C36.9602 14.777 36.4633 14.28 35.8502 14.28C35.2372 14.28 34.7402 14.777 34.7402 15.39C34.7402 16.0031 35.2372 16.5 35.8502 16.5Z" fill="#F4115D"/>
<path d="M22.1302 9.30995C22.1302 9.92995 21.6302 10.42 21.0202 10.42C20.4102 10.42 19.9102 9.91995 19.9102 9.30995C19.9102 8.69995 20.4102 8.19995 21.0202 8.19995C21.6302 8.19995 22.1302 8.69995 22.1302 9.30995Z" fill="#F4115D"/>
<path d="M10.2898 11.4701C10.2898 12.0901 9.78982 12.5801 9.17982 12.5801C8.56982 12.5801 8.06982 12.0801 8.06982 11.4701C8.06982 10.8601 8.56982 10.3601 9.17982 10.3601C9.78982 10.3601 10.2898 10.8601 10.2898 11.4701Z" fill="#F4115D"/>
<path d="M23.75 10.4801C22.73 11.0401 21.62 11.4801 20.56 11.4701C20.41 11.4701 20.27 11.4701 20.12 11.4401C19.54 11.3701 18.95 11.1101 18.51 10.7301C18.07 10.3501 17.78 9.86009 17.74 9.33009V9.19009C17.74 9.05009 17.75 8.93009 17.79 8.82009C17.88 8.56009 18.14 8.30009 18.46 8.12009C18.8 7.93009 19.19 7.82009 19.56 7.82009C19.72 7.82009 19.87 7.84009 20.02 7.88009C20.52 8.00009 20.96 8.38009 21.12 8.83009L21.17 9.09009C21.17 9.19009 21.15 9.23009 21.13 9.25009C20.94 9.45009 20.96 9.77009 21.16 9.96009C21.36 10.1501 21.68 10.1301 21.87 9.93009C22.1 9.68009 22.17 9.37009 22.17 9.10009C22.17 8.88009 22.13 8.68009 22.06 8.50009C21.76 7.70009 21.06 7.13009 20.27 6.93009C20.04 6.87009 19.8 6.84009 19.56 6.84009C19 6.84009 18.45 6.99009 17.97 7.26009C17.51 7.52009 17.05 7.92009 16.84 8.51009C16.76 8.74009 16.73 8.98009 16.73 9.20009V9.42009C16.81 10.2601 17.26 10.9801 17.85 11.4901C18.45 12.0101 19.21 12.3401 20 12.4301C20.19 12.4501 20.37 12.4601 20.56 12.4601C21.89 12.4601 23.13 11.9401 24.23 11.3401C24.47 11.2101 24.56 10.9001 24.43 10.6601C24.3 10.4201 23.99 10.3301 23.75 10.4601V10.4801Z" fill="#F4115D"/>
<path d="M71.5901 14.0201C70.8501 12.7101 69.4201 12.1101 68.0101 12.1101C66.7301 12.1101 65.4101 12.6001 64.5401 13.6201C63.7301 14.5701 63.3701 15.7601 63.3701 16.9601C63.3701 18.4101 63.8901 19.8701 64.8401 20.9801C66.4501 22.8501 68.9501 23.6801 71.3501 23.6801C71.5201 23.6801 71.6801 23.6801 71.8501 23.6701C74.4001 23.5501 76.7901 22.6001 79.0101 21.5301C81.7701 20.1901 84.0901 18.5701 86.4901 17.3001C88.9001 16.0301 91.3701 15.1101 94.4801 15.1101C94.5901 15.1101 94.6901 15.1101 94.8001 15.1101C95.8701 15.1301 97.1501 15.5201 98.1501 16.0101C98.7801 16.3201 99.3501 16.7601 99.7001 17.3001C99.9801 17.7201 100.16 18.3601 100.16 18.9601C100.16 19.3701 100.08 19.7601 99.9201 20.0601C99.7601 20.3601 99.5301 20.5901 99.1901 20.7301C99.0101 20.8001 98.8201 20.8401 98.6201 20.8401C98.1301 20.8401 97.6301 20.6101 97.3401 20.2501C97.1301 19.9801 97.0101 19.6201 97.0101 19.2601C97.0101 18.9301 97.1101 18.6001 97.2901 18.3501C97.4501 18.1201 97.4001 17.8101 97.1701 17.6501C96.9401 17.4901 96.6301 17.5401 96.4701 17.7701C96.1601 18.2101 96.0101 18.7401 96.0101 19.2601C96.0101 19.8301 96.1901 20.4101 96.5601 20.8701C97.0701 21.5001 97.8401 21.8401 98.6201 21.8401C98.9401 21.8401 99.2601 21.7801 99.5601 21.6601C100.13 21.4301 100.55 21.0101 100.8 20.5301C101.05 20.0501 101.16 19.5001 101.16 18.9701C101.16 18.1701 100.94 17.3801 100.54 16.7601C100.06 16.0101 99.3401 15.4901 98.6001 15.1201C97.4901 14.5701 96.1101 14.1401 94.8301 14.1101C94.7101 14.1101 94.6001 14.1101 94.4901 14.1101C91.1801 14.1101 88.5101 15.1101 86.0401 16.4201C83.5601 17.7301 81.2501 19.3401 78.5901 20.6301C76.4201 21.6801 74.1501 22.5601 71.8201 22.6701C71.6701 22.6701 71.5201 22.6801 71.3701 22.6801C69.1901 22.6801 66.9801 21.9201 65.6201 20.3301C64.8301 19.4201 64.3901 18.1601 64.3901 16.9601C64.3901 15.9601 64.6901 15.0001 65.3201 14.2701C65.9601 13.5201 67.0001 13.1101 68.0301 13.1101C69.1701 13.1101 70.2201 13.5901 70.7401 14.5101C70.8801 14.7501 71.1801 14.8401 71.4201 14.7001C71.6601 14.5601 71.7501 14.2601 71.6101 14.0201H71.5901Z" fill="#F4115D"/>
<path d="M70.65 15.69C71.2631 15.69 71.76 15.193 71.76 14.58C71.76 13.9669 71.2631 13.47 70.65 13.47C70.037 13.47 69.54 13.9669 69.54 14.58C69.54 15.193 70.037 15.69 70.65 15.69Z" fill="#F4115D"/>
<path d="M84.3701 20.6701C84.3701 20.0501 84.8701 19.5601 85.4801 19.5601C86.0901 19.5601 86.5901 20.0601 86.5901 20.6701C86.5901 21.2801 86.0901 21.7801 85.4801 21.7801C84.8701 21.7801 84.3701 21.2801 84.3701 20.6701Z" fill="#F4115D"/>
<path d="M96.2002 18.4999C96.2002 17.8799 96.7002 17.3899 97.3102 17.3899C97.9202 17.3899 98.4202 17.8899 98.4202 18.4999C98.4202 19.1099 97.9202 19.6099 97.3102 19.6099C96.7002 19.6099 96.2002 19.1099 96.2002 18.4999Z" fill="#F4115D"/>
<path d="M82.7498 19.49C83.7698 18.93 84.8798 18.49 85.9398 18.5C86.0898 18.5 86.2298 18.5 86.3798 18.53C86.9598 18.6 87.5498 18.86 87.9898 19.24C88.4298 19.62 88.7198 20.11 88.7598 20.64V20.78C88.7598 20.92 88.7398 21.04 88.6998 21.15C88.6098 21.41 88.3498 21.67 88.0298 21.85C87.6898 22.04 87.2998 22.15 86.9298 22.15C86.7698 22.15 86.6198 22.13 86.4698 22.09C85.9698 21.97 85.5298 21.59 85.3698 21.14L85.3198 20.88C85.3198 20.78 85.3398 20.74 85.3598 20.72C85.5498 20.52 85.5298 20.2 85.3298 20.01C85.1298 19.82 84.8098 19.84 84.6198 20.04C84.3898 20.29 84.3198 20.6 84.3198 20.87C84.3198 21.09 84.3598 21.29 84.4298 21.47C84.7298 22.27 85.4298 22.84 86.2198 23.04C86.4498 23.1 86.6898 23.13 86.9298 23.13C87.4898 23.13 88.0398 22.98 88.5198 22.71C88.9798 22.45 89.4398 22.05 89.6498 21.46C89.7298 21.23 89.7598 20.99 89.7598 20.77V20.55C89.6898 19.71 89.2398 18.99 88.6498 18.48C88.0498 17.96 87.2898 17.63 86.4998 17.54C86.3098 17.52 86.1298 17.51 85.9398 17.51C84.6098 17.51 83.3698 18.03 82.2698 18.63C82.0298 18.76 81.9398 19.07 82.0698 19.31C82.1998 19.55 82.5098 19.64 82.7498 19.51V19.49Z" fill="#F4115D"/>
<path d="M85.5302 15.46C85.0202 16.38 83.9602 16.86 82.8202 16.86C81.7902 16.86 80.7502 16.45 80.1102 15.7C79.4802 14.96 79.1802 14.01 79.1802 13.01C79.1802 11.8 79.6302 10.55 80.4102 9.64004C81.7702 8.05004 83.9802 7.29004 86.1602 7.29004C86.3102 7.29004 86.4602 7.29004 86.6102 7.30004C88.9402 7.41004 91.2101 8.29004 93.3801 9.34004C96.0501 10.63 98.3502 12.24 100.83 13.55C103.31 14.86 105.97 15.86 109.28 15.86C109.39 15.86 109.51 15.86 109.62 15.86C110.9 15.83 112.28 15.4 113.39 14.85C114.13 14.48 114.85 13.96 115.33 13.21C115.73 12.59 115.95 11.8 115.95 11C115.95 10.46 115.85 9.92004 115.59 9.44004C115.34 8.96004 114.92 8.54004 114.35 8.31004C114.05 8.19004 113.72 8.13004 113.41 8.13004C112.63 8.13004 111.85 8.47004 111.35 9.10004C110.98 9.57004 110.8 10.14 110.8 10.71C110.8 11.23 110.95 11.76 111.26 12.2C111.42 12.43 111.73 12.48 111.96 12.32C112.19 12.16 112.24 11.85 112.08 11.62C111.9 11.37 111.8 11.04 111.8 10.71C111.8 10.35 111.92 9.99004 112.13 9.72004C112.42 9.35004 112.92 9.13004 113.41 9.13004C113.61 9.13004 113.8 9.17004 113.98 9.24004C114.32 9.38004 114.55 9.61004 114.71 9.91004C114.87 10.21 114.95 10.6 114.95 11.01C114.95 11.61 114.77 12.25 114.49 12.67C114.14 13.21 113.58 13.65 112.94 13.96C111.95 14.46 110.66 14.84 109.59 14.86C109.48 14.86 109.37 14.86 109.27 14.86C106.16 14.86 103.69 13.94 101.28 12.67C98.8802 11.4 96.5502 9.78004 93.8002 8.44004C91.5802 7.37004 89.1902 6.42004 86.6402 6.30004C86.4702 6.30004 86.3102 6.29004 86.1402 6.29004C83.7402 6.29004 81.2401 7.12004 79.6301 8.99004C78.6801 10.1 78.1602 11.57 78.1602 13.01C78.1602 14.21 78.5202 15.41 79.3302 16.35C80.2002 17.37 81.5202 17.86 82.8002 17.86C84.2102 17.86 85.6401 17.26 86.3801 15.95C86.5201 15.71 86.4302 15.4 86.1902 15.27C85.9502 15.13 85.6402 15.22 85.5102 15.46H85.5302Z" fill="#F4115D"/>
<path d="M85.4601 16.5C86.0731 16.5 86.5701 16.0031 86.5701 15.39C86.5701 14.777 86.0731 14.28 85.4601 14.28C84.8471 14.28 84.3501 14.777 84.3501 15.39C84.3501 16.0031 84.8471 16.5 85.4601 16.5Z" fill="#F4115D"/>
<path d="M100.29 10.42C100.903 10.42 101.4 9.92299 101.4 9.30995C101.4 8.69692 100.903 8.19995 100.29 8.19995C99.6771 8.19995 99.1802 8.69692 99.1802 9.30995C99.1802 9.92299 99.6771 10.42 100.29 10.42Z" fill="#F4115D"/>
<path d="M111.01 11.4701C111.01 12.0901 111.51 12.5801 112.12 12.5801C112.73 12.5801 113.23 12.0801 113.23 11.4701C113.23 10.8601 112.73 10.3601 112.12 10.3601C111.51 10.3601 111.01 10.8601 111.01 11.4701Z" fill="#F4115D"/>
<path d="M97.0799 11.3601C98.1699 11.9601 99.4199 12.4701 100.75 12.4801C100.93 12.4801 101.12 12.4701 101.31 12.4501C102.1 12.3601 102.86 12.0201 103.46 11.5101C104.06 11.0001 104.5 10.2801 104.57 9.44011V9.22011C104.57 8.99011 104.54 8.76011 104.46 8.53011C104.25 7.94011 103.79 7.54011 103.33 7.28011C102.85 7.01011 102.3 6.86011 101.74 6.86011C101.5 6.86011 101.27 6.89011 101.03 6.95011C100.24 7.15011 99.5399 7.72011 99.2399 8.52011C99.1699 8.70011 99.1299 8.91011 99.1299 9.12011C99.1299 9.39011 99.1999 9.70011 99.4299 9.95011C99.6199 10.1501 99.9299 10.1701 100.14 9.98011C100.34 9.79011 100.36 9.48011 100.17 9.27011C100.15 9.25011 100.13 9.21011 100.13 9.11011L100.18 8.85011C100.34 8.40011 100.78 8.03011 101.28 7.90011C101.43 7.86011 101.58 7.84011 101.74 7.84011C102.11 7.84011 102.5 7.95011 102.84 8.14011C103.17 8.32011 103.43 8.58011 103.51 8.84011C103.55 8.95011 103.57 9.07011 103.57 9.21011V9.35011C103.53 9.88011 103.24 10.3601 102.8 10.7501C102.36 11.1301 101.77 11.3901 101.19 11.4601C101.04 11.4801 100.9 11.4901 100.75 11.4901C99.6899 11.4901 98.5899 11.0601 97.5599 10.5001C97.3199 10.3701 97.0099 10.4601 96.8799 10.7001C96.7499 10.9401 96.8399 11.2501 97.0799 11.3801V11.3601Z" fill="#F4115D"/>
<path d="M60.65 0.7L60.3 0.35C60.3 0.35 59.23 1.42 58.16 3C57.1 4.58 56.01 6.7 56 8.9C56 10 56.29 11.13 57 12.16C57.71 13.19 58.83 14.12 60.44 14.89L60.65 14.99L60.86 14.89C62.48 14.12 63.59 13.19 64.3 12.16C65.01 11.13 65.3 10 65.3 8.9C65.3 6.69 64.2 4.58 63.14 3C62.07 1.42 61.02 0.37 61 0.35L60.65 0L60.3 0.35L60.65 0.7L60.3 1.05L60.34 1.09C60.55 1.31 61.56 2.37 62.5 3.83C63.45 5.29 64.31 7.14 64.3 8.89C64.3 9.82 64.07 10.72 63.48 11.58C62.89 12.44 61.93 13.26 60.43 13.97L60.64 14.42L60.85 13.97C59.35 13.26 58.39 12.44 57.8 11.58C57.21 10.72 56.98 9.82 56.98 8.89C56.98 7.03 57.96 5.04 58.97 3.55C59.47 2.8 59.98 2.17 60.36 1.73C60.55 1.51 60.71 1.34 60.82 1.22L60.95 1.09L60.99 1.05L60.64 0.7H60.65Z" fill="#F4115D"/>
</g>
<defs>
<clipPath id="clip0_134_933">
<rect width="121.31" height="25.77" fill="white"/>
</clipPath>
</defs>
</svg>
