<svg width="168" height="31" viewBox="0 0 168 31" fill="none" xmlns="http://www.w3.org/2000/svg">
<path d="M158.382 6.36V21.963C159.117 20.955 160.377 19.695 161.574 18.834L162.435 20.367C160.587 21.795 158.718 23.895 157.5 25.785C156.282 23.895 154.413 21.795 152.565 20.367L153.426 18.834C154.623 19.695 155.883 20.955 156.618 21.963V6.36H158.382Z" fill="white"/>
<path d="M11.382 6.36V21.963C12.117 20.955 13.377 19.695 14.574 18.834L15.435 20.367C13.587 21.795 11.718 23.895 10.5 25.785C9.282 23.895 7.413 21.795 5.565 20.367L6.426 18.834C7.623 19.695 8.883 20.955 9.618 21.963V6.36H11.382Z" fill="white"/>
</svg>
