<svg width="253" height="9" viewBox="0 0 253 9" fill="none" xmlns="http://www.w3.org/2000/svg">
<path d="M252.609 4.63552C252.609 6.79936 250.261 8.5625 247.378 8.5625C244.496 8.5625 242.147 6.79936 242.147 4.63551C242.147 2.47167 244.496 0.70853 247.378 0.708531C250.261 0.708531 252.609 2.47167 252.609 4.63552Z" fill="#F4115D"/>
<path d="M225.742 4.63552C225.742 6.79936 223.394 8.5625 220.511 8.5625C217.629 8.5625 215.28 6.79936 215.28 4.63551C215.28 2.47167 217.629 0.70853 220.511 0.708531C223.394 0.708531 225.742 2.47167 225.742 4.63552Z" fill="#F4115D"/>
<path d="M198.911 4.63552C198.911 6.79936 196.563 8.5625 193.68 8.5625C190.798 8.5625 188.449 6.79936 188.449 4.63551C188.449 2.47167 190.798 0.70853 193.68 0.708531C196.563 0.708531 198.911 2.47167 198.911 4.63552Z" fill="#F4115D"/>
<path d="M166.849 0.70853C163.96 0.70853 161.618 2.4667 161.618 4.63551C161.618 6.80433 163.96 8.5625 166.849 8.5625C169.738 8.5625 172.08 6.80433 172.08 4.63552C172.08 2.4667 169.738 0.70853 166.849 0.70853Z" fill="#F4115D"/>
<path d="M145.213 4.63552C145.213 6.79936 142.864 8.5625 139.982 8.5625C137.099 8.5625 134.751 6.79936 134.751 4.63551C134.751 2.47167 137.099 0.70853 139.982 0.708531C142.864 0.708531 145.213 2.47167 145.213 4.63552Z" fill="#F4115D"/>
<path d="M118.382 4.63552C118.382 6.79936 116.033 8.5625 113.151 8.5625C110.268 8.5625 107.92 6.79936 107.92 4.63551C107.92 2.47167 110.268 0.70853 113.151 0.70853C116.033 0.70853 118.382 2.47167 118.382 4.63552Z" fill="#F4115D"/>
<path d="M91.5156 4.63552C91.5156 6.79936 89.167 8.5625 86.2846 8.5625C83.4022 8.5625 81.0536 6.79936 81.0536 4.63551C81.0536 2.47167 83.4022 0.70853 86.2846 0.708531C89.167 0.708531 91.5156 2.47167 91.5156 4.63552Z" fill="#F4115D"/>
<path d="M64.6836 4.63552C64.6836 6.79936 62.335 8.5625 59.4526 8.5625C56.5702 8.5625 54.2216 6.79936 54.2216 4.63551C54.2216 2.47167 56.5702 0.70853 59.4526 0.708531C62.335 0.708531 64.6836 2.47167 64.6836 4.63552Z" fill="#F4115D"/>
<path d="M37.8174 4.63552C37.8174 6.79936 35.4688 8.5625 32.5864 8.5625C29.704 8.5625 27.3553 6.79936 27.3553 4.63551C27.3553 2.47167 29.704 0.70853 32.5864 0.70853C35.4688 0.70853 37.8174 2.47167 37.8174 4.63552Z" fill="#F4115D"/>
<path d="M5.7553 0.70853C2.86628 0.70853 0.524269 2.4667 0.524269 4.63551C0.524268 6.80433 2.86628 8.5625 5.7553 8.5625C8.64431 8.5625 10.9863 6.80433 10.9863 4.63552C10.9863 2.4667 8.64431 0.70853 5.7553 0.70853Z" fill="#F4115D"/>
</svg>
