<svg width="113" height="162" viewBox="0 0 113 162" fill="none" xmlns="http://www.w3.org/2000/svg">
<g clip-path="url(#clip0_112_1069)">
<path d="M108.474 66.5993C109.11 66.8327 109.631 66.4084 110.203 66.2573C110.647 66.1406 111.083 65.597 111.538 66.008C111.974 66.4005 111.117 66.7134 111.298 67.1429C111.851 67.5512 112.564 66.3687 112.928 67.2304C113.247 67.9835 112.455 68.4819 112.053 69.0361C111.729 69.4842 111.221 69.6751 110.729 69.882C109.128 70.5555 107.695 71.4941 106.318 72.5494C105.342 73.2972 105.209 73.923 106.235 74.7211C106.717 75.0949 107.126 75.5775 107.517 76.0522C107.855 76.4632 107.945 76.9669 107.528 77.3726C107.084 77.8048 106.703 77.4177 106.379 77.1367C105.284 76.1847 104.036 75.5961 102.593 75.3548C101.712 75.209 100.896 74.8112 100.226 74.212C98.971 73.0904 97.4581 72.6873 95.8387 72.5574C91.9592 72.2472 88.117 71.571 84.2162 71.4119C82.7723 71.3536 81.3205 71.0221 79.9166 70.643C77.8213 70.0782 75.7073 70.0092 73.5961 70.2771C71.9502 70.4865 70.5063 70.0252 69.1662 69.2509C67.9271 68.5376 66.6534 67.9596 65.2867 67.5672C64.6857 67.3948 64.1061 67.1853 63.6434 66.7425C62.8111 65.9444 62.4788 66.2785 62.3538 67.2728C62.2474 68.1134 61.9337 68.9115 61.4311 69.5903C60.6095 70.7066 60.2798 71.9794 60.208 73.3104C60.0723 75.8268 60.2266 78.3378 60.6042 80.8329C60.7584 81.8591 61.1945 82.7739 62.3272 82.9197C63.9572 83.1292 64.8107 84.1925 65.4303 85.505C65.8717 86.4383 66.4168 86.5868 67.3182 86.1705C69.8868 84.9853 72.4846 83.8584 75.0612 82.6864C75.9121 82.2992 76.7949 82.0792 77.5952 82.6201C79.3555 83.8027 81.0972 85.0251 82.1235 86.9819C82.6713 88.0266 82.7989 89.0342 82.2272 90.132C81.5545 91.4233 80.9562 92.7544 80.35 94.0775C80.0096 94.8226 79.5682 95.1434 78.6854 94.8889C75.4441 93.9635 72.0113 94.1014 68.762 93.1813C68.4748 93.0991 68.052 93.0301 68.0653 93.4888C68.0813 94.0642 68.2089 94.7006 68.9348 94.7881C69.6129 94.8703 70.1899 95.0665 70.7456 95.4934C73.043 97.262 74.2848 99.895 76.1514 102.016C77.1219 103.117 78.4993 103.681 79.4193 104.814C79.6427 105.089 80.0788 105.005 80.4244 104.861C82.1076 104.159 83.7934 104.222 85.4659 104.883C86.4418 105.267 86.9869 105.01 87.0746 103.925C87.0932 103.708 87.1517 103.488 87.2342 103.286C87.4416 102.777 87.4442 102.037 88.1462 101.969C88.7551 101.908 88.9811 102.547 89.2789 102.963C91.111 105.516 91.7146 105.728 94.698 104.774C95.3229 104.572 95.9717 104.546 96.5168 104.816C98.5536 105.821 100.737 105.744 102.893 105.718C105.188 105.691 107.102 106.606 108.932 107.813C109.607 108.258 110.251 108.796 109.953 109.756C109.652 110.721 108.897 110.981 107.972 110.933C106.906 110.88 105.853 110.941 104.805 111.169C104.467 111.244 104.052 111.313 103.755 111.185C100.851 109.95 97.8808 111.321 94.9612 110.92C94.4906 110.857 94.1157 111.132 93.7248 111.329C90.8797 112.766 87.9388 113.98 84.9288 115.033C81.9853 116.062 79.2172 115.945 76.3561 114.508C71.0036 111.814 65.9435 108.68 61.0961 105.182C60.7132 104.906 60.3728 104.517 59.7001 104.501C59.7905 105.699 60.4685 106.646 60.9658 107.627C61.4205 108.523 61.253 109.024 60.317 109.321C58.6126 109.862 57.65 110.968 57.2937 112.771C56.9959 114.277 56.3657 115.717 55.459 116.998C55.1798 117.393 55.1 117.82 55.2516 118.254C56.3258 121.33 56.4322 124.576 56.9002 127.755C57.0384 128.699 57.4027 129.16 58.3493 129.508C60.7876 130.404 62.7872 132.061 64.7389 133.713C65.8849 134.684 67.1187 135.235 68.5759 135.62C72.3596 136.619 72.8702 136.935 71.0514 140.899C69.8362 143.55 70.0516 143.977 73.0138 144.63C74.4975 144.956 76.1168 144.754 77.4357 145.828C78.1749 146.427 78.4568 146.939 77.9356 147.814C77.5288 148.493 77.2416 149.241 76.8959 149.957C76.6407 150.487 76.4226 151.009 75.6249 150.667C75.0639 150.426 74.8405 150.922 74.681 151.335C74.33 152.24 73.9045 153.13 73.6971 154.066C73.0749 156.882 71.4742 159.128 69.6608 161.26C69.3337 161.645 68.9535 162.186 68.3445 161.931C67.7489 161.684 67.6585 161.064 67.6133 160.473C67.5229 159.33 67.951 158.301 68.3552 157.278C68.6743 156.466 68.6743 155.684 68.5785 154.825C68.3552 152.831 67.5415 150.954 67.4804 148.933C67.4617 148.31 66.9592 147.933 66.5843 147.507C64.4624 145.075 61.7316 143.413 59.0938 141.633C56.823 140.101 54.5257 138.605 52.2416 137.091C50.8828 136.19 49.5373 135.362 47.8941 134.925C45.8094 134.371 44.4773 132.663 43.161 131.035C41.7225 129.258 40.978 127.397 41.2093 124.979C41.8741 118.079 41.9831 111.135 41.7225 104.22C41.6188 101.491 40.9939 98.7098 41.0844 95.9707C41.2386 91.2987 39.0635 87.5679 36.8353 83.8053C35.5722 81.6735 34.5512 79.5708 35.1707 76.9457C35.4871 75.6067 34.7639 75.1745 33.4503 75.6571C33.4078 75.673 33.3679 75.6942 33.3254 75.7048C32.5436 75.8957 31.7406 76.9086 31.0652 76.2961C30.4829 75.7684 31.004 74.6866 31.1849 73.907C32.2857 69.2191 32.3841 64.3667 33.5886 59.7C33.7747 58.9814 33.5886 58.4829 33.0568 57.9446C30.2675 55.1101 27.4809 52.2703 24.782 49.3509C22.7717 47.1766 21.7799 44.3739 20.4664 41.786C18.8072 38.5193 17.233 35.2075 16.8342 31.482C16.7092 30.3127 16.1322 29.3183 15.3292 28.4486C14.3746 27.4145 14.2496 27.4013 13.529 28.5812C12.1251 30.8801 10.7424 33.1923 9.3464 35.4938C6.66611 39.9113 3.98317 44.3235 1.30023 48.7384C1.16196 48.9638 1.02901 49.1971 0.861492 49.3986C0.688656 49.6055 0.465299 49.7937 0.183444 49.5896C-0.0771388 49.4013 -0.0345947 49.1308 0.0903789 48.8789C0.225988 48.6032 0.377552 48.3301 0.531775 48.0649C4.56815 41.1178 8.60453 34.1707 12.6436 27.2236C13.0371 26.5448 13.6407 25.8872 12.6595 25.1766C12.3803 24.9751 12.4628 24.6251 12.5851 24.3175C13.0451 23.172 13.4439 22 13.9678 20.8864C14.465 19.831 15.0792 18.85 16.5337 18.9958C17.14 19.0568 17.3181 18.4841 17.5361 18.0731C20.4983 12.5499 23.4498 7.02134 26.3933 1.48752C26.6619 0.981075 26.856 0.432202 27.4064 0.137878C27.8558 -0.103414 28.2599 -0.0450799 28.6056 0.328791C28.9327 0.681449 28.8609 1.03941 28.6136 1.41063C24.8006 7.11414 22.0113 13.3798 18.6609 19.3379C18.4003 19.8019 18.068 20.303 18.278 20.8307C19.2858 23.3815 19.1874 26.2372 20.4983 28.7032C20.7908 29.2547 21.0008 29.8221 21.74 29.9441C22.1602 30.0131 22.4447 30.3418 22.5058 30.7687C22.8223 32.9748 24.0188 34.8124 25.101 36.6685C26.8773 39.7151 28.6163 42.8148 30.7302 45.6228C32.3522 47.7759 34.3411 49.7142 36.5135 51.3847C37.2394 51.9441 38.2392 52.0396 38.9678 52.6627C39.3533 52.9915 39.7096 52.6097 40.0447 52.4214C40.9168 51.9309 41.8023 51.854 42.6877 52.3604C43.9986 53.1082 45.4531 52.5911 45.6898 51.085C45.9158 49.6452 46.1391 48.3062 45.0543 46.7656C44.1661 45.5008 43.6423 43.5944 43.6343 41.8602C43.629 40.5557 44.7006 39.8371 45.8839 39.5772C47.0352 39.3253 47.3942 38.6412 47.3889 37.6018C47.3836 36.5863 47.4846 35.5575 47.3437 34.5631C47.1416 33.1472 47.8196 32.4021 49.0056 31.9301C51.2418 31.0339 53.5392 31.4078 55.8179 31.6676C56.9241 31.7949 57.9744 32.1502 58.9104 32.7892C60.1707 33.6483 60.3781 34.2662 59.8171 35.7007C59.3491 36.8992 59.0327 38.1295 58.8811 39.4102C58.7774 40.2905 59.0486 40.8606 59.95 41.0913C60.2904 41.1788 60.6228 41.322 60.9312 41.489C62.2474 42.197 62.4229 43.125 61.4604 44.2705C60.7398 45.127 59.7639 45.6758 58.8944 46.352C57.9877 47.0573 57.2458 47.7918 57.1953 49.1494C57.1528 50.3081 56.2381 51.1937 55.2702 51.8752C54.8873 52.1457 54.2784 52.2676 54.4565 52.9067C54.6214 53.4953 54.8421 54.1688 55.5813 54.2324C56.8417 54.3412 57.9903 54.7468 59.1018 55.3143C59.5645 55.5503 60.0511 55.3753 60.5244 55.2427C62.8962 54.5824 64.1141 55.0889 65.3957 57.2181C66.3077 58.7348 67.4538 59.9572 69.3177 60.2992C69.6873 60.3682 70.0676 60.6041 70.3521 60.8614C71.7188 62.089 73.2956 62.3409 75.0506 62.0413C76.3854 61.8133 77.7016 61.8742 78.8849 62.6724C79.0285 62.7705 79.2172 62.8924 79.3688 62.8739C82.0225 62.5451 84.0035 64.4966 86.4577 64.9368C88.8801 65.3717 91.2333 66.1963 93.6078 66.8777C95.4159 67.3975 97.2586 67.6732 98.971 68.6782C100.285 69.4498 101.917 68.885 103.257 68.071C104.653 67.2225 105.978 66.252 107.498 65.6183C107.966 65.422 108.522 64.8467 108.932 65.247C109.437 65.7429 108.352 66.008 108.466 66.5993H108.474Z" fill="#A80031"/>
</g>
<defs>
<clipPath id="clip0_112_1069">
<rect width="113" height="162" fill="white"/>
</clipPath>
</defs>
</svg>
