<svg width="179" height="124" viewBox="0 0 179 124" fill="none" xmlns="http://www.w3.org/2000/svg">
<g clip-path="url(#clip0_142_1021)">
<path d="M84.5498 115.284C83.7781 114.018 82.9408 112.734 81.8854 111.719C80.64 110.52 80.1709 109.106 79.8379 107.505C79.4837 105.8 79.2679 103.967 77.8912 102.713C76.6715 101.602 76.1931 100.135 75.6231 98.6901C75.3745 98.0563 75.1306 97.4224 74.8843 96.7862C74.76 96.3037 74.6381 95.8212 74.5138 95.3388C74.4223 95.0266 74.3332 94.7144 74.2417 94.3998C74.0517 93.7234 73.8594 93.0446 73.6694 92.3682C73.3223 91.2732 72.8251 90.1994 72.6562 89.076C72.2246 86.2096 70.9675 83.9225 68.6925 82.1156C68.0311 81.5905 67.6534 80.6374 67.2805 79.8191C66.91 79.0031 66.6566 78.121 66.4432 77.2459C65.5121 73.4074 63.1854 69.8834 64.1236 65.6168C64.6115 63.3889 64.717 61.0758 64.982 58.8006C65.2682 56.3622 65.5426 53.9214 65.8146 51.4807C65.9952 49.8677 66.1477 48.2523 66.3377 46.6417C66.6144 44.2979 66.9381 41.9589 67.2008 39.6127C67.4611 37.2996 67.637 34.9771 67.9443 32.6735C67.9912 32.3211 68.4931 31.8765 68.8707 31.7559C69.8886 31.4342 70.9605 31.29 72.0018 31.0322C74.2159 30.4835 76.179 29.4972 77.591 27.6146C78.8411 25.9496 79.1248 24.1876 77.985 22.35C77.286 21.2218 76.5261 20.1315 75.8694 19.1358C76.5449 18.2182 77.218 17.2816 77.9193 16.3687C78.1046 16.1274 78.3532 15.8436 78.6229 15.7703C80.1944 15.3493 80.3937 14.2637 80.3703 12.8092C80.3515 11.6385 79.995 11.1537 78.9138 11.3878C76.5261 11.9057 75.201 10.9573 74.7202 8.58044C74.6568 8.26352 74.1948 7.86855 73.8711 7.81888C73.6366 7.78341 73.1417 8.21858 73.0784 8.51185C72.546 11.0236 70.9441 13.2988 71.4038 16.0304C71.5398 16.8464 71.1551 17.3785 70.5336 17.8114C68.6714 19.1074 66.8466 20.4673 64.9398 21.6948C63.0377 22.9176 61.1309 23.6342 58.7315 22.5936C56.2735 21.5269 53.5857 21.0089 51.0221 20.1764C50.5671 20.0298 49.8776 19.5095 49.894 19.1926C49.9597 17.8965 50.0558 16.5248 50.5601 15.3635C50.797 14.8148 51.9556 14.609 52.7343 14.3749C53.5224 14.1384 54.3057 13.812 53.9914 12.8991C53.3676 11.0803 55.007 9.1315 53.5927 7.40263C53.5552 7.35533 53.574 7.24653 53.5904 7.17085C54.0125 4.92402 52.8609 3.15494 51.8125 1.37403C51.3083 0.524967 50.5249 0.00701434 49.4882 0.00701434C47.8887 0.00701434 46.2844 -0.0237317 44.6872 0.0353953C41.7554 0.144189 39.3185 2.63699 39.5648 5.56259C39.7126 7.31276 40.1418 9.13623 40.8876 10.7161C41.739 12.5159 42.0979 14.3418 41.7812 16.1889C41.5654 17.4542 41.019 19.1145 40.0714 19.7082C38.0684 20.9616 35.7066 21.6333 33.3987 22.5817C33.3987 22.0496 33.3964 21.6593 33.3987 21.2667C33.4198 18.904 33.5418 18.755 35.8403 18.2134C36.0678 18.159 36.2906 18.0857 36.5111 18.0077C37.4563 17.6742 37.5525 17.1349 37.2358 16.1865C36.9286 15.2618 36.6589 14.1928 36.8348 13.2751C37.0177 12.3102 36.6847 12.1186 35.9716 11.901C35.3994 11.726 34.7051 11.6125 34.8201 10.7137C34.9631 9.58323 34.419 8.746 33.6309 8.03174C32.6717 7.16375 31.7053 6.30759 30.7343 5.4538C30.6241 5.35683 30.467 5.23385 30.345 5.24804C28.6258 5.42542 26.726 5.22202 25.2367 5.91736C23.1188 6.9036 21.2026 8.42908 19.3873 9.95219C17.647 11.4138 17.5789 13.883 19.2841 14.9354C20.7077 15.8129 21.0361 17.1278 21.5474 18.4334C22.1689 20.0227 23.2103 21.0184 24.9388 21.1911C25.8301 21.4796 25.2344 22.2412 25.4267 22.752C24.9834 24.2444 23.928 24.6843 22.4668 24.6606C21.0032 24.637 19.5374 24.7765 18.0738 24.8688C15.6838 25.0201 13.2915 25.1549 10.9039 25.3654C8.88685 25.5428 6.87683 25.7841 4.87151 26.0608C3.67769 26.224 3.40094 27.1747 3.32823 28.2059C3.25552 29.2158 3.76682 29.9206 4.68622 30.1571C6.64933 30.6609 8.62182 31.2119 10.6225 31.4366C11.8514 31.5738 12.4753 31.8197 12.9186 33.1063C13.376 34.4355 13.3947 35.5424 12.8436 36.7935C12.3909 37.8223 12.1094 38.9292 11.7506 40.0006C12.2126 40.4381 12.6723 40.8756 13.1274 41.3085C12.6723 40.8756 12.2103 40.4381 11.7506 40.0006C11.5231 40.6273 11.2956 41.2541 11.0681 41.8808C10.8171 42.5951 10.5662 43.3069 10.3152 44.0212C10.1135 44.5794 9.9118 45.1352 9.71009 45.6933C8.61478 48.9217 7.52651 52.1524 6.42417 55.3783C5.19752 58.9685 5.04272 62.5705 6.28814 66.1868C6.55551 66.9672 6.37961 67.5822 5.90583 68.2586C4.26405 70.6047 2.60115 72.9438 1.11885 75.3917C-0.633169 78.2865 -0.483063 78.8447 2.61522 80.0083C4.93718 80.881 6.39603 82.3214 7.04336 84.6935C7.32246 85.7152 7.83376 86.692 7.98856 87.7256C8.16446 88.8892 8.03078 90.0977 8.08707 91.285C8.10348 91.6421 8.19261 92.1223 8.43184 92.3186C9.25508 92.9973 10.1604 93.5768 11.0939 94.2366C10.6483 95.4547 10.1604 96.7791 9.6796 98.1059C9.24804 99.2932 9.27853 100.48 10.0619 101.474C11.3401 103.096 11.2698 104.811 10.7726 106.67C9.91883 109.875 9.13077 113.098 8.36382 116.324C8.23248 116.88 8.24421 117.511 8.34975 118.079C8.61713 119.515 9.22694 120.026 10.6787 119.95C12.4871 119.858 14.2883 119.59 16.0966 119.515C17.2928 119.465 18.5382 119.446 19.6922 119.716C23.7708 120.671 27.8729 121.234 32.0642 120.905C33.2862 120.808 34.5058 120.648 35.723 120.477C37.8902 120.172 40.048 119.815 42.2151 119.519C44.3917 119.224 46.5964 119.079 48.7471 118.658C49.6806 118.476 50.7641 117.966 51.3294 117.247C52.1784 116.166 53.2057 115.645 54.4089 115.6C56.3861 115.525 58.1592 115.026 59.8854 113.498C60.1434 114.671 60.3475 115.596 60.5633 116.57H61.4217C61.5343 115.91 61.6351 115.331 61.7782 114.498C62.8571 115.371 63.6358 116.166 64.5622 116.71C65.7771 117.424 67.0694 118.287 68.3993 118.441C69.6095 118.58 70.9323 117.904 72.173 117.488C72.5061 117.377 72.7172 116.899 72.9846 116.589C72.6656 116.329 72.3865 115.981 72.0229 115.825C68.7839 114.427 66.5394 111.904 65.43 108.713C64.4262 105.826 64.1987 102.663 63.6287 99.6219C63.7038 98.5127 63.7788 97.4059 63.8539 96.2966C63.8844 95.6344 63.9149 94.9698 63.9618 93.9836C66.8537 99.849 69.5931 105.405 72.3255 110.944C73.3364 110.726 74.2089 110.537 75.0157 110.362C75.1541 111.339 75.0087 112.471 75.4754 113.212C76.7888 115.291 78.3438 117.216 79.8379 119.174C79.9809 119.361 80.4242 119.5 80.6376 119.418C81.7212 119.006 82.8306 118.606 83.8274 118.025C85.1127 117.273 85.3167 116.544 84.5474 115.284H84.5498ZM26.0271 49.6903C24.2118 52.1855 23.7028 55.1016 23.548 58.162C23.3744 61.5961 23.3533 65.0468 21.5075 68.2302C19.9103 70.9831 18.7516 73.9963 17.3983 76.8959C17.3303 64.9711 16.7158 53.0724 18.3013 41.1382C18.4632 41.2446 18.632 41.3108 18.7446 41.4314C20.051 42.8292 20.8836 42.9711 22.5113 42.0558C24.1813 41.1169 25.87 41.9825 26.1631 43.9148C26.2921 44.7567 26.325 45.6531 26.6463 46.417C27.1951 47.7155 26.8058 48.6213 26.0271 49.6927V49.6903ZM58.2671 110.497C58.2718 110.497 58.2742 110.494 58.2788 110.492C58.2742 110.492 58.2718 110.494 58.2671 110.497ZM58.2742 110.487C58.5673 110.165 58.891 109.86 59.1748 109.532C58.891 109.86 58.5673 110.163 58.2742 110.487Z" fill="#A80031"/>
</g>
<g clip-path="url(#clip1_142_1021)">
<path d="M131.925 5.05992C131.453 5.14933 130.981 5.23874 130.509 5.32815C129.941 5.50697 129.376 5.68338 128.808 5.8622C128.579 5.92502 128.353 5.98785 128.124 6.05068L124.759 7.07769C124.499 6.82879 124.215 6.59923 123.981 6.32616C123.595 5.87911 123.29 5.35232 122.865 4.95118C121.878 4.02324 120.907 3.0494 119.801 2.2882C119.028 1.75899 118.033 1.24428 117.149 1.25877C114.783 1.29985 112.56 2.08038 110.648 3.53028C109.214 4.6177 108.67 6.17634 108.804 7.9718C108.849 8.56142 108.88 9.16796 109.045 9.72859C109.305 10.6179 109.519 11.5845 110.037 12.3142C110.6 13.1093 111.423 13.7666 112.241 14.3127C113.249 14.9869 113.798 15.6055 113.631 17.0312C113.421 18.8291 113.757 20.6874 113.791 22.5215C113.807 23.4229 113.426 24.3991 113.655 25.2159C114.07 26.6851 114.78 28.0746 115.422 29.4713C115.856 30.4138 116.567 31.2571 116.843 32.2358C118.041 36.4719 119.126 40.7395 120.244 44.9973C120.65 46.5439 120.635 48.0784 119.915 49.5331C119.057 51.2705 117.914 52.9017 117.313 54.7189C116.04 58.5659 114.668 62.4831 115.038 66.608C115.415 70.8031 114.139 74.2828 111.895 77.7263C109.524 81.3656 107.206 85.0942 105.992 89.3738C105.305 91.7927 104.473 94.1706 103.736 96.575C103.309 97.962 102.584 99.105 101.43 99.9967C100.199 100.949 99.0094 101.954 97.8242 102.967C95.3153 105.112 95.3487 105.789 98.1819 107.427C99.8632 108.401 101.626 109.225 103.412 110.151C103.269 110.554 103.176 110.992 102.971 111.371C102.379 112.463 102.632 113.246 103.681 113.87C105.427 114.907 107.113 116.045 108.885 117.028C110.039 117.669 111.258 118.304 112.527 118.599C114.303 119.015 116.152 119.114 118.06 119.36C118.081 120.232 118.572 120.977 119.731 121.02C120.836 121.064 121.94 121.03 123.037 121.03C123.189 119.232 123.561 118.978 124.785 119.698C127.306 121.185 129.936 121.98 132.92 121.342C134.103 121.088 135.386 121.301 136.774 121.301C135.932 122.083 135.264 122.702 134.596 123.323C134.67 123.5 134.742 123.676 134.816 123.855C138.517 123.777 142.349 124.814 145.726 122.11C145.753 122.581 145.776 123.007 145.803 123.454H147.866C147.949 123.028 148.023 122.659 148.102 122.257C150.327 122.257 152.487 122.417 154.612 122.214C156.737 122.011 158.862 121.571 160.925 121.006C163.577 120.281 166.1 119.176 168.242 117.369C169.499 116.306 169.792 115.532 169.019 114.095C167.829 111.881 166.427 109.781 165.041 107.681C164.164 106.35 162.912 105.224 162.246 103.803C158.335 95.4416 154.555 87.0177 150.715 78.6228C148.025 72.7363 146.561 66.6008 146.695 60.0666C146.735 58.0295 146.256 55.9827 146.027 53.9384C145.81 51.9834 145.612 50.0236 145.378 47.827C146.043 48.1339 146.394 48.3007 146.747 48.4553C148.397 49.1779 150.026 49.9608 151.71 50.5891C152.487 50.8791 153.51 51.1401 153.892 49.9439C154.274 48.7453 154.627 47.6506 156.234 48.0542C156.337 48.0808 156.501 47.9237 156.616 47.827C158.17 46.5173 158.275 45.4275 157 43.9341C158.833 42.7113 159.666 41.7737 160.827 39.7729C161.409 38.7676 162.039 37.7889 162.695 36.832C163.515 35.6358 166.386 35.3338 167.595 36.1675C168.702 36.9311 169.987 37.1582 171.306 36.8368C171.733 36.7329 172.11 36.2714 172.518 36.2593C175.685 36.165 177.342 34.14 178.444 31.494C179.069 29.9909 179.403 28.2824 178.082 27.0162C176.925 25.9046 175.585 24.6263 174.13 24.2904C172.367 23.8844 170.395 24.346 168.521 24.5248C167.562 24.6166 166.622 25.0588 165.676 25.0612C164.624 25.0612 164.044 25.4696 163.677 26.3952C163.503 26.835 163.355 27.4898 163.026 27.6251C161.18 28.3888 159.387 29.4399 157.257 29.1693C157.155 28.918 157.057 28.6981 156.978 28.4733C156.413 26.893 155.566 25.6799 153.971 24.8583C151.672 23.6742 149.592 22.0914 148.018 19.9431C144.894 15.6804 141.748 11.4346 138.672 7.13811C138.398 6.75388 138.51 6.0386 138.546 5.48522C138.567 5.15175 138.803 4.96084 138.927 4.50654C139.051 4.05224 138.336 3.6801 138.128 3.27655C138.007 3.03973 137.785 2.85608 137.608 2.64826C137.704 2.32203 137.797 1.99581 137.892 1.66958C138.088 0.570073 137.487 0.137521 136.187 0.439583L135.75 0.499995C135.254 0.410585 134.284 0.66915 133.764 0.574906C133.382 0.504828 133.361 -0.125877 133.046 0.00944658C132.731 0.14477 133.161 0.828638 133.213 1.20078C133.082 1.48351 132.951 1.76624 132.819 2.04897C132.032 2.89957 131.727 3.9 131.92 5.05267M143.029 29.2031C139.399 29.4472 137.828 30.9889 137.611 34.6716C136.926 34.9326 136.64 34.7635 136.421 33.966C136.127 32.9052 135.724 31.7984 135.08 30.9309C132.719 27.7508 130.284 24.6239 127.78 21.5573C126.752 20.2983 125.477 19.2447 124.313 18.0993C124.275 17.5266 123.545 16.8597 124.535 16.4247C125.033 16.3256 125.55 16.2845 126.025 16.1178C127.084 15.7408 127.604 14.9289 127.089 13.9792C126.328 12.5776 126.958 12.0436 128.097 11.6014C128.202 11.5603 128.286 11.4636 128.379 11.3911C128.77 11.1495 129.164 10.9054 129.555 10.6638C130.613 10.5236 131.675 10.381 132.867 10.224V8.92873C132.881 8.7934 132.896 8.65566 132.91 8.52034C133.444 8.1917 133.976 7.86547 134.565 7.50541C135.61 8.36327 136.776 9.06647 136.776 10.7943C136.776 11.4443 137.394 12.1837 137.892 12.7299C139.254 14.2233 139.945 16.0767 140.692 17.8843C141.598 20.076 143.132 21.6516 144.842 23.2078C146.294 24.5296 147.412 26.2357 148.653 27.7895C148.808 27.9852 148.815 28.2993 148.915 28.6401C146.897 28.8382 144.968 29.0775 143.031 29.2055L143.029 29.2031Z" fill="#A80031"/>
</g>
<defs>
<clipPath id="clip0_142_1021">
<rect width="85" height="121" fill="white"/>
</clipPath>
<clipPath id="clip1_142_1021">
<rect width="83" height="124" fill="white" transform="translate(96)"/>
</clipPath>
</defs>
</svg>
