<svg width="129" height="126" viewBox="0 0 129 126" fill="none" xmlns="http://www.w3.org/2000/svg">
<g clip-path="url(#clip0_112_1071)">
<path d="M128.899 44.2506H125.687C126.402 45.3563 127.158 46.423 127.795 47.56C128.031 47.9815 127.984 48.5643 128.065 49.0716C127.642 48.8791 127.223 48.6866 126.746 48.4706V50.6899C126.64 50.7445 126.536 50.7992 126.43 50.8512C126.182 50.4375 125.687 49.9978 125.726 49.6128C125.91 47.8332 124.739 46.9642 123.503 45.9183C123.047 47.253 122.055 47.7655 120.827 48.0517C120.491 48.1298 120.094 48.7048 120.037 49.0976C119.483 52.891 118.996 56.6973 118.488 60.4985C118.307 61.8488 118.172 63.2069 117.939 64.5468C116.732 71.4961 115.564 78.4531 114.235 85.3816C113.919 87.0233 113.118 88.5895 112.403 90.1272C111.02 93.1036 109.629 96.0852 108.077 98.9757C106.368 102.16 103.759 104.468 100.464 105.938C99.3791 106.422 98.203 106.7 97.0995 107.148C95.5479 107.777 95.3433 108.282 95.8536 109.848C95.908 110.012 95.9598 110.179 96.0142 110.343C96.768 112.526 96.7032 112.682 94.662 113.79C94.0947 114.1 93.5145 114.394 92.9835 114.761C92.7218 114.943 92.4162 115.25 92.3747 115.536C92.1312 117.185 91.911 118.84 91.7893 120.5C91.7375 121.205 92.0043 121.931 92.0095 122.649C92.0121 123.044 91.7712 123.443 91.6416 123.841C91.4707 123.822 91.2997 123.807 91.1288 123.789C90.9941 123.068 90.906 122.332 90.7013 121.632C90.6003 121.288 90.3283 120.895 90.0278 120.752C89.8647 120.674 89.2689 121.036 89.2223 121.27C88.6679 124.098 86.29 124.351 84.1659 124.832C83.2256 125.045 82.1583 124.975 81.2025 124.777C80.2078 124.572 79.5058 123.906 79.9617 122.428C78.3686 122.724 76.9465 122.985 75.527 123.26C75.4156 123.281 75.2291 123.404 75.2343 123.461C75.3949 124.983 74.0013 124.736 73.3692 124.79C71.7425 124.931 70.0821 124.715 68.2507 124.634C67.4839 125.88 65.9634 124.759 64.6501 125.233C64.4636 123.786 64.1631 122.503 62.2333 123.136C62.3214 121.587 62.3732 120.232 62.4845 118.879C62.6115 117.357 62.8006 115.84 62.9482 114.321C62.9638 114.165 62.9249 113.97 62.8394 113.842C61.9043 112.468 60.9562 111.105 59.832 109.843C60.104 112.034 60.3786 114.227 60.648 116.42C60.6687 116.592 60.6635 116.766 60.6713 116.941C60.7905 119.764 60.5755 119.87 57.7804 119.951C53.1903 120.086 49.082 118.463 44.9815 116.73C43.1449 115.955 41.2928 115.216 39.4433 114.472C38.2854 114.009 36.081 115.562 36.0784 116.829C36.0784 117.175 36.0266 117.531 36.0862 117.867C36.4385 119.79 35.5318 121.046 34.089 122.17C33.4829 122.644 33.1876 123.518 32.7394 124.2C32.5063 124.553 32.2473 124.889 32.0012 125.233C31.9002 125.17 31.7991 125.108 31.6981 125.045C31.8924 124.416 32.0867 123.783 32.325 123.005C32.0219 123.12 31.9183 123.125 31.8742 123.18C29.9263 125.649 27.2945 126.203 24.3492 125.932C22.7976 125.789 21.1605 126.258 19.7384 125.222C19.6037 125.126 19.3317 125.246 19.1348 125.207C18.3785 125.063 17.5573 125.037 16.8864 124.707C15.2364 123.893 14.5836 122.548 15.0732 120.682C15.2545 119.993 15.3141 119.256 15.3244 118.541C15.3555 116.449 14.9955 116.165 12.8144 116.556C12.5087 115.734 12.0658 114.911 11.9259 114.042C11.8223 113.397 12.2652 112.669 12.1927 112.01C12.0735 110.952 12.8144 110.806 13.4568 110.527C17.5159 108.774 21.6138 107.104 25.6289 105.254C27.2012 104.528 28.6985 103.539 30.048 102.441C32.1929 100.698 34.1097 98.6713 36.2701 96.9516C37.5679 95.9187 39.1065 95.1563 40.6089 94.4253C42.6009 93.4548 43.4298 91.9614 43.3392 89.7499C43.2382 87.2835 43.3651 84.8066 43.3236 82.3375C43.277 79.5797 43.1708 76.8218 43.0361 74.0666C43.018 73.6867 42.7382 73.2835 42.4947 72.9556C40.8576 70.7311 39.3733 68.3297 39.7671 65.5016C40.0857 63.2069 40.6944 60.7769 41.8653 58.8256C43.2252 56.5646 44.4971 54.5535 44.7276 51.7436C44.9996 48.4186 44.9944 45.2522 43.5309 42.2498C42.6165 40.3714 41.5026 38.5814 40.3655 36.8252C35.2832 28.9757 27.7737 24.3524 19.2903 21.1315C17.0392 20.2781 14.6199 19.8618 12.2678 19.292C10.1981 18.7899 8.49883 19.4767 7.12334 21.0638C6.82545 21.4072 6.51461 21.7403 6.20895 22.0759C6.06389 21.9744 5.91883 21.8703 5.77377 21.7689C6.42654 20.7282 7.07931 19.6875 7.75021 18.613C6.7322 16.3052 4.62365 15.9618 2.3778 15.8057C1.57738 15.751 0.792502 15.4727 0.00244141 15.2983C0.0153932 15.1578 0.028345 15.0147 0.0412968 14.8742C0.870212 14.8144 1.70172 14.7546 2.53063 14.6947C1.59551 13.9194 0.445393 13.4953 0.751056 11.9369C1.91672 12.3089 3.05907 12.746 4.23509 13.0296C5.70124 13.3861 7.11816 13.9298 8.73196 13.5161C10.3354 13.1051 11.7834 14.0729 13.3065 14.4502C16.5212 15.2437 19.8187 15.6834 23.0644 16.3598C24.0514 16.5654 25.0564 16.9374 25.919 17.4578C28.025 18.7274 30.0817 20.0855 32.0996 21.4931C33.0036 22.1253 33.8688 22.206 34.8791 21.9354C37.4435 21.2485 40.0183 20.5981 42.7719 19.8878C43.7277 16.914 41.6295 14.5074 40.3939 11.9239C39.4329 9.91272 38.9667 7.83132 39.2231 5.70569C39.578 2.76052 43.119 -0.14043 46.1135 0.0052675C48.1469 0.104134 50.17 0.538626 52.1801 0.915879C52.9701 1.06418 53.6229 1.51428 53.452 2.54717C53.4157 2.76832 53.5374 3.05972 53.6721 3.26265C54.7161 4.83411 55.4673 6.4602 55.3015 8.44794C55.2678 8.846 55.9387 9.36375 56.3687 9.72539C57.1199 10.3576 57.8556 10.8363 56.607 11.7782C56.2081 12.08 56.1148 12.8995 56.0423 13.5005C55.9517 14.2576 55.9491 15.0434 56.0423 15.8031C56.1615 16.7631 55.6279 17.0207 54.8715 17.117C53.9079 17.2392 52.9391 17.3433 52.0091 17.45C51.289 20.5825 51.9392 21.938 54.7782 23.2857C55.0295 23.4054 55.3585 23.382 55.6512 23.382C57.2468 23.382 58.8555 23.2441 60.4382 23.4002C61.4562 23.499 62.5415 23.8451 63.4093 24.3836C66.7327 26.4416 70.2919 27.8283 74.0531 28.8638C76.5968 29.5637 79.0033 30.7657 80.4254 33.2192C81.0212 34.2469 81.8009 34.2469 82.5573 33.6667C84.3653 32.2799 86.0879 30.7761 86.5438 28.3539C86.8573 26.6966 87.6888 25.557 89.3699 25.0367C89.9424 24.8598 90.5148 24.407 90.893 23.9257C92.5431 21.8287 94.5895 20.7282 97.299 21.043C97.6824 21.0872 98.0761 21.0456 98.4647 21.043C102.068 21.0274 103.086 21.6648 104.404 24.9976C105.337 27.3522 105.474 29.7276 104.456 32.142C103.816 33.6589 103.371 35.2615 102.809 36.911C103.736 36.911 104.565 37.0333 105.35 36.8902C108.287 36.3543 111.129 36.9917 114.002 37.4158C115.263 37.6031 116.553 37.6083 117.83 37.6968C118.802 37.7644 119.789 37.754 120.737 37.9387C121.174 38.0246 121.651 38.4149 121.91 38.8025C122.41 39.5518 122.809 40.3792 123.179 41.2065C123.778 42.549 124.837 43.0225 126.228 43.1552C127.166 43.2437 128.08 43.6027 129.005 43.8395C128.971 43.9774 128.938 44.1127 128.907 44.2506H128.899ZM95.7785 47.6016C95.4935 45.4031 95.1257 45.2861 93.6129 46.3164C92.9601 46.7613 92.1286 46.9382 91.0795 47.3545C91.2764 46.3346 91.393 45.7284 91.5121 45.1143C89.243 44.9504 87.668 46.116 87.3235 48.1454C87.2795 48.4004 87.2147 48.6527 87.1603 48.9077C86.6707 51.2649 83.9094 52.5033 81.7931 51.3611C81.3398 51.1166 80.5756 50.8252 80.2751 51.0281C78.9774 51.9075 77.3273 52.7323 76.6953 54.0201C75.9492 55.5396 76.1202 57.5143 75.8871 59.3485C76.5942 59.3121 77.1253 59.3615 77.6174 59.2444C83.3577 57.8863 89.1238 56.6115 94.8226 55.0894C98.8765 54.0045 102.84 52.584 106.839 51.2987C109.974 50.2918 113.126 49.3344 116.216 48.2052C117.31 47.8046 118.771 47.3623 118.9 45.9651C119.048 44.3729 118.758 42.739 118.654 41.0452C118.006 41.079 117.493 41.0895 116.986 41.1337C114.271 41.373 111.559 41.8257 108.847 41.8127C106.091 41.7997 103.524 42.1978 100.998 43.3191C100.021 43.7536 99.3013 44.2558 98.6279 45.0779C97.8844 45.9833 96.869 46.6624 95.7836 47.6016H95.7785ZM61.4303 35.8313C61.122 40.8605 60.8215 45.7596 60.5159 50.7601C62.4483 47.5444 65.3106 44.953 65.6318 40.8605C65.8054 38.6568 66.0696 38.6802 64.0802 37.4652C63.2047 36.9293 62.3343 36.3881 61.4303 35.8287V35.8313ZM19.2903 122.308C19.4897 122.553 19.6711 122.974 19.8679 122.982C20.6502 123.016 21.7071 123.219 22.1656 122.803C22.9116 122.126 22.0024 121.66 21.4273 121.301C21.0698 121.078 20.6994 120.877 20.342 120.669C19.9819 121.231 19.6659 121.723 19.2903 122.306V122.308ZM121.348 44.1153L120.711 44.2167C120.636 45.0727 120.558 45.9287 120.483 46.7847C120.615 46.8653 120.75 46.946 120.882 47.0292C121.278 46.678 121.993 46.3346 122.003 45.9729C122.019 45.3615 121.589 44.7371 121.345 44.1205L121.348 44.1153Z" fill="#A80031"/>
</g>
<defs>
<clipPath id="clip0_112_1071">
<rect width="129" height="126" fill="white"/>
</clipPath>
</defs>
</svg>
