<svg width="45" height="44" viewBox="0 0 45 44" fill="none" xmlns="http://www.w3.org/2000/svg">
<g clip-path="url(#clip0_348_276)">
<path d="M44.667 22C44.667 9.84973 34.8173 0 22.667 0C10.5167 0 0.666992 9.84973 0.666992 22C0.666992 32.9807 8.71203 42.0823 19.2295 43.7327V28.3594H13.6436V22H19.2295V17.1531C19.2295 11.6394 22.514 8.59375 27.5392 8.59375C29.9455 8.59375 32.4639 9.02344 32.4639 9.02344V14.4375H29.6898C26.957 14.4375 26.1045 16.1335 26.1045 17.875V22H32.2061L31.2307 28.3594H26.1045V43.7327C36.622 42.0823 44.667 32.9807 44.667 22Z" fill="#F4D9D4"/>
</g>
<defs>
<clipPath id="clip0_348_276">
<rect width="44" height="44" fill="white" transform="translate(0.666992)"/>
</clipPath>
</defs>
</svg>
