<svg width="352" height="417" viewBox="0 0 352 417" fill="none" xmlns="http://www.w3.org/2000/svg">
<path d="M62.0732 1.02186L26.9684 1.02186C26.9684 11.6763 15.8671 20.5805 0.999974 22.8995L0.999966 95.7739C14.9502 95.7739 26.2807 103.322 26.2807 112.663C26.2807 122.005 14.9829 129.553 0.999962 129.553L0.999931 394.622C15.8671 396.941 26.9683 405.846 26.9683 416.5L62.0731 416.5C62.0731 410.702 69.1137 405.999 77.7917 405.999C86.4696 405.999 93.5102 410.702 93.5102 416.5L160.281 416.5C160.281 410.702 167.322 405.999 176 405.999C184.678 405.999 191.719 410.702 191.719 416.5L258.49 416.5C258.49 410.702 265.53 405.999 274.208 405.999C282.886 405.999 289.927 410.702 289.927 416.5L317.336 416.5C317.336 404.074 332.4 394.01 351 394.01L351 129.531C337.05 129.531 325.719 121.983 325.719 112.642C325.719 103.3 337.017 95.752 351 95.752L351 23.4902C332.4 23.4902 317.336 13.4265 317.336 1.00001L289.927 1.00001C289.927 6.79758 282.886 11.5013 274.208 11.5013C265.53 11.5013 258.49 6.79758 258.49 1.00001L191.719 1C191.719 6.79758 184.678 11.5013 176 11.5013C167.322 11.5013 160.281 6.79757 160.281 1L93.5103 0.999997C93.5103 6.79757 86.4697 11.5013 77.7917 11.5013C69.1138 11.5013 62.0732 6.79757 62.0732 0.999995L62.0732 1.02186Z" stroke="#F4115D" stroke-miterlimit="10"/>
</svg>
