<svg xmlns="http://www.w3.org/2000/svg" width="84.002" height="140.002" viewBox="0 0 84.002 140.002">
    <path data-name="Rectangle 1288" transform="translate(0 .002)" style="fill:none" d="M0 0h84v140H0z"/>
    <g data-name="Group 2900">
        <path data-name="Path 1818" d="M16308.3 3080.335a1.507 1.507 0 0 1-1.519-1.481c-.173-14.7-6.64-27.713-19.222-38.661a79.585 79.585 0 0 0-13.145-9.2 58.549 58.549 0 0 0-5.987-2.975 1.492 1.492 0 0 1-.833-1.953 1.524 1.524 0 0 1 1.978-.825 60.147 60.147 0 0 1 6.254 3.094 82.578 82.578 0 0 1 13.666 9.549 62.878 62.878 0 0 1 13.813 16.632 51.637 51.637 0 0 1 3.681 8.128 255.075 255.075 0 0 1-1.949-27.12 164.2 164.2 0 0 1 1.543-25.96c1.957-13.358 5.762-24.577 11.306-33.351a51.032 51.032 0 0 1 7.362-9.209 40.141 40.141 0 0 1 6.861-5.421 25.339 25.339 0 0 1 7.206-3.242l.636 2.908a23.366 23.366 0 0 0-6.463 2.99 42.852 42.852 0 0 0-13.23 13.821c-7.934 12.72-15.939 37.467-10.35 83.768a49.3 49.3 0 0 1 3.591-7.418 62.607 62.607 0 0 1 14.671-16.628 87.14 87.14 0 0 1 14.58-9.5 66.018 66.018 0 0 1 6.682-3.062 1.528 1.528 0 0 1 1.957.878 1.5 1.5 0 0 1-.891 1.933 63.841 63.841 0 0 0-6.418 2.95 83.658 83.658 0 0 0-14.052 9.172c-13.41 10.912-20.211 23.925-20.211 38.686a1.509 1.509 0 0 1-1.51 1.5zm31.651-119.092h.009-.009z" transform="translate(-16267.482 -2958.335)" style="fill:#f3f1ed"/>
    </g>
</svg>
