<?xml version="1.0" encoding="utf-8"?>
<!-- Generator: Adobe Illustrator 25.0.1, SVG Export Plug-In . SVG Version: 6.00 Build 0)  -->
<svg version="1.1" id="圖層_1" xmlns="http://www.w3.org/2000/svg" xmlns:xlink="http://www.w3.org/1999/xlink" x="0px" y="0px"
	 width="246px" height="24px" viewBox="0 0 246 24" style="enable-background:new 0 0 246 24;" xml:space="preserve">
<g>
	<g>
		<g>
			<g transform="translate(19.438)">
				<path d="M0,8c-0.2-3.9,2.8-7.2,6.7-7.4c0.1,0,0.3,0,0.4,0v2.9c-2.2,0.2-3.7,1.6-3.7,5v7c0,3.3,1.5,4.8,3.7,5v3
					c-3.9,0-7.1-3.1-7.2-7c0-0.1,0-0.3,0-0.4V8z"/>
				<path d="M31.5,16c0.2,3.9-2.8,7.2-6.7,7.4c-0.1,0-0.3,0-0.4,0v-3c2.2-0.2,3.7-1.6,3.7-5v-7c0-3.3-1.5-4.8-3.7-5V0.6
					c3.9,0,7.1,3.1,7.2,7c0,0.1,0,0.3,0,0.4V16z"/>
				<ellipse cx="15.8" cy="21.1" rx="2.9" ry="2.9"/>
				<path d="M12.7,0h6.2v5.5l-2.5,10c-0.1,0.3-0.4,0.5-0.7,0.4c-0.2-0.1-0.4-0.2-0.4-0.4l-2.5-10L12.7,0z"/>
			</g>
		</g>
		<path d="M108,0.6c2-0.1,3.9,0.5,5.4,1.8c1.4,1.2,2.1,3,2,4.8c0,1.2-0.3,2.4-0.9,3.4c-0.7,1-1.7,1.8-2.8,2.3
			c0.6,0.3,1.1,0.7,1.5,1.2c0.8,1.1,1.4,2.4,1.8,3.7c0.6,2,1.6,3.9,2.8,5.7h-5c0,0-0.8-1-1.9-4.5c-0.5-1.7-1.4-3.5-2.2-4.1
			c-0.8-0.6-1.8-1-2.8-1h-1.3v9.6h-4.4V0.6L108,0.6z M104.6,10.6h2.2c1.1,0.1,2.3-0.2,3.2-0.9c0.6-0.7,1-1.6,0.9-2.5
			c0.1-0.9-0.3-1.8-0.9-2.4c-0.8-0.6-1.8-0.9-2.7-0.9h-2.7L104.6,10.6z"/>
		<path d="M87.4,0.6c2.1-0.1,4.1,0.5,5.7,1.7c2.7,2.7,2.8,7,0.1,9.8c0,0-0.1,0.1-0.1,0.1c-1.7,1.3-3.8,1.9-5.9,1.8h-3.6v9.5h-4.4
			V0.6L87.4,0.6z M83.6,10.6h2.9c1.1,0.1,2.2-0.2,3.2-0.8c0.7-0.6,1.1-1.6,1-2.5c0.1-0.9-0.3-1.8-0.9-2.5c-1-0.7-2.1-1-3.3-0.9h-2.8
			L83.6,10.6z"/>
		<path d="M65.1,0.6c2-0.1,3.9,0.5,5.4,1.8c1.4,1.2,2.1,3,2,4.8c0,1.2-0.3,2.4-0.9,3.4c-0.7,1-1.7,1.8-2.8,2.3
			c0.6,0.3,1.1,0.7,1.5,1.2c0.8,1.1,1.4,2.4,1.8,3.7c0.6,2,1.6,3.9,2.8,5.7h-5c0,0-0.8-1-1.9-4.5c-0.5-1.7-1.4-3.5-2.2-4.1
			c-0.8-0.6-1.8-1-2.8-1h-1.3v9.6h-4.4V0.6L65.1,0.6z M61.8,10.6H64c1.1,0.1,2.3-0.2,3.2-0.9c0.6-0.7,1-1.6,0.9-2.5
			c0.1-0.9-0.3-1.8-0.9-2.4c-0.8-0.6-1.8-0.9-2.7-0.9h-2.7L61.8,10.6z"/>
		<path d="M236.8,0.6c1.9-0.1,3.9,0.4,5.4,1.6c1.2,1,1.9,2.6,1.9,4.2c0,1-0.3,2.1-0.9,2.9c-0.6,0.9-1.5,1.5-2.5,1.9
			c1.5,0.3,2.9,1.1,3.9,2.2c0.9,1,1.3,2.3,1.3,3.7c0.1,1.9-0.8,3.6-2.3,4.7c-1.9,1.2-4.2,1.7-6.4,1.6h-8.5V0.6L236.8,0.6z
			 M233.2,10.3h2.4c1.2,0.1,2.3-0.2,3.2-0.9c0.7-0.6,1.1-1.5,1-2.4c0.1-0.9-0.3-1.8-0.9-2.4C238,4,237,3.7,236,3.8h-2.8L233.2,10.3z
			 M236.5,20.2c1.3,0.1,2.6-0.2,3.8-0.8c0.8-0.6,1.3-1.6,1.2-2.6c0-1-0.4-1.9-1.2-2.5c-1.2-0.7-2.6-1-3.9-0.9h-3.2v6.8L236.5,20.2z"
			/>
		<path d="M214.6,0.5l10.1,22.9h-4.5l-2.6-6.1h-9.7l-2.5,6.1h-4.5l9.8-22.9H214.6z M209.2,14.1h6.9l-3.5-8.3L209.2,14.1z"/>
		<path d="M187.8,0.6v19h10.3v3.8h-14.7V0.6L187.8,0.6z"/>
		<path d="M166.2,0.6V4h-9.7v6.1h9.4v3.4h-9.4v6.4h10v3.5H152V0.6L166.2,0.6z"/>
		<path d="M145.5,2v4.2c-0.8-0.7-1.8-1.3-2.8-1.8c-0.9-0.4-1.9-0.6-3-0.6c-0.8-0.1-1.6,0.2-2.3,0.7c-0.5,0.4-0.8,1-0.8,1.7
			c0,1.3,0.9,2.4,2.8,3.4c1.7,0.9,3.4,1.9,4.9,3.2c1.4,1.2,2.1,2.9,2,4.7c0,1.7-0.7,3.4-2,4.5c-1.4,1.2-3.3,1.8-5.2,1.8
			c-1.2,0-2.4-0.2-3.5-0.5c-1.1-0.3-2.2-0.8-3.2-1.5v-4.6c1.6,1.9,3.9,3,6.4,3.1c0.8,0.1,1.7-0.2,2.3-0.8c0.5-0.5,0.8-1.1,0.8-1.8
			c0-0.9-0.4-1.8-1.2-2.4c-1.2-0.9-2.4-1.6-3.6-2.3c-1.4-0.7-2.6-1.7-3.6-2.9c-0.8-1.1-1.2-2.4-1.2-3.7c0-1.7,0.7-3.3,2-4.3
			c1.5-1.2,3.3-1.8,5.2-1.7C141.6,0.3,143.7,0.9,145.5,2L145.5,2z"/>
		<path d="M126.5,0.6v22.8h-4.4V0.6H126.5z"/>
		<path d="M13.1,2v4.2c-0.8-0.7-1.8-1.3-2.8-1.8C9.4,4,8.4,3.8,7.4,3.8C6.6,3.8,5.8,4,5.1,4.5c-0.5,0.4-0.8,1-0.8,1.7
			c0,1.3,0.9,2.4,2.8,3.4c1.7,0.9,3.4,1.9,4.9,3.2c1.4,1.2,2.1,2.9,2,4.7c0,1.7-0.7,3.4-2,4.5c-1.4,1.2-3.3,1.8-5.2,1.8
			c-1.2,0-2.4-0.2-3.5-0.5c-1.1-0.3-2.2-0.8-3.2-1.5v-4.6c1.6,1.9,3.9,3,6.4,3.1c0.8,0.1,1.7-0.2,2.3-0.8c0.5-0.5,0.8-1.1,0.8-1.8
			c0-0.9-0.4-1.8-1.2-2.4c-1.2-0.9-2.4-1.6-3.6-2.3c-1.4-0.7-2.6-1.7-3.6-2.9C0.4,8.9,0,7.6,0,6.3C0,4.6,0.7,3,2,2
			c1.5-1.2,3.3-1.8,5.2-1.7C9.3,0.3,11.3,0.9,13.1,2L13.1,2z"/>
	</g>
</g>
</svg>
