<svg xmlns="http://www.w3.org/2000/svg" width="300.858" height="82.636" viewBox="0 0 300.858 82.636">
    <g data-name="Group 2844">
        <g data-name="Group 2846">
            <g data-name="Group 2845">
                <g data-name="Group 2844" transform="translate(24.299)">
                    <path data-name="Path 1733" d="M272.381 398.227a8.529 8.529 0 0 1 8.619-8.935v3.508c-2.682.217-4.436 1.959-4.436 5.969v8.421c0 4.01 1.754 5.752 4.436 5.97v3.633a8.53 8.53 0 0 1-8.616-8.936z" transform="translate(-272.381 -388.571)" style="fill:#f3f1ed"/>
                    <path data-name="Path 1734" d="M315.988 407.856a8.53 8.53 0 0 1-8.616 8.936v-3.632c2.682-.218 4.437-1.96 4.437-5.97v-8.421c0-4.01-1.755-5.752-4.437-5.969v-3.509a8.528 8.528 0 0 1 8.616 8.935z" transform="translate(-277.958 -388.571)" style="fill:#f3f1ed"/>
                    <ellipse data-name="Ellipse 170" cx="3.468" cy="3.48" rx="3.468" ry="3.48" transform="translate(15.547 21.983)" style="fill:#4b83d5"/>
                    <path data-name="Path 1735" d="M290.577 388.437h7.439v6.619l-3.056 12.054a.685.685 0 0 1-1.328 0l-3.055-12.02z" transform="translate(-275.281 -388.437)" style="fill:#4b83d5"/>
                </g>
            </g>
            <path data-name="Path 1736" d="M397.625 389.3a9.578 9.578 0 0 1 6.53 2.157 7.292 7.292 0 0 1 2.471 5.785 7.412 7.412 0 0 1-1.126 4.092 7.256 7.256 0 0 1-3.415 2.722 6.565 6.565 0 0 1 1.859 1.492 16.828 16.828 0 0 1 2.228 4.425 24.718 24.718 0 0 0 3.358 6.823h-5.987c-.008-.007-1-1.182-2.314-5.426-.648-2.091-1.638-4.191-2.7-4.968a5.591 5.591 0 0 0-3.394-1.177h-1.527v11.565h-5.3V389.3zm-4.018 12.014h2.693a5.538 5.538 0 0 0 3.837-1.048 3.918 3.918 0 0 0 1.1-2.984 3.81 3.81 0 0 0-1.1-2.9 4.656 4.656 0 0 0-3.315-1.048h-3.215z" transform="translate(-266.559 -388.571)" style="fill:#f3f1ed"/>
            <path data-name="Path 1737" d="M367.938 389.3a10.5 10.5 0 0 1 6.932 2.1 8.319 8.319 0 0 1 .04 11.874q-2.471 2.117-7.173 2.116H363.4v11.41h-5.3v-27.5zm-4.54 12.014h3.536a6.182 6.182 0 0 0 3.817-.947 3.635 3.635 0 0 0 1.205-3.044 3.775 3.775 0 0 0-1.145-2.963q-1.145-1.029-4-1.028H363.4z" transform="translate(-261.744 -388.571)" style="fill:#f3f1ed"/>
            <path data-name="Path 1738" d="M336.093 389.3a9.578 9.578 0 0 1 6.53 2.157 7.292 7.292 0 0 1 2.471 5.785 7.413 7.413 0 0 1-1.126 4.092 7.257 7.257 0 0 1-3.415 2.722 6.565 6.565 0 0 1 1.859 1.492 16.827 16.827 0 0 1 2.228 4.425 24.72 24.72 0 0 0 3.36 6.817h-5.987c-.008-.007-1-1.182-2.314-5.426-.648-2.091-1.638-4.191-2.7-4.968a5.592 5.592 0 0 0-3.394-1.177h-1.527v11.571h-5.3V389.3zm-4.018 12.014h2.693a5.538 5.538 0 0 0 3.837-1.048 3.918 3.918 0 0 0 1.1-2.984 3.81 3.81 0 0 0-1.1-2.9 4.656 4.656 0 0 0-3.315-1.048h-3.215z" transform="translate(-256.751 -388.571)" style="fill:#f3f1ed"/>
            <path data-name="Path 1739" d="M582.419 389.3q4.259 0 6.55 1.915a6.229 6.229 0 0 1 2.291 5.019 5.948 5.948 0 0 1-1.065 3.548 6.782 6.782 0 0 1-2.994 2.3 8.522 8.522 0 0 1 4.681 2.681 6.773 6.773 0 0 1 1.588 4.455 6.449 6.449 0 0 1-2.773 5.644q-2.773 1.936-7.715 1.936h-10.206V389.3zm-4.38 11.651h2.853a5.744 5.744 0 0 0 3.918-1.108 3.756 3.756 0 0 0 1.225-2.923 3.519 3.519 0 0 0-1.1-2.883 5.6 5.6 0 0 0-3.556-.907h-3.339zm3.938 12.014a8.51 8.51 0 0 0 4.6-.988 3.463 3.463 0 0 0 1.506-3.124 3.554 3.554 0 0 0-1.466-3.024 8.113 8.113 0 0 0-4.762-1.089h-3.815v8.225z" transform="translate(-295.961 -388.571)" style="fill:#f3f1ed"/>
            <path data-name="Path 1740" d="m549.211 389.151 12.175 27.617h-5.424l-3.174-7.3h-11.734l-3.054 7.3h-5.424l11.854-27.617zm-6.469 16.368h8.317l-4.258-9.957z" transform="translate(-289.553 -388.549)" style="fill:#f3f1ed"/>
            <path data-name="Path 1741" d="M512.921 389.3v22.939H525.3v4.556h-17.72V389.3z" transform="translate(-285.569 -388.571)" style="fill:#f3f1ed"/>
            <path data-name="Path 1742" d="M479.635 389.3v4.152H467.9v7.3h11.291v4.148H467.9v7.7H480v4.193h-17.4V389.3z" transform="translate(-278.4 -388.571)" style="fill:#f3f1ed"/>
            <path data-name="Path 1743" d="M450.227 390.92v5.12a13.878 13.878 0 0 0-3.375-2.177 8.745 8.745 0 0 0-3.576-.766 4.116 4.116 0 0 0-2.733.786 2.548 2.548 0 0 0-.925 2.036q0 2.338 3.436 4.132a32.7 32.7 0 0 1 5.867 3.83 6.986 6.986 0 0 1 2.431 5.664 6.843 6.843 0 0 1-2.45 5.422 9.193 9.193 0 0 1-6.229 2.117 14.391 14.391 0 0 1-4.219-.625 15.979 15.979 0 0 1-3.9-1.794V409.1q3.616 3.709 7.674 3.709a4.052 4.052 0 0 0 2.814-.908 2.853 2.853 0 0 0 1-2.2 3.5 3.5 0 0 0-1.426-2.862 33.973 33.973 0 0 0-4.38-2.762 13.889 13.889 0 0 1-4.4-3.527 7.163 7.163 0 0 1-1.446-4.475 6.485 6.485 0 0 1 2.411-5.181 9.324 9.324 0 0 1 6.227-2.035 13.425 13.425 0 0 1 7.193 2.055z" transform="translate(-273.905 -388.504)" style="fill:#f3f1ed"/>
            <path data-name="Path 1744" d="M424.93 389.3v27.5h-5.3v-27.5z" transform="translate(-271.551 -388.571)" style="fill:#f3f1ed"/>
            <path data-name="Path 1745" d="M260.327 390.92v5.12a13.849 13.849 0 0 0-3.375-2.177 8.739 8.739 0 0 0-3.576-.766 4.115 4.115 0 0 0-2.732.786 2.546 2.546 0 0 0-.925 2.036q0 2.338 3.436 4.132a32.733 32.733 0 0 1 5.867 3.83 6.986 6.986 0 0 1 2.431 5.664 6.841 6.841 0 0 1-2.453 5.424 9.19 9.19 0 0 1-6.228 2.117 14.383 14.383 0 0 1-4.219-.625 15.979 15.979 0 0 1-3.9-1.794V409.1q3.615 3.709 7.674 3.709a4.049 4.049 0 0 0 2.813-.908 2.851 2.851 0 0 0 1-2.2 3.5 3.5 0 0 0-1.426-2.862 33.853 33.853 0 0 0-4.38-2.762 13.886 13.886 0 0 1-4.4-3.527 7.164 7.164 0 0 1-1.447-4.475 6.485 6.485 0 0 1 2.411-5.181 9.327 9.327 0 0 1 6.228-2.035 13.42 13.42 0 0 1 7.192 2.055z" transform="translate(-243.638 -388.504)" style="fill:#f3f1ed"/>
        </g>
    </g>
    <path d="M.126 26.935a10.768 10.768 0 0 0 3.148-3.922l.47.212a21.566 21.566 0 0 0 .094-2.279v-6.323a19.665 19.665 0 0 0-.124-2.433c.813.061 1.342.093 2.808.093h3.965a15.65 15.65 0 0 0-.167-.851H5.46a13.441 13.441 0 0 0-1.653.059c.031-.455.063-.789.063-1.276V9.23a7.091 7.091 0 0 1-2 1.259A10.749 10.749 0 0 0 0 7.935a5.093 5.093 0 0 0 3.274-3.374l1.064.182v-.731H3.96a29.59 29.59 0 0 0-3.18.123v-2.8a21.283 21.283 0 0 0 3.12.155h.438A7.906 7.906 0 0 0 4.245.214h3.527a7.086 7.086 0 0 0-.064 1.276h1.966A7.44 7.44 0 0 0 9.612.214h3.527a7.376 7.376 0 0 0-.093 1.277h.4a21.028 21.028 0 0 0 2.715-.121v2.492A9.15 9.15 0 0 0 18.879 0l3.5.731c-.3.555-.619 1.064-.939 1.55h4.34a25.713 25.713 0 0 0 3.339-.155V5.26a9.4 9.4 0 0 0-1.72-.124 13.674 13.674 0 0 1-2.354 3.587 13.316 13.316 0 0 0 4.39.215 6.912 6.912 0 0 0-.864 3.13 13.5 13.5 0 0 1-6.662-1.268 23.757 23.757 0 0 1-5.433 1.421 5.008 5.008 0 0 0-1.058-2.25c-.283 1.519-.627 2.068-1.563 2.312h10.781a13.876 13.876 0 0 0 2.3-.123v2.554a13.782 13.782 0 0 0-2.3-.123h-6.972v.85h8.144v1.947h-8.144v.882h8.144v1.944h-8.144v.886h8.458a21.312 21.312 0 0 0 2.276-.091c-.094.487-.094.487-.28 1.7a35.554 35.554 0 0 1-.72 3.647 2.954 2.954 0 0 1-2.181 2.1 12.022 12.022 0 0 1-2.529.244c-.31 0-.686 0-1.593-.03a7.8 7.8 0 0 0-.342-1.854l-1.373.517a14.918 14.918 0 0 0-1.589-3.192l2.461-.7H6.333c-1.123 0-1.5 0-1.966.03l2.309.943a18.366 18.366 0 0 1-3.024 4.529zM22.064 25.9h.313c1.06 0 1.246-.089 1.5-.668a8.466 8.466 0 0 0 .344-1.793h-3.655a10.114 10.114 0 0 1 1.498 2.461zM7.583 21.1h6.43v-.882h-6.43zm0-2.826h6.43v-.882h-6.43zm0-2.829h6.43v-.85h-6.43zM11.3 8.787v1.459c.656 0 .876-.121 1-.487a11.49 11.49 0 0 0 .28-2.859H5.536a9.26 9.26 0 0 1-.421.792h4.84c.685 0 1.093 0 1.372-.031-.027.274-.027.608-.027 1.126zM6.489 9.942h2.156v-.823H6.489zm8.99-.578a25.477 25.477 0 0 0 3.659-.679 11.326 11.326 0 0 1-1.5-2.108c-.4.326-.786.616-1.161.872a8.409 8.409 0 0 0-.749-1.309 29.547 29.547 0 0 1-.249 3.224zm6.558-2.153a11.173 11.173 0 0 0 1.8-2.1h-3.559a9.506 9.506 0 0 0 1.759 2.1zm-8.991-2.286H14.7a10.76 10.76 0 0 0 1.186-.82 27.27 27.27 0 0 0-2.4-.093h-.436zm-5.338 0h1.966v-.913H7.708zM95.42 23.873a17.994 17.994 0 0 0-.057 2.261 52.134 52.134 0 0 1-8.59 2.039c-2.479.23-3.362-1.049-3.362-2.23v-1.29a47.336 47.336 0 0 1-3.879 1.461 14.13 14.13 0 0 0-1.873-3.252 23.356 23.356 0 0 0 4.684-1.215 18.394 18.394 0 0 0 4.057-1.919h-4.87a23.948 23.948 0 0 0-3.4.124v-3.435a32.142 32.142 0 0 0 3.559.121H91.3v-.516c0-.183 0-.336-.032-.791h-1.376a7 7 0 0 0-.529-2.007 6.529 6.529 0 0 0 1.279.154c.343 0 .469-.123.469-.488v-.821h-2.434v1.155c0 1.065.029 1.672.094 2.462H85c.06-.882.093-1.276.093-2.432v-1.185h-2.16v1.611a6.617 6.617 0 0 0 .1 1.643h-3.65a3.74 3.74 0 0 1 .059-.668c0-.183.033-.82.033-1.157v-2.28c0-.212-.033-.789-.062-1.64.436.029 1.31.06 1.934.06h3.745V8.6h-3.935a20.8 20.8 0 0 0-2.935.153V5.776a16.133 16.133 0 0 0 2.123.123 16.787 16.787 0 0 0-2.467-1.4 11.232 11.232 0 0 0 2.5-4.317l3.558.639c-.25.608-.343.851-.529 1.278h1.685a11.46 11.46 0 0 0-.13-1.854H88.8a9.918 9.918 0 0 0-.123 1.855h2.715a24.511 24.511 0 0 0 2.995-.121v2.915a39.672 39.672 0 0 0-2.965-.089h-2.745V5.9h3.152a24.181 24.181 0 0 0 3.248-.123v2.948a28.648 28.648 0 0 0-3.062-.125h-3.338v1.038H91.8c1.03 0 1.624-.031 2.465-.06-.03.333-.03.668-.03 1.214v2.281a2.3 2.3 0 0 1-.347 1.369h1.405a8.7 8.7 0 0 0-.093 1.58v.516h7.709a32.409 32.409 0 0 0 3.62-.121v3.434a24.718 24.718 0 0 0-3.434-.124h-1.685l3.121 1.614a22.593 22.593 0 0 1-3.121 2.159 24.03 24.03 0 0 0 5.833 1.612 13.3 13.3 0 0 0-1.962 3.648 22.7 22.7 0 0 1-9.861-4.887zm-8.7.2c0 .365.4.965 2.33.6a45.122 45.122 0 0 0 5.4-1.721 7.69 7.69 0 0 1-2.053-3.223h-.312a31.228 31.228 0 0 1-5.361 3.382zm11.6-2.277a13.616 13.616 0 0 0 2.588-2.069h-4.616a7.046 7.046 0 0 0 2.03 2.073zM81.281 5.9h3.807V4.805H82.03c-.279.456-.377.576-.749 1.095zM7.429 24.351l3.461-.3a19.48 19.48 0 0 1 .814 4.406l-3.839.306a27.537 27.537 0 0 0-.436-4.412zm53.294 4.317V27.6H46.618v1.064h-4.276a22.572 22.572 0 0 0 .157-2.586v-2.913c0-1.1-.032-1.488-.1-2.308a29.452 29.452 0 0 0 3.245.089h16.044a29.544 29.544 0 0 0 3.249-.089 21.455 21.455 0 0 0-.1 2.429v2.8A15.435 15.435 0 0 0 65 28.668zm-14.105-3.832h14.105V23.59H46.618zm69.512-.436c.937-.064 3.679-1.3 4.279-2.632v-6.2h-1.529a16.816 16.816 0 0 0-2.029.151V11.8a15.262 15.262 0 0 0 2.56.151h2.681a19.773 19.773 0 0 0 2.373-.119 30.393 30.393 0 0 0-.123 3.375v6.833a3.66 3.66 0 0 0 2.092 1.825 16.506 16.506 0 0 0 6.02.728 112.129 112.129 0 0 0 13.89-.638 15.29 15.29 0 0 0-1.029 4.134c-2.465.094-7.21.183-10.548.183-5.149 0-7.115-.153-8.772-.668a6.492 6.492 0 0 1-3.624-2.288 6.822 6.822 0 0 1-4.395 3.23 11.435 11.435 0 0 0-1.846-4.146zM12.7 24.32l3.119-.487a17.471 17.471 0 0 1 1.436 3.892l-3.432.577A17.758 17.758 0 0 0 12.7 24.32zm127.772-1.368h-10.825c-1.312 0-1.872.033-2.625.094a27.321 27.321 0 0 0 .1-4.136v-2.22a21.9 21.9 0 0 0-.1-2.675 32.8 32.8 0 0 0 3.4.12h9.865a31.038 31.038 0 0 0 3.216-.12 23.865 23.865 0 0 0-.094 3.162v2.98a19.634 19.634 0 0 0 .094 2.889 37.193 37.193 0 0 0-3.028-.095zm-9.612-3.281h8.646v-2.252h-8.646zm-66.612.3H43.06a28.757 28.757 0 0 0-3.618.154v-3.4a21.556 21.556 0 0 0 3.711.183h3.807a12.548 12.548 0 0 0-.622-1.309h-.5c-1.279 0-1.97.032-2.935.063A14.589 14.589 0 0 0 43 13.68V11.7a11.307 11.307 0 0 0-.1-1.971c.812.061 1.343.061 3.058.061h15.357c1.56 0 2.029 0 3.06-.061a13.812 13.812 0 0 0-.095 1.971v1.98a11.724 11.724 0 0 0 .094 1.978c-1.093-.063-1.342-.063-3.06-.063h-.562a12.544 12.544 0 0 1-.715 1.309h4.18a20.974 20.974 0 0 0 3.714-.183v3.4a30.2 30.2 0 0 0-3.68-.149zM51.268 16.9h4.523a10.492 10.492 0 0 0 .688-1.309h-5.837a13.443 13.443 0 0 1 .626 1.309zm-4.309-3.68h13.358v-1.059H46.959zm51.049 2.13a11.347 11.347 0 0 0-1-3.256c1.215.123 2.373.183 3.058.183 1.312 0 1.529-.12 1.529-.852V3.04a15.237 15.237 0 0 0-.157-2.552h4.152a16.4 16.4 0 0 0-.157 2.766v8.571c0 1.673-.31 2.4-1.215 2.98-.721.426-1.78.609-3.931.609-.47 0-1.405-.031-2.278-.06zm44.308-2.646h-14.388a24.74 24.74 0 0 0-2.589.121V9.211a19.615 19.615 0 0 0 2.682.123 14.915 14.915 0 0 0-3.338-1.947c1.724-.886 3.374-4.065 3.588-6.627l3.9.669a9.027 9.027 0 0 1-.517 2.309h1.893V3.07a14.252 14.252 0 0 0-.155-2.67h4.119a13.156 13.156 0 0 0-.157 2.674v.668h3.4a25 25 0 0 0 3.493-.182v3.68a32.778 32.778 0 0 0-3.337-.121h-3.559v2.22h4.964a22.782 22.782 0 0 0 2.9-.123v3.644a22.479 22.479 0 0 0-2.898-.152zm-14.108-3.37h5.341V7.115h-3.508a9.034 9.034 0 0 1-1.833 2.219zm-32.479 1.794a18.928 18.928 0 0 0 .094-2.068V4.226c0-.79-.061-1.7-.124-2.34h3.965a13.447 13.447 0 0 0-.126 2.34V9a16.493 16.493 0 0 0 .094 2.128zm-33.041-2.28H44.681a24.957 24.957 0 0 0-3.025.12V5.929a26.156 26.156 0 0 0 3.025.121h6.867V4.956h-7.834a30.461 30.461 0 0 0-3.808.151V1.765a29.653 29.653 0 0 0 3.9.181h7.74a8.6 8.6 0 0 0-.155-1.763h4.337a6.734 6.734 0 0 0-.186 1.764h8.051a30.523 30.523 0 0 0 3.933-.181v3.341a31.055 31.055 0 0 0-3.838-.151h-8.146V6.05h7.146a24.425 24.425 0 0 0 3.024-.121v3.039a25.267 25.267 0 0 0-3.024-.12zm54.1-5.535L119.815.64c2.938 1.424 4.6 3.166 5.4 5.289l-3.182 2.947a8.046 8.046 0 0 0-5.245-5.562z" transform="translate(.859 53.058)" style="stroke:transparent;stroke-miterlimit:10;fill:#f3f1ed"/>
</svg>
