<?xml version="1.0" encoding="utf-8"?>
<!-- Generator: Adobe Illustrator 25.4.1, SVG Export Plug-In . SVG Version: 6.00 Build 0)  -->
<svg version="1.1" id="圖層_1" xmlns="http://www.w3.org/2000/svg" xmlns:xlink="http://www.w3.org/1999/xlink" x="0px" y="0px"
	 viewBox="0 0 240 355" style="enable-background:new 0 0 240 355;" xml:space="preserve">
<style type="text/css">
	.st0{fill:#ABABAB;}
</style>
<polygon class="st0" points="8,47 17,47 17,45.5 7.3,45.5 "/>
<path class="st0" d="M33.9,225.8c0-4.4-0.2-14-0.6-29v-38.3c1.1-1,2.4-1.8,3.8-2.4c1.4-0.7,2.2-1.3,2.2-2c0-0.9-1.4-2.3-3.9-4.3
	c-2.9-2.1-4.8-3.1-5.8-3.2c-1,0.1-3,1.7-5.8,4.8H12.4l-9.8-3.8c0.3,2.1,0.6,8.5,0.8,19.5v25.5c-0.3,12.8-0.5,25.8-0.5,39.1
	c0.5,0.7,1.7,1,3.9,1c3.5,0,5.4-1,5.9-3.2v-8.7H24v6.6c0.1,1.4,1.6,2,4.4,2C32.1,229.4,33.9,228.1,33.9,225.8z M24,217.7H12.7v-63.4
	H24V217.7z"/>
<path class="st0" d="M88.1,173.1v2.9l0,0V202c0,1.4,1.5,2,4.4,2c3.7,0,5.5-1.3,5.5-3.6c0-1.3-0.2-4.2-0.6-8.7v-11.5
	c0.8-1,1.7-1.8,2.8-2.4c0.8-0.4,1.4-1.1,1.5-2c0-0.9-1.4-2.3-3.9-4.3c-2.9-2.1-4.8-3.1-5.8-3.2C91.3,168.6,88.2,171.2,88.1,173.1z"
	/>
<path class="st0" d="M103.6,232.8c-0.9-0.5-1.5-1.6-1.6-3.2c-0.2-4.4-0.3-8-0.3-10.7c-1.2-0.1-1.7-0.2-1.8-0.2
	c-1.3,6.7-2.4,10.6-3.3,11.8c-0.9,2.1-3,3-6.2,3c-4.2,0-8.8-1.8-8.8-5.5v-28.7H72v32.3c0,6.3,2.7,9.9,8,10.8c3.3,0.5,6.7,0.7,10,0.6
	c2.7,0,5.3-0.2,8-0.6c5.3-1.2,8.1-3.6,8.1-7C106.1,234.3,105.2,233.5,103.6,232.8z"/>
<path class="st0" d="M161.1,160.8h8.7v-8.3h17.9c0.5-0.1,0.8-0.8,0.8-2c-0.2-0.7-1.5-2.1-3.6-4.1c-1-1-2.2-1.9-3.5-2.5
	c-0.2,0-0.4,0.1-0.6,0.1c-0.9,0.6-2.5,2.3-4.8,5.3h-6.2v-2.5c0-0.6,1-1.3,3-2.1c1.2-0.2,1.7-0.7,1.7-1.6s-4.7-2.2-14-3.6
	c0.4,3.5,0.6,7,0.6,10.5L161.1,160.8z"/>
<path class="st0" d="M221.6,213.1c-2.9,5.3-6.6,10.1-11,14.3c-7.2-2-16.4-3.9-27.5-5.8c-0.2,0.7-0.4,1.4-0.7,2.1
	c11.7,3.5,23,8.4,33.6,14.5c6,4.3,9.8,6.5,11.3,6.5c2.2-0.2,3.3-1.8,3.3-4.8c-0.2-1.2-0.6-2.4-1.3-3.5c-1.7-2.8-6.8-5.4-15.1-8
	c3.9-1.7,7.6-4,11-6.7c0.9,0,2.3,0.2,4.4,0.5c0.9,0,1.4-0.3,1.4-1.3C231.1,220.3,227.8,217.7,221.6,213.1z"/>
<path class="st0" d="M222,22.2c3.9-0.5,5.9-1.1,6.1-2.2c0-1.2-5.1-3.7-15.1-7.5c-3,10.7-8.1,20.7-15,29.4c0.9,0.4,1.9,0.7,2.9,0.9
	C210.8,35.7,217.8,28.8,222,22.2z"/>
<path class="st0" d="M225.6,40.2c-1.6,0.9-6.5,7-9.9,11.4h19.9c0.8,0,1.3-0.5,1.3-1.6s-2.5-3.7-7.4-7.9c-0.9-0.7-1.8-1.3-2.8-1.8
	C226.3,40.3,226,40.2,225.6,40.2z"/>
<path class="st0" d="M164.3,42.3c1.5,0,3-0.6,4-1.7c1.2-1.1,1.8-3.5,1.8-6.9c-0.5-7.7-8.3-14.4-23.5-20c-0.3,0.5-0.6,1-0.8,1.6
	c5.5,5.2,9.8,11.4,12.8,18.3C160.6,39.4,162.4,42.3,164.3,42.3z"/>
<path class="st0" d="M234.3,92.1c-1.6-0.9-2.3-2.7-2.3-5.2v-16c-0.7,0-1.5,0-2.2-0.1c-0.7,5.3-1.6,10.6-2.8,15.8
	c-0.5,5.3-2.5,8-6.1,8h-13.3c-2.5,0-4-1.5-4.7-4.6V51.6h-11v40.5c0.1,7.3,4.3,11.2,12.6,11.8c3.7,0.3,7.4,0.4,11.1,0.4
	c7.4-0.2,12.6-0.8,15.7-1.7c4.4-1.4,6.7-3.4,6.7-6.1C238,94.8,236.7,93.4,234.3,92.1z"/>
<path class="st0" d="M167.4,59.4v0.1l0,0c-0.4,3.2-1,6.4-1.8,9.5c-5,16.8-15,28.7-30,36.1c0.5,0.4,0.9,1,1.2,1.6
	c20.3-5,33.3-16.6,39.1-35.1c1.5-3.7,2.8-10.4,3.7-20.1H168C167.9,54.3,167.7,56.9,167.4,59.4z"/>
<path class="st0" d="M194.8,9.1c1.4-0.2,2.1-0.9,2.1-2.1s-5.9-2.8-17.4-4.5c0.5,4.4,0.7,8.8,0.7,13.1v36h11v-40
	C191.2,11,192.4,10,194.8,9.1z"/>
<path class="st0" d="M211,187.8c-7.2-2.5-13.9-6.2-19.7-11.1c2.5-0.7,3.9-1.4,3.9-2.2c0-1.4-5.4-2.8-16.2-4.4
	c-6.3,13-21.5,24.4-45.4,34.1c0.2,0.7,0.5,1.2,0.7,1.3c7.9-1.7,15.7-4,23.2-7c0.1,1.3,0.2,2.8,0.3,4.6v29.1c-2.1,0-4.2,0.1-6.3,0.1
	c-3,0.1-6.1-0.1-9.1-0.5c1,3.8,2.1,7,3,9.6s1.6,4,2.2,4c0.8,0,1.5-1.5,2-4.4c18-3.1,30.7-6.1,38.3-9.1c-0.2-0.5-0.6-0.9-0.9-1.6
	c-4.6,0.7-11,1.2-18.9,1.5V197l-4.4-1.2c5.8-2.7,11.3-6.1,16.4-10.2c2.1,2,3.8,4.3,5.2,6.8c0.8,1.6,1.8,3.1,3.1,4.3
	c0.5,0.3,1.1,0.5,1.6,0.5c0.7,0,1.4-0.2,1.9-0.7c0.5-0.5,0.8-1,1-1.7c0.3-0.9,0.4-1.9,0.3-2.9c-0.3-4.2-4.2-6.8-11.3-8.1
	c2.3-1.9,4.4-4,6.4-6.3c4.8,6.5,11.1,11.8,18.4,15.4c-1,0.9-1.9,4-1.9,4l0,0v23.9c0.2,1.3,1.7,1.8,4.3,1.8c3.7,0,5.7-1.3,5.7-3.6
	c0-0.9-0.2-3.2-0.6-6.7v-8.9c0.7-1,1.6-1.8,2.7-2.4c1-0.6,1.6-1.3,1.6-2c0-0.3-0.2-0.6-0.3-0.9c6.3,2.7,11.2,3.9,14.5,3.9
	c0.9,0,1.6-0.6,2.1-2c0.6-1.4,1.2-2.7,2-4c0.7-0.7,1.6-1.2,2.5-1.6c0-0.7,0.1-1.3,0.2-2C228.7,192.3,219.2,190.8,211,187.8z"/>
<path class="st0" d="M86.9,73.7c1.2-2.4,2.6-4.7,4.1-6.9c0.7-0.9,1.4-1.8,2.2-2.6c0,0,0.8-1.2,2.1,0.1s3.5,3.9,3.5,3.9
	c1.4,1.8,2.7,3.6,3.8,5.5L86.9,73.7z"/>
<path class="st0" d="M17,79.7c-0.8,3.8-2.4,7.3-4.7,10.4c-3,3.6-5.7,5.9-8,6.9c-2.5,2.1-3.7,4.1-3.7,6.2c0.2,2.4,2.1,3.7,5.8,3.7
	c8.5-0.2,12.8-6.1,12.9-17.6c0-3.2-0.1-6.3-0.3-9.5C18.3,79.7,17.6,79.7,17,79.7z"/>
<path class="st0" d="M33.6,81.4c-0.1,0.4-0.5,0.7-0.9,0.7c1,2.3,1.5,4.8,1.5,7.4v10.4c0,3.2,2,5,5.8,5c3.6-0.1,5.4-2.4,5.4-6.9
	C45,91.9,41.1,86.5,33.6,81.4z"/>
<path class="st0" d="M82.5,81.1l-1.6,1.2c3.9,4,6.9,9.8,9,17.3c0.7,3.9,2.2,6,4.5,6c1.9,0.1,3.7-0.7,4.8-2.2c1-1.3,1.6-3.5,1.6-6.6
	C100.7,92,94.6,86.8,82.5,81.1z"/>
<path class="st0" d="M58.9,81.6L57,82.8c2.5,3.7,4.5,9.1,5.9,16c0.5,3.7,1.4,5.6,3,5.6c2,0.1,3.9-0.7,5.1-2.3
	c1.2-1.4,1.8-3.8,1.8-7.1C72.7,91,68.1,86.5,58.9,81.6z"/>
<path class="st0" d="M84.3,45.2v-25h14.3c0.5-0.1,0.7-0.8,0.7-2c-0.3-0.9-2-2.8-4.8-5.5c-2.2-2-3.7-3.1-4.5-3.3
	c-0.2,0-0.5,0.1-0.7,0.1C88,10.3,86,12.7,83,16.9H27.1c1.8-2.2,3.5-4.6,5-7C36.1,9.5,38,8.6,38,7.2c0-0.7-5-2.6-14.9-5.9
	C19.3,14.7,12.7,25.7,3.1,34.2c0.7,0.3,1.4,0.7,2,1.1c4.3-2.1,8.3-4.8,12-7.9v44.8H1.5l0.8,1.5l18.2-0.1h6.9V20.3h8.8v52.1l0,0v1.3
	h10.4V20.3h8.3v53.4h10.3V20.3H74v53.4h10.4V46.8L84.3,45.2z"/>
<path class="st0" d="M98.9,39.4c-2.5-2.9-4.2-4.4-5-4.4c-1,0.1-4.7,6.2-8.4,11.8h16.2c0.9,0,1.4-0.7,1.4-1.9
	C101.9,43,100.5,41.1,98.9,39.4z"/>
<path class="st0" d="M86,153.8c-3.2-2.5-5.3-3.9-6.1-3.9c-0.7,0.2-2.5,1.8-5.8,4.7h-14c0.9-1.7,1.7-3.6,2.7-5.6
	c4-0.7,6.1-1.6,6.1-2.6c0-1.4-5-3.2-14.9-5.5c-3.2,14.6-9.9,28.1-19.6,39.4c0,0.9,0.3,1.4,1.2,1.4c1.8-1.3,3.7-2.7,5.5-4.2v9.7
	c0,5.7-0.1,10.8-0.2,15.6c0,1.2,0.9,1.7,3,1.7c4,0,6.3-0.9,6.9-2.8c-0.1-0.6-0.1-1.3-0.1-1.9l0,0l-0.3-4.2l0,0
	c-0.2-3-0.2-5.9-0.2-8.7v-11h14.7c0.1,2.3,0.1,4.5,0,6.8c-0.3,4-0.8,8-1.5,11.9l0,0c-0.1,0.4-0.3,1.4-0.3,1.5l0,0
	c-0.2,1.1-0.5,2.3-0.7,3l0,0c0,0.1-0.2,0.6-0.2,0.6l0,0c-2.8,10.6-7.3,19.4-13.4,26.3c-6.4,7.5-14.4,13.5-23.4,17.5
	c0.2,0.4,0.3,0.8,0.3,1.2c14.4-2.1,26-8.5,34.6-19.5c5.3-6.7,9.3-15.5,12.1-26.1l0.8-3.4c0.9-4.1,1.5-8.3,1.7-12.5
	c0.2-2.4,0.2-4.8,0.2-7.2V173h-5.5c5.4-3.6,10.2-7.9,14.3-12.9c1.6-0.1,3.1-0.3,4.6-0.8c0.9-0.2,1.5-0.8,1.5-1.5
	C89.9,157.5,88.5,156.1,86,153.8z M66.5,173.1H50.1l-2.7-1.4c4.3-4.1,8-8.8,11-14h16C72.2,163.1,69.5,168.2,66.5,173.1z"/>
<path class="st0" d="M229.7,146.6h-12.6c-0.1,1.8-0.3,3.3-0.4,3.9c-0.7,4-2,7.8-3.9,11.3c-6.8-2.5-13.8-4.4-21-5.7
	c-0.1,0.6-0.3,0.8-0.7,0.8c6.3,2.8,12.1,6.7,17.1,11.5c-4.4,4.6-8.2,7.7-11.2,9.2c0.1,0.6,0.4,1.1,1,1.4c5.1-1.2,10-3.4,14.3-6.3
	c4.8,7.6,8.8,11.3,11.7,11.3c2.2,0,3.6-0.8,4.2-2.5c0.2-0.2,0.5-1.4,0.7-3.5c-0.5-4.8-4-9.7-9.6-13.2
	C228.6,153.2,229.7,146.6,229.7,146.6z"/>
<path class="st0" d="M145.4,171.7c2.3-2,4.4-4.3,6.4-6.6l0.8-1c0.1-0.1,1.6-2.2,2.4-3.3h0.1c0.3-0.6,0.8-1.3,1.3-2.1
	c3-0.2,4.5-0.9,4.5-2.1c0-0.6-3.8-2.1-11.4-4.5c-2.5,9.7-6.8,17.5-12.9,23.8c0.5,0.2,1,0.5,1.5,0.8
	C140.6,175.3,143.1,173.6,145.4,171.7z"/>
<path class="st0" d="M182.3,159.7c-2.7-2.2-4.5-3.3-5.4-3.3c-0.7,0.1-2.5,1.6-5.8,4.4l0.5,2.9c-0.9,2.8-3.9,6.4-8.8,10.8l0,0
	c-0.2,0.2-0.6,0.5-1,0.8c-0.8,0.7-2.7,2.2-2.7,2.2c-1.4,1.1-4.3,3.4-4.3,3.4l0,0c-7,5.1-14.5,9.4-22.5,12.8c0.1,0.5,0.2,0.9,0.5,1.3
	c9.9-2.1,19.3-5.9,27.9-11.1c7.7-4.3,14.4-10.1,19.8-17.1c0.6-0.1,1.7-0.5,3.5-0.9c1.5-0.5,2.3-1,2.3-1.7S184.9,162,182.3,159.7z"/>
<path class="st0" d="M35.5,308.5v-1.1c2.7-0.2,3.1-0.5,3.1-3.5V290c0-3-0.3-3.3-3.1-3.5v-1.2h10.2v1.2c-2.7,0.2-3,0.5-3,3.5v13.8
	c0,3,0.3,3.2,3,3.5v1.1H35.5z"/>
<path class="st0" d="M89,308.5v-1.1c2.7-0.2,3.1-0.5,3.1-3.5V290c0-3-0.3-3.3-3.1-3.5v-1.2h10.2v1.2c-2.7,0.2-3,0.5-3,3.5v13.8
	c0,3,0.3,3.2,3,3.5v1.1H89z"/>
<path class="st0" d="M165.7,298.7c-1.9,0.3-2.1,0.5-2.1,2.7v2.9c0,1.1,0,2.2,0.2,3.3c-2.6,0.7-5.3,1.2-8.1,1.3
	c-8.1,0-13.4-4.8-13.4-11.8c0-8.2,6.6-12.3,13.9-12.3c2.3,0.1,4.6,0.4,6.9,1c0.1,1.2,0.3,3.1,0.6,5.8l-1.2,0.2
	c-0.9-4.1-3.6-5.6-6.9-5.6c-4.7,0-8.5,3.9-8.5,10.3c0,5.2,2.8,11,9,11c0.8,0,1.7-0.1,2.4-0.5c0.7-0.5,1-1.3,0.9-2.1v-3.2
	c0-2.5-0.2-2.7-3.8-3.1v-1.1h10.1L165.7,298.7z"/>
<path class="st0" d="M190,308.5v-1.1c2.7-0.2,3.1-0.5,3.1-3.5V290c0-3-0.3-3.3-3.1-3.5v-1.2h10.2v1.2c-2.7,0.2-3,0.5-3,3.5v13.8
	c0,3,0.3,3.2,3,3.5v1.1H190z"/>
<path class="st0" d="M22.8,288.4c-2.2-2.1-5.7-3.1-10.1-3.1h-0.2v0.8c2.1,0.1,4.1,1,5.6,2.5c2.1,1.6,3.2,4.5,3.2,8
	c0,6.1-3.3,10.7-8.8,10.7c-0.1,0,0,0,0,0v1c3.7-0.2,6.8-1.1,9.1-2.9c2.9-2.3,4.6-5.8,4.4-9.5C26,293.2,24.9,290.4,22.8,288.4z"/>
<path class="st0" d="M9.3,303.8c0-0.1,0-0.1,0-0.2v-14.4c0-0.1,0-0.2,0-0.3v-3.5H2.2v1.2c2.6,0.2,2.9,0.4,2.9,3.5v13.8
	c0,3-0.3,3.2-3.2,3.5v1.1h7.4L9.3,303.8z"/>
<path class="st0" d="M143.2,333.4c-2.2-2.1-5.7-3.1-10.1-3.1h-0.2v0.8c2.1,0.1,4.1,1,5.6,2.5c2.1,1.6,3.2,4.5,3.2,8
	c0,6.1-3.3,10.7-8.8,10.7l0,0v1c3.7-0.2,6.8-1.1,9.1-2.9c2.9-2.3,4.6-5.8,4.4-9.5C146.4,338.2,145.3,335.4,143.2,333.4z"/>
<path class="st0" d="M129.7,348.8c0-0.1,0-0.1,0-0.2v-14.4c0-0.1,0-0.2,0-0.3v-3.5h-7.1v1.2c2.6,0.2,2.9,0.4,2.9,3.5v13.8
	c0,3-0.3,3.2-3.2,3.5v1.1h7.4L129.7,348.8z"/>
<path class="st0" d="M60.1,305c-0.1-0.8-0.2-3.5-0.2-5.2h-0.5c-0.1,1.7-0.2,4.5-0.2,5.3c-0.2,1.6-1.8,2.1-3.8,2.3v1.1h8.6v-1.1
	C61.3,307.2,60.3,306.6,60.1,305z"/>
<path class="st0" d="M73.4,299.9L73.4,299.9L61,285.4h-6.1v1.1c1.6,0.1,2.3,0.4,3.1,1.3l0.3,0.4l2.2,2.6l0,0l0.3,0.3l0.2,0.3l0,0
	l14.4,17.4h1.5v-5L73.4,299.9z"/>
<path class="st0" d="M71.3,285.4v1.1c2.6,0.1,3.5,0.7,3.8,2.2c0,0.8,0.2,3.6,0.2,5.5H76c0-1.8,0.2-4.7,0.3-5.5
	c0.2-1.6,1.7-2.1,3.6-2.2v-1.1H71.3z"/>
<path class="st0" d="M113.6,305c-0.1-0.8-0.2-3.5-0.2-5.2h-0.6c-0.1,1.7-0.2,4.5-0.2,5.3c-0.2,1.6-1.8,2.1-3.8,2.3v1.1h8.6v-1.1
	C114.8,307.2,113.8,306.6,113.6,305z"/>
<path class="st0" d="M126.9,299.9L126.9,299.9l-12.4-14.5h-6.1v1.1c1.6,0.1,2.3,0.4,3.1,1.3c0.1,0.1,0.2,0.2,0.2,0.4l2.2,2.6l0,0
	l0.3,0.3l0.2,0.3l0,0l14.4,17.4h1.5v-5L126.9,299.9z"/>
<path class="st0" d="M124.8,285.4v1.1c2.6,0.1,3.6,0.7,3.8,2.2c0,0.8,0.2,3.6,0.2,5.5h0.7c0-1.8,0.2-4.7,0.3-5.5
	c0.2-1.6,1.7-2.1,3.6-2.2v-1.1H124.8z"/>
<path class="st0" d="M214.6,305c-0.1-0.8-0.2-3.5-0.2-5.2h-0.6c-0.1,1.7-0.2,4.5-0.2,5.3c-0.2,1.6-1.8,2.1-3.8,2.3v1.1h8.6v-1.1
	C215.8,307.2,214.7,306.6,214.6,305z"/>
<path class="st0" d="M227.8,299.9L227.8,299.9l-12.4-14.5h-6.1v1.1c1.6,0.1,2.3,0.4,3,1.3c0.1,0.1,0.2,0.2,0.3,0.4l2.2,2.6l0,0
	l0.3,0.3l0.2,0.3l0,0l14.5,17.4h1.5v-5L227.8,299.9z"/>
<path class="st0" d="M225.8,285.4v1.1c2.6,0.1,3.6,0.7,3.8,2.2c0,0.8,0.2,3.6,0.2,5.5h0.7c0-1.8,0.2-4.7,0.3-5.5
	c0.2-1.6,1.7-2.1,3.6-2.2v-1.1H225.8z"/>
<path class="st0" d="M23.8,330.3h-5v0.6c1.3,0.1,2.5,0.7,3.3,1.6c0.5,0.6,1,1.3,1.3,3.7l0.6-0.1C23.9,333.4,23.8,331.9,23.8,330.3z"
	/>
<path class="st0" d="M3.9,330.3h5v0.6c-1.3,0.1-2.5,0.7-3.3,1.6c-0.5,0.6-1,1.3-1.3,3.7l-0.6-0.1C3.8,333.4,3.9,331.9,3.9,330.3z"/>
<path class="st0" d="M15.8,348.8v-17l0,0v-1.5h-4.1v1.5l0,0v17c0,3-0.4,3.2-3.4,3.5v1.1h11.1v-1.1C16.1,352.1,15.8,351.8,15.8,348.8
	z"/>
<path class="st0" d="M84.7,330.3h-5v0.6c1.3,0.1,2.5,0.7,3.3,1.6c0.5,0.6,1,0.8,1.3,3.2l0.6-0.1C84.8,333,84.7,331.9,84.7,330.3z"/>
<path class="st0" d="M75.3,348.7v-18.4h-7.1v1.2c2.6,0.2,2.9,0.3,2.9,3.5v13.8c0,3-0.3,3.2-3.4,3.5v1.1h7.6V348.7z"/>
<path class="st0" d="M78.6,341.9c1.6,0.1,3.6,0.4,3.7,3.2h0.8v-7h-0.8c0,2.1-2.1,3-3.7,3.2V341.9z"/>
<path class="st0" d="M86.2,347.5c-0.6,3.2-3.3,5.4-6.5,5.4v0.6h5.7c0.3-1.5,1.1-4.4,1.4-5.8L86.2,347.5z"/>
<path class="st0" d="M171,348.5c-2.3-6.1-4.5-12.5-6.8-18.7l-1.6,0.4l-7.3,18.4c-1.2,3.1-1.7,3.4-4,3.7v1.1h7.8v-1.1
	c-2.6-0.3-2.8-0.8-2.2-2.7c0.3-1,0.6-1.9,0.9-2.8l0,0l1-3c0,0,1.9-5.4,3-8.2h0.1l2.1,6.2l2,5.6l0,0c0.4,1,0.7,2,1,2.7
	c0.5,1.5,0.3,1.9-1.8,2.2v1.1h9.6v-1.1C172.6,352,172.2,351.6,171,348.5z"/>
<path class="st0" d="M189,348.8v-9.1v-9.3h-7.1v1.2c2.7,0.2,3,0.5,3,3.4v13.9c0,3-0.4,3.2-3.1,3.5v1.1H192v-1.1
	C189.3,352.1,189,351.8,189,348.8z"/>
<path class="st0" d="M201.3,351.9c-1.1-1.2-2-2.5-2.8-3.8c-1.1-1.9-2.1-3.8-3-5.8c2.4-1,4.5-2.8,4.5-5.9c0.1-1.9-0.8-3.7-2.4-4.7
	c-1.4-0.9-3.2-1.3-6.1-1.3h-0.2v0.5c2.2,0.1,4.7,2.5,4.7,6.1c0,1.7-0.8,3.3-2.2,4.3c-0.8,0.5-1.8,0.8-2.8,1v0.7
	c0.2,0.3,3.6,6,4.5,7.5c1.5,2.3,2.9,3.2,6.8,3.4c0.4,0,0.8,0,1.1,0v-0.5C202.6,353,201.9,352.5,201.3,351.9z"/>
<path class="st0" d="M217.2,348.8v-13.7c0-3.1,0.3-3.3,2.9-3.5v-1.2h-10v1.2c2.7,0.2,3.1,0.4,3.1,3.5v13.7c0,3.1-0.4,3.3-3,3.6v1.1
	h10.1v-1.1C217.5,352.1,217.2,351.8,217.2,348.8z"/>
<path class="st0" d="M224.9,333.9l0.7,0.5c0.6-0.6,0.2-0.2,0.8-0.8c2.1-1.9,3.8-1.8,6.2-2v-1.2h-9v1.2l0.7,0.1
	C226.7,331.9,225.3,333.4,224.9,333.9z"/>
<path class="st0" d="M229.1,349.7c-2-2.5-7.9-10.1-7.9-10.1c-0.3,0.3-2.9,3.3-2.9,3.3s6.3,8.1,8.3,10.6h6.5V353
	C231.7,352.8,230.8,351.6,229.1,349.7z"/>
<path class="st0" d="M40.6,348.9V335c0-3,0.3-3.2,2.9-3.4v-1.2H33.3v1.2c2.8,0.2,3.1,0.4,3.1,3.4v13.9c0,3-0.3,3.2-3,3.5v1.1h10.2
	v-1.1C40.9,352.1,40.6,351.9,40.6,348.9z"/>
<path class="st0" d="M58.3,331.5v-1.2H48.2v1.2c2.7,0.2,3,0.4,3,3.4v3.1l0,0v6.4l0,0v4.4c0,3-0.3,3.2-3.2,3.5v1.1h10.4v-1.1
	c-2.8-0.2-3.1-0.5-3.1-3.5V335C55.3,331.9,55.5,331.8,58.3,331.5z"/>
<rect x="43.4" y="340.7" class="st0" width="4.9" height="1"/>
</svg>
