<?xml version="1.0" encoding="utf-8"?>
<!-- Generator: Adobe Illustrator 25.4.1, SVG Export Plug-In . SVG Version: 6.00 Build 0)  -->
<svg version="1.1" id="圖層_1" xmlns="http://www.w3.org/2000/svg" xmlns:xlink="http://www.w3.org/1999/xlink" x="0px" y="0px"
	 viewBox="0 0 500 160" style="enable-background:new 0 0 500 160;" xml:space="preserve">
<style type="text/css">
	.st0{fill:#ABABAB;}
</style>
<polygon class="st0" points="10.1,45.5 18.5,45.5 18.5,44.1 9.4,44.1 "/>
<path class="st0" d="M296.4,85.1c0-4.1-0.2-13.2-0.5-27.3V21.5c1.1-0.9,2.3-1.7,3.6-2.3c1.3-0.6,2.1-1.2,2.1-1.9
	c0-0.9-1.3-2.2-3.7-4c-2.7-2-4.6-2.9-5.4-3c-1,0.1-2.8,1.6-5.5,4.6h-10.9l-9.2-3.7c0.3,2,0.5,8,0.8,18.4v24
	c-0.3,12.1-0.4,24.4-0.4,36.9c0.4,0.7,1.6,1,3.7,1c3.3,0,5.1-1,5.6-3v-8.2H287v6.2c0.1,1.3,1.5,1.8,4.1,1.8
	C294.7,88.4,296.4,87.2,296.4,85.1z M287,77.5h-10.7V17.6H287V77.5z"/>
<path class="st0" d="M347.6,35.3v2.7l0,0v24.6c0,1.3,1.4,1.8,4.1,1.8c3.5,0,5.2-1.2,5.2-3.4c0-1.2-0.2-3.9-0.6-8.2V42.2
	c0.7-0.9,1.6-1.7,2.6-2.3c0.7-0.3,1.3-1,1.4-1.9c0-0.9-1.3-2.2-3.7-4c-2.7-2-4.6-2.9-5.4-3C350.5,31.1,347.6,33.6,347.6,35.3z"/>
<path class="st0" d="M362.1,91.7c-0.9-0.4-1.4-1.5-1.5-3c-0.2-4.1-0.3-7.5-0.3-10.1c-1.1-0.1-1.6-0.2-1.7-0.2
	c-1.2,6.3-2.3,10-3.2,11.1c-0.9,2-2.8,2.8-5.9,2.8c-3.9,0-8.3-1.7-8.3-5.2V59.9h-8.8v30.5c0,6,2.5,9.3,7.5,10.2
	c3.1,0.5,6.3,0.6,9.5,0.5c2.5,0,5.1-0.2,7.6-0.5c5-1.1,7.6-3.4,7.6-6.6C364.5,93.1,363.6,92.4,362.1,91.7z"/>
<path class="st0" d="M423,23.7h8.2v-7.8H448c0.4-0.1,0.8-0.8,0.8-1.9c-0.2-0.7-1.4-2-3.4-3.9c-0.9-1-2-1.8-3.3-2.4
	c-0.2,0-0.4,0.1-0.5,0.1c-0.9,0.5-2.4,2.2-4.6,5h-5.9v-2.4c0-0.5,1-1.2,2.8-2c1.1-0.2,1.6-0.7,1.6-1.5s-4.5-2.1-13.2-3.4
	c0.4,3.3,0.6,6.6,0.5,9.9V23.7z"/>
<path class="st0" d="M480.1,73.1c-2.7,5-6.2,9.5-10.3,13.5c-6.8-1.8-15.5-3.7-25.9-5.4c-0.1,0.7-0.4,1.4-0.7,2
	c11.1,3.3,21.7,7.9,31.7,13.7c5.7,4,9.2,6.1,10.7,6.1c2.1-0.2,3.2-1.7,3.2-4.6c-0.2-1.2-0.6-2.3-1.2-3.3c-1.6-2.6-6.4-5.1-14.3-7.5
	c3.7-1.7,7.2-3.8,10.3-6.4c0.9,0,2.2,0.2,4.1,0.4c0.9,0,1.3-0.3,1.3-1.2C489.1,79.9,486,77.5,480.1,73.1z"/>
<path class="st0" d="M212,22.1c3.7-0.4,5.5-1.1,5.8-2.1c0-1.1-4.8-3.5-14.3-7.1c-2.8,10.1-7.6,19.6-14.2,27.8
	c0.9,0.4,1.8,0.7,2.7,0.9C201.4,34.9,208,28.3,212,22.1z"/>
<path class="st0" d="M215.4,39.1c-1.5,0.9-6.1,6.6-9.4,10.8h18.7c0.8,0,1.2-0.4,1.2-1.5s-2.4-3.5-7-7.4c-0.8-0.6-1.7-1.2-2.6-1.7
	C216.1,39.2,215.8,39.1,215.4,39.1z"/>
<path class="st0" d="M157.5,41.1c1.4,0,2.8-0.6,3.8-1.6c1.1-1.1,1.7-3.3,1.7-6.5c-0.4-7.3-7.8-13.6-22.2-18.8
	c-0.3,0.5-0.6,1-0.8,1.5c5.1,4.9,9.3,10.7,12.1,17.2C154.1,38.4,155.8,41.1,157.5,41.1z"/>
<path class="st0" d="M223.6,88.1c-1.5-0.9-2.2-2.5-2.2-4.9V68.1c-0.7,0-1.4,0-2.1-0.1c-0.4,3.9-1.3,8.9-2.6,14.9
	c-0.4,5-2.4,7.5-5.8,7.5h-12.5c-2.4,0-3.8-1.4-4.5-4.4V49.9h-10.3v38.2c0.1,6.9,4,10.6,11.9,11.1c1.6,0.2,5.1,0.3,10.5,0.3
	c7-0.2,11.9-0.8,14.8-1.6c4.1-1.3,6.3-3.2,6.3-5.8C227.1,90.6,225.9,89.3,223.6,88.1z"/>
<path class="st0" d="M160.5,57.2L160.5,57.2L160.5,57.2c-0.4,3.1-1,6.1-1.7,9.1c-4.7,15.9-14.2,27.1-28.3,34.1
	c0.5,0.4,0.9,0.9,1.1,1.5c19.2-4.7,31.5-15.7,36.9-33.1c1.4-3.5,2.6-9.8,3.5-18.9H161C161,52.4,160.8,54.8,160.5,57.2z"/>
<path class="st0" d="M186.4,9.8c1.3-0.2,2-0.9,2-2s-5.5-2.6-16.4-4.2c0.5,4.1,0.7,8.3,0.7,12.4v34h10.3V12.2
	C182.9,11.5,184.1,10.6,186.4,9.8z"/>
<path class="st0" d="M470.1,49.2c-6.8-2.3-13.1-5.9-18.6-10.5c2.4-0.6,3.7-1.3,3.7-2.1c0-1.3-5.1-2.6-15.2-4.1
	c-6,12.3-20.3,23-42.9,32.2c0.2,0.7,0.4,1.1,0.7,1.2c7.5-1.6,14.8-3.8,21.9-6.7c0.1,1.2,0.2,2.6,0.3,4.3V91c-2,0-3.9,0.1-6,0.1
	c-2.9,0.1-5.7-0.1-8.6-0.4c1,3.6,2,6.6,2.8,9s1.5,3.8,2.1,3.8c0.8,0,1.4-1.4,1.8-4.1c17-2.9,29-5.8,36.1-8.6
	c-0.2-0.4-0.6-0.9-0.9-1.5c-5.9,0.8-11.9,1.2-17.8,1.4V57.9l-4.1-1.1c5.5-2.6,10.7-5.8,15.5-9.6c1.9,1.9,3.6,4.1,4.9,6.4
	c0.7,1.5,1.7,2.9,2.9,4.1c0.5,0.3,1,0.4,1.6,0.4c0.7,0,1.3-0.2,1.8-0.6c0.5-0.4,0.8-1,1-1.6c0.2-0.9,0.3-1.8,0.3-2.7
	c-0.3-3.9-3.9-6.4-10.7-7.6c2.2-1.8,4.2-3.8,6-6c4.6,6.1,10.5,11.1,17.3,14.5c-1,0.9-1.8,3.8-1.8,3.8l0,0v22.6
	c0.2,1.2,1.6,1.7,4.1,1.7c3.5,0,5.3-1.2,5.3-3.4c0-0.9-0.2-3-0.6-6.3v-8.4c0.7-0.9,1.5-1.7,2.5-2.3c1-0.5,1.5-1.2,1.5-1.8
	c0-0.3-0.2-0.6-0.3-0.9c6,2.5,10.6,3.7,13.7,3.7c0.9,0,1.5-0.5,2-1.8c0.5-1.3,1.1-2.6,1.8-3.8c0.7-0.7,1.5-1.2,2.4-1.5
	c0-0.6,0.1-1.2,0.2-1.9C487.8,53.7,478.8,52.1,470.1,49.2z"/>
<path class="st0" d="M84.5,70.7c1.2-2.2,2.5-4.4,3.9-6.5c0.7-0.9,1.4-1.7,2.1-2.5c0,0,0.8-1.1,2,0.1s3.3,3.6,3.3,3.6
	c1.3,1.7,2.5,3.4,3.6,5.2L84.5,70.7z"/>
<path class="st0" d="M18.5,76.3c-0.8,3.5-2.3,6.9-4.5,9.8c-2.8,3.4-5.3,5.6-7.5,6.5c-2.4,2-3.5,3.9-3.5,5.9c0.2,2.3,2,3.5,5.4,3.5
	c8.1-0.2,12.1-5.8,12.2-16.7c0-4-0.1-7-0.3-8.9C19.8,76.4,19.2,76.3,18.5,76.3z"/>
<path class="st0" d="M34.2,78c-0.1,0.4-0.5,0.6-0.9,0.7c1,2.2,1.4,4.6,1.4,7v9.8c0,3,1.8,4.7,5.4,4.7c3.4-0.1,5.1-2.3,5.1-6.5
	C45,87.9,41.3,82.8,34.2,78z"/>
<path class="st0" d="M80.4,77.6l-1.5,1.1c3.7,3.8,6.5,9.2,8.5,16.3c0.7,3.7,2.1,5.7,4.2,5.7c1.8,0.1,3.4-0.7,4.6-2.1
	c1-1.2,1.5-3.3,1.5-6.2C97.6,88,91.8,83.1,80.4,77.6z"/>
<path class="st0" d="M58,78.2l-1.7,1c2.4,3.5,4.2,8.6,5.5,15.1c0.4,3.5,1.3,5.3,2.8,5.3c1.9,0.1,3.6-0.7,4.8-2.2
	c1.1-1.3,1.7-3.6,1.7-6.8C71.1,87,66.8,82.8,58,78.2z"/>
<path class="st0" d="M82.1,43.8V20.2h13.5c0.4-0.1,0.7-0.8,0.7-1.9c-0.3-0.9-1.8-2.6-4.6-5.2c-2.1-1.9-3.5-2.9-4.2-3.2
	c-0.2,0-0.4,0.1-0.7,0.1c-1.2,0.8-3.2,3-6,7H28.1c1.7-2.1,3.3-4.3,4.7-6.6c3.7-0.3,5.5-1.2,5.5-2.5c0-0.7-4.7-2.5-14-5.5
	c-3.6,12.6-9.9,23-18.9,31c0.6,0.3,1.3,0.7,1.8,1.1c4.1-2,7.9-4.5,11.3-7.4v42.2H3.9l0.8,1.4l17.2-0.1h6.5V20.2h8.2v49.2l0,0v1.2
	h9.8V20.2h7.8v50.4h9.8V20.2h8.3v50.4h9.8V45.3L82.1,43.8z"/>
<path class="st0" d="M95.8,38.4c-2.4-2.7-3.9-4.1-4.7-4.1c-1,0.1-4.4,5.9-7.9,11.1h15.3c0.9,0,1.3-0.7,1.3-1.7
	C98.7,41.7,97.3,40,95.8,38.4z"/>
<path class="st0" d="M345.5,17.2c-3.1-2.4-5-3.7-5.8-3.7c-0.7,0.2-2.4,1.7-5.4,4.5h-13.2c0.9-1.6,1.6-3.4,2.5-5.3
	c3.8-0.6,5.8-1.5,5.8-2.5c0-1.3-4.7-3.1-14-5.2c-3,13.8-9.3,26.6-18.5,37.2c0,0.9,0.3,1.3,1.1,1.3c1.7-1.2,3.5-2.5,5.2-3.9v9.1
	c0,5.3-0.1,10.2-0.2,14.7c0,1.1,0.9,1.6,2.8,1.6c3.8,0,6-0.9,6.5-2.6c-0.1-0.6-0.1-1.2-0.1-1.8l0,0l-0.3-3.9l0,0
	c-0.2-2.8-0.2-5.6-0.2-8.2V38.1h13.9c0.1,2.1,0.1,4.3,0,6.4c-0.3,3.8-0.8,7.5-1.4,11.2l0,0c-0.1,0.4-0.3,1.4-0.3,1.4l0,0
	c-0.2,1-0.5,2.2-0.7,2.8l0,0c0,0.1-0.2,0.6-0.2,0.6l0,0c-2.6,10-6.9,18.3-12.7,24.8c-6,7.1-13.6,12.8-22.1,16.5
	c0.1,0.3,0.3,0.7,0.3,1.1c13.6-2,24.5-8,32.7-18.4c5-6.3,8.8-14.6,11.4-24.6l0.7-3.2c0.8-3.9,1.4-7.8,1.6-11.8
	c0.2-2.3,0.2-4.6,0.2-6.8v-2.7H330c5.1-3.4,9.6-7.5,13.5-12.2c1.5-0.1,2.9-0.3,4.3-0.8c0.9-0.2,1.4-0.8,1.4-1.4
	C348.1,19.6,346.9,18.3,345.5,17.2z M327.1,35.3h-15.5l-2.5-1.3c4-3.9,7.5-8.3,10.3-13.2h15.2C332.5,25.9,330,30.7,327.1,35.3z"/>
<path class="st0" d="M487.8,10.2h-11.9c-0.1,1.7-0.3,3.2-0.4,3.7c-0.6,3.7-1.9,7.3-3.7,10.7c-6.4-2.4-13.1-4.2-19.8-5.3
	c-0.1,0.5-0.3,0.8-0.7,0.8c6,2.7,11.4,6.4,16.1,10.9c-4.1,4.4-7.7,7.3-10.6,8.7c0.1,0.6,0.5,1.1,1,1.3c4.8-1.2,9.4-3.2,13.5-6
	c4.6,7.2,8.3,10.7,11,10.7c2.1,0,3.4-0.8,3.9-2.4c0.4-1,0.6-2.1,0.7-3.3c-0.4-4.6-3.8-9.1-9-12.5C486.7,16.6,487.8,10.2,487.8,10.2z
	"/>
<path class="st0" d="M408.2,34c2.2-1.9,4.2-4,6.1-6.2l0.8-1c0.1-0.1,1.5-2.1,2.2-3.1l0,0c0.3-0.5,0.8-1.2,1.2-1.9
	c2.8-0.2,4.2-0.9,4.2-2c0-0.5-3.6-2-10.8-4.2c-2.4,9.1-6.4,16.5-12.2,22.4c0.5,0.2,1,0.5,1.4,0.8C403.7,37.4,406.1,35.8,408.2,34z"
	/>
<path class="st0" d="M443,22.7c-2.5-2.1-4.2-3.2-5.1-3.2c-0.7,0.1-2.4,1.5-5.4,4.1l0.4,2.7c-0.9,2.7-3.7,6-8.3,10.1l0,0l-0.9,0.8
	c-0.8,0.7-2.5,2.1-2.5,2.1c-1.3,1.1-4,3.2-4,3.2l0,0c-6.6,4.8-13.7,8.9-21.2,12.1c0.1,0.4,0.2,0.8,0.4,1.2c9.3-2,18.2-5.5,26.3-10.5
	c7.3-4,13.6-9.5,18.7-16.1c0.5-0.1,1.6-0.4,3.3-0.9c1.4-0.4,2.2-1,2.2-1.6S445.5,24.9,443,22.7z"/>
<path class="st0" d="M37.1,157v-1.2c2.8-0.3,3.1-0.5,3.1-3.6v-14.2c0-3.1-0.3-3.4-3.1-3.6v-1.2h10.5v1.2c-2.8,0.2-3.1,0.5-3.1,3.6
	v14.2c0,3.1,0.3,3.3,3.1,3.6v1.2H37.1z"/>
<path class="st0" d="M92,157v-1.2c2.8-0.3,3.1-0.5,3.1-3.6v-14.2c0-3.1-0.3-3.4-3.1-3.6v-1.2h10.5v1.2c-2.8,0.2-3.1,0.5-3.1,3.6
	v14.2c0,3.1,0.3,3.3,3.1,3.6v1.2H92z"/>
<path class="st0" d="M170.8,147c-1.9,0.3-2.2,0.5-2.2,2.8v3c0,1.1,0,2.3,0.3,3.4c-2.7,0.8-5.5,1.2-8.3,1.3
	c-8.3,0-13.7-4.9-13.7-12.2c0-8.4,6.8-12.7,14.3-12.7c2.4,0.1,4.8,0.4,7.1,1c0.1,1.3,0.3,3.2,0.6,6l-1.2,0.2
	c-0.9-4.2-3.6-5.7-7.1-5.7c-4.8,0-8.7,4-8.7,10.6c0,5.4,2.8,11.3,9.2,11.3c0.9,0,1.7-0.2,2.5-0.5c0.7-0.5,1.1-1.3,1-2.2v-3.4
	c0-2.6-0.2-2.8-3.9-3.1v-1.2h10.3L170.8,147z"/>
<path class="st0" d="M201.2,157v-1.2c2.8-0.3,3.1-0.5,3.1-3.6v-14.2c0-3.1-0.3-3.4-3.1-3.6v-1.2h10.4v1.2c-2.8,0.2-3.1,0.5-3.1,3.6
	v14.2c0,3.1,0.3,3.3,3.1,3.6v1.2H201.2z"/>
<path class="st0" d="M24,136.5c-2.3-2.2-5.8-3.1-10.4-3.1h-0.2v0.9c2.2,0.1,4.2,1,5.7,2.5c2.1,1.7,3.3,4.6,3.3,8.2
	c0,6.2-3.4,11-9,11l0,0v1c3.8-0.2,7-1.1,9.3-2.9c3-2.3,4.7-6,4.5-9.8C27.3,141.3,26.1,138.5,24,136.5z"/>
<path class="st0" d="M10.1,152.2v-18.9H2.9v1.2c2.7,0.2,3,0.4,3,3.6v14.2c0,3.1-0.3,3.3-3.3,3.6v1.2h7.6L10.1,152.2z"/>
<path class="st0" d="M408.5,136.5c-2.3-2.2-5.8-3.1-10.4-3.1h-0.3v0.9c2.1,0.1,4.2,1,5.7,2.5c2.1,1.7,3.3,4.6,3.3,8.2
	c0,6.2-3.4,11-9,11l0,0v1c3.8-0.2,7-1.1,9.3-2.9c3-2.3,4.7-6,4.5-9.8C411.8,141.4,410.6,138.5,408.5,136.5z"/>
<path class="st0" d="M394.6,152.3c0-0.1,0-0.1,0-0.2v-14.8c0-0.1,0-0.2,0-0.3v-3.6h-7.3v1.2c2.7,0.2,3,0.4,3,3.6v14.2
	c0,3.1-0.3,3.3-3.3,3.6v1.2h7.6V152.3z"/>
<path class="st0" d="M62.3,153.4c-0.1-0.8-0.2-3.6-0.2-5.4h-0.6c0,1.8-0.2,4.6-0.2,5.5c-0.2,1.7-1.8,2.2-3.9,2.3v1.2h8.8v-1.2
	C63.6,155.7,62.5,155.1,62.3,153.4z"/>
<path class="st0" d="M75.9,148.2L75.9,148.2l-12.8-14.9h-6.3v1.2c1.6,0.2,2.4,0.4,3.1,1.3c0.1,0.1,0.2,0.2,0.3,0.4l2.2,2.7l0,0
	l0.3,0.4l0.2,0.3l0,0l14.8,17.9h1.5v-5.2L75.9,148.2z"/>
<path class="st0" d="M73.8,133.3v1.2c2.6,0.2,3.7,0.7,3.9,2.3c0,0.8,0.2,3.7,0.2,5.6h0.7c0-1.9,0.2-4.8,0.3-5.6
	c0.2-1.6,1.7-2.2,3.7-2.3v-1.2L73.8,133.3z"/>
<path class="st0" d="M117.2,153.4c-0.1-0.8-0.2-3.6-0.2-5.4h-0.6c-0.1,1.8-0.2,4.6-0.3,5.5c-0.2,1.7-1.8,2.2-3.9,2.3v1.2h8.8v-1.2
	C118.5,155.7,117.4,155.1,117.2,153.4z"/>
<path class="st0" d="M130.9,148.2L130.9,148.2l-12.8-14.9h-6.3v1.2c1.7,0.2,2.4,0.4,3.1,1.3c0.1,0.1,0.2,0.2,0.3,0.4l2.2,2.7l0,0
	l0.3,0.4l0.2,0.3l0,0l14.8,17.9h1.5v-5.2L130.9,148.2z"/>
<path class="st0" d="M128.8,133.3v1.2c2.6,0.2,3.7,0.7,3.9,2.3c0.1,0.8,0.2,3.7,0.2,5.6h0.8c0-1.9,0.2-4.8,0.3-5.6
	c0.2-1.6,1.7-2.2,3.7-2.3v-1.2L128.8,133.3z"/>
<path class="st0" d="M226.4,153.4c-0.1-0.8-0.2-3.6-0.2-5.4h-0.6c-0.1,1.8-0.2,4.6-0.2,5.5c-0.2,1.7-1.8,2.2-3.9,2.3v1.2h8.8v-1.2
	C227.7,155.7,226.6,155.1,226.4,153.4z"/>
<path class="st0" d="M240,148.2L240,148.2l-12.8-14.9H221v1.2c1.6,0.2,2.4,0.4,3.1,1.3c0.1,0.1,0.2,0.2,0.3,0.4l2.2,2.7l0,0l0.3,0.4
	l0.2,0.3l0,0l14.8,17.9h1.5v-5.2L240,148.2z"/>
<path class="st0" d="M237.9,133.3v1.2c2.6,0.2,3.7,0.7,3.9,2.3c0.1,0.8,0.2,3.7,0.2,5.6h0.7c0-1.9,0.2-4.8,0.3-5.6
	c0.2-1.6,1.7-2.2,3.7-2.3v-1.2L237.9,133.3z"/>
<path class="st0" d="M296.1,133.4H291v0.6c1.3,0.1,2.5,0.7,3.4,1.6c0.5,0.6,1,1.3,1.3,3.8l0.6-0.1
	C296.2,136.6,296.1,135,296.1,133.4z"/>
<path class="st0" d="M275.6,133.4h5.1v0.6c-1.3,0.1-2.5,0.7-3.4,1.6c-0.5,0.6-1.1,1.3-1.4,3.8l-0.6-0.1
	C275.5,136.6,275.6,135,275.6,133.4z"/>
<path class="st0" d="M287.9,152.4v-17.5l0,0v-1.5h-4.2v1.5l0,0v17.5c0,3-0.4,3.3-3.5,3.6v1.2h11.4v-1.2
	C288.2,155.7,287.9,155.4,287.9,152.4z"/>
<path class="st0" d="M354,133.4h-5.1v0.6c1.3,0.1,2.5,0.7,3.4,1.6c0.6,0.6,1,0.8,1.3,3.3l0.6-0.1C354.1,136.1,354,135,354,133.4z"/>
<path class="st0" d="M344.3,152.2v-18.9h-7.3v1.2c2.7,0.2,3,0.4,3,3.6v14.2c0,3.1-0.3,3.3-3.5,3.6v1.2h7.8L344.3,152.2z"/>
<path class="st0" d="M347.8,145.2c1.6,0.1,3.7,0.4,3.8,3.3h0.8v-7.2h-0.8c0,2.2-2.2,3.1-3.8,3.3V145.2z"/>
<path class="st0" d="M355.6,151c-0.6,3.2-3.4,5.6-6.7,5.5v0.6h5.8c0.3-1.6,1.1-4.5,1.4-6L355.6,151z"/>
<path class="st0" d="M435.9,152c-2.4-6.3-4.7-12.8-7-19.2l-1.6,0.4l-7.5,18.9c-1.2,3.1-1.7,3.5-4.1,3.8v1.2h8.1v-1.2
	c-2.7-0.3-2.8-0.8-2.2-2.7c0.3-1,0.6-2,1-2.9l0,0l1-3c0,0,2-5.6,3-8.4h0.1l2.2,6.3l2,5.7l0,0c0.4,1,0.7,2,1,2.8
	c0.5,1.5,0.3,1.9-1.9,2.3v1.2h9.9V156C437.6,155.6,437.1,155.2,435.9,152z"/>
<path class="st0" d="M452.8,152.4V143v-9.6h-7.2v1.2c2.7,0.2,3.1,0.5,3.1,3.5v14.3c0,3-0.4,3.3-3.2,3.6v1.2H456v-1.2
	C453.2,155.7,452.8,155.4,452.8,152.4z"/>
<path class="st0" d="M465.5,155.5c-1.1-1.2-2-2.5-2.9-3.9c-1.1-1.9-2.1-3.9-3.1-6c2.5-1,4.6-2.8,4.6-6c0.1-1.9-0.8-3.8-2.4-4.8
	c-1.5-1-3.3-1.3-6.3-1.3h-0.2v0.5c2.2,0.1,4.8,2.5,4.8,6.2c0,1.8-0.8,3.4-2.3,4.4c-0.9,0.5-1.8,0.9-2.8,1.1v0.7
	c0.2,0.3,3.7,6.2,4.7,7.7c1.5,2.3,3,3.3,6.9,3.5c0.4,0,0.8,0,1.1,0v-0.5C466.8,156.7,466,156.2,465.5,155.5z"/>
<path class="st0" d="M481,152.2v-14c0-3.2,0.3-3.4,3-3.7v-1.2h-10.3v1.2c2.8,0.2,3.1,0.4,3.1,3.7v14c0,3.1-0.4,3.4-3,3.7v1.2h10.4
	v-1.2C481.3,155.7,481,155.4,481,152.2z"/>
<path class="st0" d="M488.9,137l0.7,0.5c0.6-0.6,0.2-0.2,0.9-0.8c2.2-2,3.9-1.9,6.3-2.1v-1.2h-9.2v1.2l0.7,0.1
	C490.8,135,489.4,136.5,488.9,137z"/>
<path class="st0" d="M493.3,153.2c-2.1-2.5-8.1-10.4-8.1-10.4c-0.3,0.3-2.9,3.4-2.9,3.4s6.5,8.3,8.5,10.8h6.7v-0.5
	C495.9,156.4,495,155.2,493.3,153.2z"/>
<path class="st0" d="M310.8,152.4v-14.3c0-3.1,0.3-3.3,3-3.5v-1.2h-10.4v1.2c2.9,0.2,3.2,0.4,3.2,3.5v14.3c0,3.1-0.3,3.3-3.1,3.5
	v1.2h10.4v-1.2C311.1,155.7,310.8,155.5,310.8,152.4z"/>
<path class="st0" d="M329.1,134.6v-1.2h-10.4v1.2c2.8,0.2,3,0.4,3,3.5v3.2l0,0v6.6l0,0v4.5c0,3.1-0.3,3.3-3.2,3.5v1.2H329v-1.2
	c-2.8-0.2-3.1-0.5-3.1-3.5v-14.3C325.9,135,326.2,134.8,329.1,134.6z"/>
<rect x="313.7" y="144" class="st0" width="5" height="1"/>
</svg>
