<svg xmlns="http://www.w3.org/2000/svg" viewBox="0 0 90 90">
  <defs>
    <style>
      .cls-1 {
        fill: none;
      }

      .cls-2 {
        fill: #eee9c5;
      }
    </style>
  </defs>
  <g id="Group_485" data-name="Group 485" transform="translate(-769 -401)">
    <rect id="Rectangle_62" data-name="Rectangle 62" class="cls-1" width="90" height="90" transform="translate(769 401)"/>
    <g id="Group_572" data-name="Group 572" transform="translate(769 401)">
      <rect id="Rectangle_62_1_" class="cls-1" width="90" height="90"/>
      <path id="Path_1528" data-name="Path 1528" class="cls-2" d="M80.665,18.655l-5.081-5.081a2.69,2.69,0,0,1,0-3.813h0a1.52,1.52,0,0,0-2.15-2.15L31.3,49.749c.046-.478.083-.965.083-1.452A13.709,13.709,0,0,0,7.975,38.6a13.705,13.705,0,0,0-.965,18.313A13.709,13.709,0,0,0,26.288,76.193a13.709,13.709,0,1,0,7.158-24.285L61.709,23.654a2.69,2.69,0,0,1,3.813,0l2.214,2.214h0L70.6,28.735a.757.757,0,0,0,.542.221.758.758,0,0,0,.542-1.3l-2.334-2.325,7.92-7.92L79.6,19.749a.757.757,0,0,0,.542.221.772.772,0,0,0,.542-.221A.806.806,0,0,0,80.665,18.655Zm-55.259,51.7a10.7,10.7,0,0,1,0-9.657,1,1,0,0,1,1.755-.009,10.592,10.592,0,0,1,0,9.666A.994.994,0,0,1,25.406,70.359Zm-3.225.285a6.823,6.823,0,0,1-9.639-9.629,13.651,13.651,0,0,0,9.308.331A13.875,13.875,0,0,0,22.181,70.644ZM14.113,52.294a2.316,2.316,0,0,1-2.72-1.277,6.658,6.658,0,0,1-.579-2.72,6.855,6.855,0,0,1,13.709,0,6.658,6.658,0,0,1-.579,2.72,2.326,2.326,0,0,1-2.72,1.277A13.924,13.924,0,0,0,14.113,52.294Zm3.556,2.582A10.647,10.647,0,0,1,22.5,56.043a.994.994,0,0,1,0,1.755,10.592,10.592,0,0,1-9.666,0,1,1,0,0,1,0-1.755A10.5,10.5,0,0,1,17.669,54.876ZM10.125,40.763a10.652,10.652,0,0,1,16.677,13,1.11,1.11,0,0,1-1.58.34c-.018-.009-.028-.018-.046-.028a1.092,1.092,0,0,1-.368-1.479,8.177,8.177,0,0,0,1.222-4.3,8.38,8.38,0,1,0-15.538,4.3,1.092,1.092,0,0,1-.368,1.479c-.018.009-.028.018-.046.028a1.11,1.11,0,0,1-1.58-.34A10.576,10.576,0,0,1,6.983,48.3,10.719,10.719,0,0,1,10.125,40.763Zm0,32.307a10.635,10.635,0,0,1-1.608-13,1.118,1.118,0,0,1,1.59-.34c.018.009.028.018.046.028a1.1,1.1,0,0,1,.368,1.479,8.177,8.177,0,0,0-1.222,4.3,8.335,8.335,0,0,0,12.68,7.158,1.092,1.092,0,0,1,1.479.368c.009.018.018.028.028.046a1.11,1.11,0,0,1-.34,1.58,10.648,10.648,0,0,1-13.02-1.617ZM34.9,54.876a10.651,10.651,0,1,1-5.449,19.792,1.121,1.121,0,0,1-.34-1.6c.009-.009.009-.018.018-.028a1.1,1.1,0,0,1,1.489-.368A8.23,8.23,0,0,0,34.907,73.9a8.365,8.365,0,1,0-4.3-15.519,1.082,1.082,0,0,1-1.461-.386.048.048,0,0,1-.018-.037,1.116,1.116,0,0,1,.349-1.6A10.663,10.663,0,0,1,34.9,54.876ZM32.214,59.25a6.84,6.84,0,1,1,0,12.561,2.351,2.351,0,0,1-1.3-2.775,13.771,13.771,0,0,0-.009-7.02A2.359,2.359,0,0,1,32.214,59.25Z" transform="translate(2.397 3.183)"/>
    </g>
  </g>
</svg>
