<svg xmlns="http://www.w3.org/2000/svg" viewBox="0 0 90 90">
  <defs>
    <style>
      .cls-1 {
        fill: none;
      }

      .cls-2 {
        fill: #eee9c5;
      }
    </style>
  </defs>
  <g id="Group_486" data-name="Group 486" transform="translate(-1061 -401)">
    <rect id="Rectangle_63" data-name="Rectangle 63" class="cls-1" width="90" height="90" transform="translate(1061 401)"/>
    <g id="Group_570" data-name="Group 570" transform="translate(1061 401)">
      <rect id="Rectangle_63_1_" class="cls-1" width="90" height="90"/>
      <g id="Group_570-2" data-name="Group 570">
        <path id="Path_1524" data-name="Path 1524" class="cls-2" d="M68.82,87.7H20.86a1.367,1.367,0,0,1-1.36-1.42c0-.01.01-.16.01-.17a9.285,9.285,0,0,0-9.27-9.37,1.366,1.366,0,0,1-1.37-1.37V14.55a1.366,1.366,0,0,1,1.37-1.37,9.282,9.282,0,0,0,9.27-9.27,1.366,1.366,0,0,1,1.37-1.37H68.8a1.366,1.366,0,0,1,1.37,1.37,9.282,9.282,0,0,0,9.27,9.27l.28-.02a1.341,1.341,0,0,1,1,.39,1.355,1.355,0,0,1,.42.98V75.38a1.385,1.385,0,0,1-.41.98,1.349,1.349,0,0,1-.99.39l-.2-.01h-.01a9.3,9.3,0,0,0-9.35,9.27l.02.29a1.349,1.349,0,0,1-.39.99A1.427,1.427,0,0,1,68.82,87.7ZM24.16,84.96H65.51a2.367,2.367,0,0,0,2.27-1.84,12.066,12.066,0,0,1,8.77-8.77,2.347,2.347,0,0,0,1.84-2.27V17.83a2.357,2.357,0,0,0-1.85-2.27,12.057,12.057,0,0,1-8.69-8.5,2.358,2.358,0,0,0-2.26-1.79H24.07a2.327,2.327,0,0,0-2.24,1.76,12.042,12.042,0,0,1-8.46,8.46,2.336,2.336,0,0,0-1.76,2.24V72.15a2.367,2.367,0,0,0,1.79,2.26,12.057,12.057,0,0,1,8.5,8.69A2.344,2.344,0,0,0,24.16,84.96Z"/>
      </g>
      <g id="Group_571" data-name="Group 571">
        <path id="Path_1525" data-name="Path 1525" class="cls-2" d="M35.97,41.3a6.136,6.136,0,0,0-2.5.36,1.853,1.853,0,0,0,.53.54c.08.06.17.12.27.19a3.177,3.177,0,0,0,1.32-.62A1.866,1.866,0,0,0,35.97,41.3Z"/>
        <path id="Path_1526" data-name="Path 1526" class="cls-2" d="M56.1,52.82a3.272,3.272,0,0,0,.28-.69,4.625,4.625,0,0,0-2.03,2.36c0,.03-.01.06-.01.09A4.447,4.447,0,0,0,56.1,52.82Z"/>
        <path id="Path_1527" data-name="Path 1527" class="cls-2" d="M72.95,19.13a15.6,15.6,0,0,1-8.48-8.32,1.538,1.538,0,0,0-1.41-.97H26.62a1.528,1.528,0,0,0-1.41.97A15.545,15.545,0,0,1,17.02,19a1.552,1.552,0,0,0-.97,1.42V69.49a1.552,1.552,0,0,0,.97,1.42,15.573,15.573,0,0,1,8.32,8.48,1.543,1.543,0,0,0,1.43,1H62.92a1.558,1.558,0,0,0,1.43-1,15.551,15.551,0,0,1,8.6-8.6,1.547,1.547,0,0,0,1-1.43V20.56A1.529,1.529,0,0,0,72.95,19.13ZM24.4,30.15a22.858,22.858,0,0,1,3.13-.27l.27-.01a12.678,12.678,0,0,1,4.91.45,12.736,12.736,0,0,0,4.29.29c.75-.04,1.7-.08,3.02-.11a7.76,7.76,0,0,1,3.77.65,2.83,2.83,0,0,0,2.55.02,17.15,17.15,0,0,1,3.39-.73.3.3,0,0,1,.34.3.317.317,0,0,1-.3.34,15.564,15.564,0,0,0-3.24.7,5.687,5.687,0,0,1-1.64.31,3.081,3.081,0,0,1-1.37-.35,7.2,7.2,0,0,0-3.5-.6c-1.32.03-2.26.07-3,.11a13.313,13.313,0,0,1-4.42-.3,12.08,12.08,0,0,0-4.78-.44l-.27.01a23.326,23.326,0,0,0-3.02.26.314.314,0,0,1-.38-.24A.345.345,0,0,1,24.4,30.15Zm.1,7.03a19.96,19.96,0,0,0,7.88-1.64c2.55-1.03,3.39-.54,4.46.09a8.279,8.279,0,0,0,5.29,1.2c1.98-.05,3.38-.15,4.51-.22a15.119,15.119,0,0,1,6.63.59c3.91,1.12,3.91,1.12,7.2.89l.4-.03a29.347,29.347,0,0,0,4.56-.51.333.333,0,0,1,.4.22.318.318,0,0,1-.21.4,27.644,27.644,0,0,1-4.7.54l-.4.03c-1.05.07-1.78.12-2.4.12-1.38,0-2.26-.24-4.96-1.02a14.6,14.6,0,0,0-6.46-.58c-1.13.08-2.55.17-4.54.22a9.07,9.07,0,0,1-5.64-1.29c-1.02-.6-1.64-.97-3.89-.05a20.193,20.193,0,0,1-8.17,1.69.323.323,0,0,1-.3-.34A.306.306,0,0,1,24.5,37.18ZM62.28,56.12a2.358,2.358,0,0,1-1.79-.2c-.13-.06-.28-.13-.45-.19-.28-.1-.59.08-.96.29a2.552,2.552,0,0,1-1.06.41c-.05,0-.13.01-.23.01-.78,0-2.86-.14-3.72-.98a10.313,10.313,0,0,1-3.35.87H50.7a.32.32,0,0,1-.02-.64,9.787,9.787,0,0,0,3.05-.79,1.285,1.285,0,0,1-.03-.48,4.926,4.926,0,0,1,2.58-2.92.557.557,0,0,1,.63.15c.22.27.15.71-.25,1.48a5.083,5.083,0,0,1-1.97,2.01,6.669,6.669,0,0,0,3.29.65,2.156,2.156,0,0,0,.79-.33,1.763,1.763,0,0,1,1.49-.33c.19.07.35.14.5.21a1.71,1.71,0,0,0,1.36.16.324.324,0,0,1,.39.24A.3.3,0,0,1,62.28,56.12Zm2.58-.08a.323.323,0,0,1-.18.06.329.329,0,0,1-.19-.06.647.647,0,0,0-.13.04.32.32,0,0,1-.25-.59.672.672,0,0,1,.83.11A.311.311,0,0,1,64.86,56.04Zm.62-12.21a15.514,15.514,0,0,0-6.83-.11c-.8.12-1.64.24-2.6.33a5.835,5.835,0,0,1-3.59-.44,3.366,3.366,0,0,0-1.89-.36q-.675.03-1.47.06a69.51,69.51,0,0,0-8.99.81,9.545,9.545,0,0,1-1.49.12,9.061,9.061,0,0,1-4.49-1.17,49.455,49.455,0,0,1-9.64.86.34.34,0,0,1-.34-.32.322.322,0,0,1,.32-.32h.02a52.442,52.442,0,0,0,8.93-.71,1.794,1.794,0,0,1-.64-.86.552.552,0,0,1,.46-.68c2.43-.61,3.08-.46,3.3-.06.23.42-.16.88-.53,1.24A3.053,3.053,0,0,1,35,42.8a8.556,8.556,0,0,0,4.99.69,69.646,69.646,0,0,1,9.07-.82c.53-.02,1.02-.04,1.46-.06a3.972,3.972,0,0,1,2.19.42,5.145,5.145,0,0,0,3.25.38c.94-.09,1.77-.21,2.56-.33a15.9,15.9,0,0,1,7.08.12.315.315,0,0,1,.23.39A.27.27,0,0,1,65.48,43.83Zm.28-12.57a5.458,5.458,0,0,1-3.14.75,13.577,13.577,0,0,1-4.12-.72c-2.38-.76-6.05-.11-6.09-.11a.321.321,0,1,1-.12-.63c.16-.03,3.87-.69,6.4.13,4.65,1.49,6.65.09,6.67.07a.328.328,0,0,1,.45.07A.292.292,0,0,1,65.76,31.26Z"/>
      </g>
    </g>
  </g>
</svg>
