<svg xmlns="http://www.w3.org/2000/svg" viewBox="0 0 90 90">
  <defs>
    <style>
      .cls-1 {
        fill: none;
      }

      .cls-2 {
        fill: #eee9c5;
      }
    </style>
  </defs>
  <g id="Group_487" data-name="Group 487" transform="translate(-1354 -401)">
    <rect id="Rectangle_64" data-name="Rectangle 64" class="cls-1" width="90" height="90" transform="translate(1354 401)"/>
    <g id="Group_569" data-name="Group 569" transform="translate(1354 401)">
      <rect id="Rectangle_64_1_" class="cls-1" width="90" height="90"/>
      <g id="Group_568" data-name="Group 568">
        <path id="Path_1520" data-name="Path 1520" class="cls-2" d="M86.37,38.9H70.48a1.42,1.42,0,0,0,0,2.84H86.37a1.42,1.42,0,1,0,0-2.84Z"/>
        <path id="Path_1521" data-name="Path 1521" class="cls-2" d="M20.94,40.31a1.419,1.419,0,0,0-1.42-1.42H3.63a1.42,1.42,0,1,0,0,2.84H19.52A1.419,1.419,0,0,0,20.94,40.31Z"/>
        <path id="Path_1522" data-name="Path 1522" class="cls-2" d="M4.9,35.94H18.23a1.976,1.976,0,0,0,1.92-2.44l-2-6.82a2.333,2.333,0,0,1,2.24-2.99h6.04a1.931,1.931,0,0,1,1.93,1.93h0a1.425,1.425,0,0,0,1.42,1.42H60.22a1.425,1.425,0,0,0,1.42-1.42h0a1.931,1.931,0,0,1,1.93-1.93h6.04a2.333,2.333,0,0,1,2.24,2.99l-2,6.82a1.976,1.976,0,0,0,1.92,2.44H85.1a1.976,1.976,0,0,0,1.92-2.44L83.55,21.8a8.856,8.856,0,0,1-.17-1.15,4.913,4.913,0,0,0-1.43-2.94,4.974,4.974,0,0,0-3.52-1.46h0a4.847,4.847,0,0,0-4.31,2.53H63.57a1.931,1.931,0,0,1-1.93-1.93,1.425,1.425,0,0,0-1.42-1.42H29.78a1.425,1.425,0,0,0-1.42,1.42,1.931,1.931,0,0,1-1.93,1.93H15.89a4.966,4.966,0,0,0-9.25,1.78,8.629,8.629,0,0,1-.24,1.33L2.99,33.51A1.967,1.967,0,0,0,4.9,35.94ZM34.17,18.28H55.84a2.97,2.97,0,1,1,0,5.94H34.17a2.97,2.97,0,0,1,0-5.94Z"/>
        <path id="Path_1523" data-name="Path 1523" class="cls-2" d="M79.31,72.4H78.04c-5.12,0-9.28-3.8-9.28-8.47l.02-8.25a5.479,5.479,0,0,0-2.68-4.67A37.187,37.187,0,0,1,52.57,36.95l-1.38-2.61a1.327,1.327,0,0,0-1.17-.7H39.98a1.327,1.327,0,0,0-1.17.7l-1.39,2.61A37.306,37.306,0,0,1,23.9,51.01a5.491,5.491,0,0,0-2.68,4.67v8.24c0,4.67-4.16,8.47-9.28,8.47H10.67a1.32,1.32,0,0,0,0,2.64H79.32a1.315,1.315,0,1,0-.01-2.63ZM26.58,53.98H63.13a.35.35,0,1,1,0,.7H26.58a.348.348,0,0,1-.35-.35A.342.342,0,0,1,26.58,53.98ZM67.01,72.75c-34.11,0-41.4-14.85-41.69-15.48a.353.353,0,0,1,.64-.3c.07.15,7.44,15.07,41.05,15.07a.348.348,0,0,1,.35.35A.356.356,0,0,1,67.01,72.75Z" transform="translate(0 4)"/>
      </g>
    </g>
  </g>
</svg>
