<svg xmlns="http://www.w3.org/2000/svg" viewBox="0 0 90 90">
  <defs>
    <style>
      .cls-1 {
        fill: none;
      }

      .cls-2 {
        fill: #eee9c5;
      }
    </style>
  </defs>
  <g id="Group_484" data-name="Group 484" transform="translate(-476 -401)">
    <rect id="Rectangle_61" data-name="Rectangle 61" class="cls-1" width="90" height="90" transform="translate(476 401)"/>
    <g id="Group_574" data-name="Group 574" transform="translate(476 401)">
      <rect id="Rectangle_61_2_" class="cls-1" width="90" height="90"/>
      <g id="Group_573" data-name="Group 573">
        <path id="Path_1529" data-name="Path 1529" class="cls-2" d="M86,73.75H4a1.445,1.445,0,1,0,0,2.89H86a1.445,1.445,0,1,0,0-2.89Z"/>
        <path id="Path_1530" data-name="Path 1530" class="cls-2" d="M36.52,15.25H53.48a1.45,1.45,0,1,0,0-2.9H36.52a1.45,1.45,0,1,0,0,2.9Z"/>
        <path id="Path_1531" data-name="Path 1531" class="cls-2" d="M4,66.57H86a1.45,1.45,0,0,0,0-2.9,6.643,6.643,0,0,1-6.61-6.81v-.51a34.39,34.39,0,0,0-68.78,0v.51A6.643,6.643,0,0,1,4,63.67H4a1.45,1.45,0,1,0,0,2.9ZM45,28.11a.717.717,0,0,1,.72.72.726.726,0,0,1-.72.73A26.644,26.644,0,0,0,18.39,56.17a.72.72,0,1,1-1.44,0A28.086,28.086,0,0,1,45,28.11ZM17.17,62.14H72.82a.72.72,0,0,1,0,1.44H17.17a.72.72,0,0,1,0-1.44Z"/>
      </g>
    </g>
  </g>
</svg>
