<?xml version="1.0" encoding="UTF-8"?>
<svg width="14px" height="11px" viewBox="0 0 14 11" version="1.1" xmlns="http://www.w3.org/2000/svg" xmlns:xlink="http://www.w3.org/1999/xlink">
    <!-- Generator: Sketch 51.2 (57519) - http://www.bohemiancoding.com/sketch -->
    <title>check - FontAwesome</title>
    <desc>Created with Sketch.</desc>
    <defs></defs>
    <g id="landing" stroke="none" stroke-width="1" fill="none" fill-rule="evenodd">
        <g id="Guideline" transform="translate(-1163.000000, -493.000000)" fill="#FFFFFF">
            <path d="M1176.8393,495.071431 C1176.8393,495.294646 1176.75002,495.51786 1176.5893,495.678575 L1168.91072,503.357155 C1168.75001,503.51787 1168.52679,503.607156 1168.30358,503.607156 C1168.08036,503.607156 1167.85715,503.51787 1167.69643,503.357155 L1163.25,498.910721 C1163.08929,498.750007 1163,498.526792 1163,498.303578 C1163,498.080363 1163.08929,497.857149 1163.25,497.696434 L1164.46429,496.482147 C1164.625,496.321433 1164.84822,496.232147 1165.07143,496.232147 C1165.29465,496.232147 1165.51786,496.321433 1165.67857,496.482147 L1168.30358,499.116079 L1174.16073,493.25 C1174.32144,493.089286 1174.54466,493 1174.76787,493 C1174.99109,493 1175.2143,493.089286 1175.37501,493.25 L1176.5893,494.464287 C1176.75002,494.625002 1176.8393,494.848216 1176.8393,495.071431 Z" id="check---FontAwesome"></path>
        </g>
    </g>
</svg>