<svg width="246" height="24" viewBox="0 0 246 24">
	<g data-name="brand.svg">
		<g data-name="logo" transform="translate(19.438)">
			<path d="M272.381 396.7a7.073 7.073 0 0 1 7.145-7.409v2.91c-2.224.18-3.679 1.625-3.679 4.95v6.983c0 3.325 1.455 4.77 3.679 4.95v3.016a7.074 7.074 0 0 1-7.145-7.41z" transform="translate(-272.381 -388.694)"/>
			<path d="M314.517 404.687a7.073 7.073 0 0 1-7.145 7.41v-3.012c2.224-.18 3.679-1.625 3.679-4.95v-6.983c0-3.325-1.455-4.77-3.679-4.95v-2.91a7.072 7.072 0 0 1 7.145 7.409z" transform="translate(-282.98 -388.694)"/>
			<g class="mark">
				<ellipse cx="2.876" cy="2.885" rx="2.876" ry="2.885" transform="translate(12.893 18.229)"/>
				<path d="M290.577 388.437h6.169v5.489l-2.535 10a.568.568 0 0 1-1.1 0l-2.533-9.968z" transform="translate(-277.893 -388.437)"/>
			</g>
		</g>
		<path d="M396.034 389.295a7.943 7.943 0 0 1 5.415 1.788 6.047 6.047 0 0 1 2.049 4.8 6.147 6.147 0 0 1-.933 3.393 6.018 6.018 0 0 1-2.832 2.257 5.444 5.444 0 0 1 1.541 1.237 13.955 13.955 0 0 1 1.847 3.669 20.5 20.5 0 0 0 2.785 5.658h-4.965c-.006-.006-.828-.98-1.919-4.5-.537-1.734-1.358-3.475-2.24-4.119a4.637 4.637 0 0 0-2.814-.976H392.7v9.6h-4.4v-22.8zm-3.332 9.962h2.233a4.592 4.592 0 0 0 3.182-.869 3.249 3.249 0 0 0 .916-2.474 3.16 3.16 0 0 0-.916-2.407 3.861 3.861 0 0 0-2.749-.869H392.7z" transform="translate(-288.057 -388.695)"/>
		<path d="M366.258 389.295a8.71 8.71 0 0 1 5.748 1.738 6.9 6.9 0 0 1 .033 9.846 8.9 8.9 0 0 1-5.948 1.755h-3.6v9.466h-4.4v-22.8zm-3.765 9.962h2.932a5.127 5.127 0 0 0 3.165-.785 3.014 3.014 0 0 0 1-2.524 3.131 3.131 0 0 0-.949-2.457 4.984 4.984 0 0 0-3.315-.853h-2.832z" transform="translate(-278.906 -388.695)"/>
		<path d="M334.5 389.295a7.943 7.943 0 0 1 5.415 1.788 6.047 6.047 0 0 1 2.049 4.8 6.147 6.147 0 0 1-.933 3.393 6.018 6.018 0 0 1-2.832 2.257 5.444 5.444 0 0 1 1.541 1.237 13.954 13.954 0 0 1 1.847 3.669 20.5 20.5 0 0 0 2.785 5.658h-4.965c-.006-.006-.828-.98-1.919-4.5-.537-1.734-1.358-3.475-2.24-4.119a4.637 4.637 0 0 0-2.814-.976h-1.264v9.6h-4.4v-22.8zm-3.332 9.962h2.232a4.592 4.592 0 0 0 3.182-.869 3.249 3.249 0 0 0 .916-2.474 3.16 3.16 0 0 0-.916-2.407 3.861 3.861 0 0 0-2.749-.869h-2.663z" transform="translate(-269.418 -388.695)"/>
		<path d="M580.773 389.295a8.253 8.253 0 0 1 5.432 1.588 5.165 5.165 0 0 1 1.9 4.162 4.932 4.932 0 0 1-.883 2.942 5.624 5.624 0 0 1-2.483 1.905 7.067 7.067 0 0 1 3.882 2.223 5.616 5.616 0 0 1 1.317 3.694 5.347 5.347 0 0 1-2.3 4.68 11.045 11.045 0 0 1-6.4 1.605h-8.463v-22.8zm-3.632 9.662h2.366a4.764 4.764 0 0 0 3.249-.919 3.115 3.115 0 0 0 1.016-2.424 2.918 2.918 0 0 0-.916-2.391 4.642 4.642 0 0 0-2.949-.752h-2.766zm3.266 9.963a7.057 7.057 0 0 0 3.815-.82 2.872 2.872 0 0 0 1.249-2.591 2.947 2.947 0 0 0-1.215-2.509 6.728 6.728 0 0 0-3.949-.9h-3.165v6.821z" transform="translate(-343.937 -388.695)"/>
		<path d="m546.371 389.151 10.1 22.9h-4.5L549.337 406h-9.73l-2.533 6.051h-4.5l9.83-22.9zm-5.364 13.573h6.9l-3.531-8.257z" transform="translate(-331.76 -388.652)"/>
		<path d="M512.008 389.295v19.022h10.263v3.783h-14.694v-22.8z" transform="translate(-324.187 -388.695)"/>
		<path d="M476.725 389.295v3.443H467v6.051h9.363v3.443H467v6.386h10.03v3.482H462.6v-22.8z" transform="translate(-310.562 -388.695)"/>
		<path d="M447.524 390.569v4.246a11.508 11.508 0 0 0-2.8-1.805 7.251 7.251 0 0 0-2.965-.635 3.413 3.413 0 0 0-2.266.652 2.113 2.113 0 0 0-.767 1.688q0 1.939 2.849 3.426a27.122 27.122 0 0 1 4.865 3.176 5.793 5.793 0 0 1 2.016 4.7 5.675 5.675 0 0 1-2.032 4.5 7.624 7.624 0 0 1-5.165 1.755 11.933 11.933 0 0 1-3.5-.518 13.25 13.25 0 0 1-3.232-1.488v-4.614a8.855 8.855 0 0 0 6.364 3.076 3.36 3.36 0 0 0 2.333-.753 2.366 2.366 0 0 0 .832-1.822 2.9 2.9 0 0 0-1.182-2.373 28.167 28.167 0 0 0-3.632-2.291 11.519 11.519 0 0 1-3.649-2.925 5.94 5.94 0 0 1-1.2-3.711 5.378 5.378 0 0 1 2-4.3 7.732 7.732 0 0 1 5.164-1.688 11.133 11.133 0 0 1 5.965 1.7z" transform="translate(-302.019 -388.566)"/>
		<path d="M424.025 389.295v22.8h-4.4v-22.8z" transform="translate(-297.545 -388.695)"/>
		<path d="M257.624 390.569v4.246a11.482 11.482 0 0 0-2.8-1.805 7.247 7.247 0 0 0-2.965-.635 3.412 3.412 0 0 0-2.266.652 2.111 2.111 0 0 0-.767 1.688q0 1.939 2.849 3.426a27.15 27.15 0 0 1 4.865 3.176 5.793 5.793 0 0 1 2.016 4.7 5.673 5.673 0 0 1-2.033 4.5 7.621 7.621 0 0 1-5.165 1.755 11.926 11.926 0 0 1-3.5-.518 13.251 13.251 0 0 1-3.232-1.488v-4.614a8.853 8.853 0 0 0 6.364 3.076 3.358 3.358 0 0 0 2.332-.753 2.364 2.364 0 0 0 .833-1.822 2.9 2.9 0 0 0-1.183-2.373 28.071 28.071 0 0 0-3.632-2.291 11.515 11.515 0 0 1-3.649-2.925 5.941 5.941 0 0 1-1.2-3.711 5.378 5.378 0 0 1 2-4.3 7.734 7.734 0 0 1 5.165-1.688 11.129 11.129 0 0 1 5.964 1.7z" transform="translate(-244.496 -388.566)"/>
	</g>
</svg>
