<svg x="0px" y="0px" width="302.7px" height="21.2px" viewBox="0 0 302.7 21.2">
	<g data-name="brand_footer.svg">
		<g data-name="logo">
			<g transform="translate(14.539 1.588)">
				<path d="M0,6c-0.1-2.9,2.1-5.4,5-5.6c0.1,0,0.2,0,0.3,0v2.2C3.7,2.8,2.6,3.8,2.6,6.3v5.2c0,2.5,1.1,3.6,2.8,3.7v2.3
					c-2.9,0-5.3-2.3-5.4-5.2c0-0.1,0-0.2,0-0.3V6z"/>
				<path d="M23.6,12c0.1,2.9-2.1,5.4-5,5.6c-0.1,0-0.2,0-0.3,0v-2.3c1.7-0.1,2.8-1.2,2.8-3.7V6.3c0-2.5-1.1-3.6-2.8-3.7V0.4
					c2.9,0,5.3,2.3,5.4,5.2c0,0.1,0,0.2,0,0.3V12z"/>
				<g class="mark">
					<ellipse cx="11.8" cy="15.8" rx="2.2" ry="2.2"/>
					<path d="M9.5,0h4.6v4.1l-1.9,7.5c-0.1,0.2-0.3,0.4-0.5,0.3c-0.2,0-0.3-0.2-0.3-0.3L9.5,4.1L9.5,0z"/>
				</g>
			</g>
			<path d="M80.8,2c1.5-0.1,2.9,0.4,4,1.3c1,0.9,1.6,2.2,1.5,3.6c0,0.9-0.2,1.8-0.7,2.5c-0.5,0.8-1.3,1.4-2.1,1.7
				c0.4,0.2,0.8,0.5,1.1,0.9c0.6,0.8,1.1,1.8,1.4,2.8c0.5,1.5,1.2,2.9,2.1,4.2h-3.7c-0.7-1-1.2-2.2-1.4-3.4c-0.3-1.2-0.9-2.2-1.7-3.1
				c-0.6-0.5-1.3-0.7-2.1-0.7h-0.9v7.2H75V2H80.8z M78.3,9.5h1.7c0.8,0.1,1.7-0.1,2.4-0.7C82.8,8.4,83,7.7,83,7
				c0-0.7-0.2-1.3-0.7-1.8c-0.6-0.5-1.3-0.7-2.1-0.7h-2L78.3,9.5z"/>
			<path d="M65.3,2c1.5-0.1,3.1,0.4,4.3,1.3c2,2,2.1,5.3,0.1,7.3c0,0,0,0-0.1,0.1c-1.3,1-2.9,1.4-4.4,1.3h-2.7v7.1h-3.3V2H65.3z
					M62.5,9.5h2.2c0.8,0.1,1.7-0.1,2.4-0.6c0.5-0.5,0.8-1.2,0.7-1.9c0-0.7-0.2-1.4-0.7-1.8c-0.7-0.5-1.6-0.7-2.5-0.6h-2.1L62.5,9.5z"
				/>
			<path d="M48.7,2c1.5-0.1,2.9,0.4,4,1.3c1,0.9,1.6,2.2,1.5,3.6c0,0.9-0.2,1.8-0.7,2.5c-0.5,0.8-1.3,1.4-2.1,1.7
				c0.4,0.2,0.8,0.6,1.2,0.9c0.6,0.8,1.1,1.8,1.4,2.8c0.5,1.5,1.2,2.9,2.1,4.2h-3.7c-0.7-1-1.2-2.2-1.4-3.4c-0.3-1.2-0.9-2.2-1.7-3.1
				c-0.6-0.5-1.3-0.7-2.1-0.7h-0.9v7.2h-3.3V2H48.7z M46.2,9.5h1.7c0.8,0.1,1.7-0.1,2.4-0.7C50.7,8.4,51,7.7,50.9,7
				c0-0.7-0.2-1.3-0.7-1.8c-0.6-0.5-1.3-0.7-2.1-0.7h-2L46.2,9.5z"/>
			<path d="M177.1,2c1.5-0.1,2.9,0.3,4.1,1.2c0.9,0.8,1.5,1.9,1.4,3.1c0,0.8-0.2,1.6-0.7,2.2c-0.5,0.6-1.1,1.1-1.9,1.4
				c1.1,0.2,2.1,0.8,2.9,1.7c0.6,0.8,1,1.8,1,2.8c0.1,1.4-0.6,2.7-1.7,3.5c-1.4,0.9-3.1,1.3-4.8,1.2h-6.3V2H177.1z M174.4,9.3h1.8
				c0.9,0.1,1.7-0.2,2.4-0.7c0.5-0.5,0.8-1.1,0.8-1.8c0.1-0.7-0.2-1.3-0.7-1.8c-0.7-0.4-1.4-0.6-2.2-0.6h-2.1L174.4,9.3z M176.9,16.8
				c1,0.1,2-0.1,2.9-0.6c0.6-0.4,1-1.2,0.9-1.9c0-0.7-0.3-1.4-0.9-1.9c-0.9-0.5-1.9-0.8-3-0.7h-2.4v5.1L176.9,16.8z"/>
			<path d="M160.5,2l7.6,17.2h-3.4l-2-4.5h-7.3l-1.9,4.5h-3.4L157.6,2H160.5z M156.5,12.1h5.2L159,6L156.5,12.1z"/>
			<path d="M140.5,2v14.3h7.7v2.8h-11V2H140.5z"/>
			<path d="M124.3,2v2.6H117v4.5h7v2.6h-7v4.8h7.5v2.6h-10.8V2H124.3z"/>
			<path d="M108.8,3.1v3.2c-0.6-0.6-1.3-1-2.1-1.4c-0.7-0.3-1.5-0.5-2.2-0.5c-0.6,0-1.2,0.1-1.7,0.5c-0.4,0.3-0.6,0.8-0.6,1.3
				c0,1,0.7,1.8,2.1,2.6c1.3,0.7,2.5,1.5,3.6,2.4c1,0.9,1.6,2.2,1.5,3.5c0,1.3-0.5,2.5-1.5,3.4c-1.1,0.9-2.5,1.4-3.9,1.3
				c-0.9,0-1.8-0.1-2.6-0.4c-0.9-0.3-1.7-0.6-2.4-1.1v-3.5c1.2,1.4,2.9,2.2,4.8,2.3c0.6,0,1.3-0.2,1.7-0.6c0.4-0.3,0.6-0.8,0.6-1.4
				c0-0.7-0.3-1.4-0.9-1.8c-0.9-0.6-1.8-1.2-2.7-1.7c-1.1-0.5-2-1.3-2.7-2.2C99.3,8.3,99,7.3,99,6.3c0-1.2,0.5-2.4,1.5-3.2
				c1.1-0.9,2.5-1.3,3.9-1.3C105.9,1.8,107.5,2.2,108.8,3.1L108.8,3.1z"/>
			<path d="M94.6,2v17.1h-3.3V2H94.6z"/>
			<path d="M9.8,3.1v3.2c-0.6-0.6-1.3-1-2.1-1.4C7,4.6,6.3,4.4,5.5,4.4c-0.6,0-1.2,0.1-1.7,0.5C3.4,5.2,3.2,5.7,3.2,6.2
				c0,1,0.7,1.8,2.1,2.6c1.3,0.7,2.5,1.5,3.6,2.4c1,0.9,1.6,2.2,1.5,3.5C10.5,16,10,17.2,9,18c-1.1,0.9-2.5,1.4-3.9,1.3
				c-0.9,0-1.8-0.1-2.6-0.4c-0.9-0.3-1.7-0.6-2.4-1.1v-3.5c1.2,1.4,2.9,2.2,4.8,2.3c0.6,0,1.3-0.2,1.7-0.6c0.4-0.3,0.6-0.8,0.6-1.4
				c0-0.7-0.3-1.4-0.9-1.8c-0.9-0.6-1.8-1.2-2.7-1.7c-1.1-0.5-2-1.3-2.7-2.2C0.3,8.3,0,7.3,0,6.3c0-1.2,0.5-2.4,1.5-3.2
				C2.6,2.2,4,1.8,5.4,1.8C6.9,1.8,8.5,2.3,9.8,3.1L9.8,3.1z"/>
		</g>
		<g data-name="company">
			<path d="M202.1,19.2c0.9-0.7,1.7-1.6,2.2-2.7l0.3,0.1c0-0.5,0.1-1,0.1-1.6v-4.4c0-0.6,0-1.1-0.1-1.7c0.6,0,0.9,0.1,1.9,0.1h2.7
			c0-0.2-0.1-0.4-0.1-0.6h-3.3c-0.4,0-0.8,0-1.1,0c0-0.3,0-0.5,0-0.9V7c-0.4,0.4-0.9,0.7-1.4,0.9c-0.3-0.6-0.8-1.2-1.3-1.8
			c1.1-0.4,1.9-1.2,2.2-2.3l0.7,0.1V3.4h-0.3c-0.7,0-1.5,0-2.2,0.1V1.5c0.7,0.1,1.4,0.1,2.1,0.1h0.3c0-0.3,0-0.6-0.1-0.9h2.4
			c0,0.3-0.1,0.6,0,0.9h1.3c0-0.3,0-0.6,0-0.9h2.4c0,0.3-0.1,0.6-0.1,0.9h0.3c0.6,0,1.2,0,1.9-0.1v1.7c0.8-0.7,1.5-1.6,1.9-2.7
			l2.4,0.5c-0.2,0.4-0.4,0.7-0.6,1.1h3c0.8,0,1.5,0,2.3-0.1v2.2c-0.4-0.1-0.8-0.1-1.2-0.1c-0.4,0.9-0.9,1.7-1.6,2.5c1,0.2,2,0.3,3,0.1
			c-0.4,0.7-0.6,1.4-0.6,2.2C220,9,218.4,8.7,217,8.1c-1.2,0.5-2.4,0.8-3.7,1c-0.1-0.6-0.4-1.1-0.7-1.6c-0.2,1-0.4,1.4-1.1,1.6h7.4
			c0.5,0,1,0,1.6-0.1v1.8c-0.5-0.1-1-0.1-1.6-0.1h-4.8v0.6h5.6v1.3h-5.6v0.6h5.6v1.3h-5.6v0.6h5.8c0.5,0,1,0,1.6-0.1
			c-0.1,0.3-0.1,0.3-0.2,1.2c-0.1,0.8-0.3,1.7-0.5,2.5c-0.2,0.7-0.8,1.3-1.5,1.5c-0.6,0.1-1.1,0.2-1.7,0.2c-0.2,0-0.5,0-1.1,0
			c0-0.4-0.1-0.9-0.2-1.3l-0.9,0.4c-0.3-0.8-0.6-1.5-1.1-2.2l1.7-0.5h-9.5c-0.8,0-1,0-1.3,0l1.6,0.7c-0.5,1.1-1.2,2.2-2.1,3.1
			L202.1,19.2z M217.1,18.5h0.2c0.7,0,0.9-0.1,1-0.5c0.1-0.4,0.2-0.8,0.2-1.2H216C216.5,17.3,216.8,17.9,217.1,18.5L217.1,18.5z
				M207.2,15.2h4.4v-0.6h-4.4V15.2z M207.2,13.2h4.4v-0.6h-4.4V13.2z M207.2,11.3h4.4v-0.6h-4.4V11.3z M209.7,6.7v1
			c0.4,0,0.6-0.1,0.7-0.3c0.1-0.6,0.2-1.3,0.2-2h-4.8c-0.1,0.2-0.2,0.4-0.3,0.5h3.3c0.5,0,0.7,0,0.9,0C209.7,6.1,209.7,6.3,209.7,6.7
			L209.7,6.7z M206.4,7.5h1.5V6.9h-1.5V7.5z M212.6,7.1c0.8-0.1,1.7-0.3,2.5-0.5c-0.4-0.4-0.7-0.9-1-1.5c-0.3,0.2-0.5,0.4-0.8,0.6
			c-0.1-0.3-0.3-0.6-0.5-0.9C212.7,5.6,212.7,6.3,212.6,7.1L212.6,7.1z M217.1,5.6c0.5-0.4,0.9-0.9,1.2-1.5h-2.4
			C216.2,4.7,216.6,5.1,217.1,5.6L217.1,5.6z M210.9,4h1.1c0.3-0.2,0.6-0.4,0.8-0.6c-0.5,0-1.1-0.1-1.6-0.1h-0.3L210.9,4z M207.3,4
			h1.3V3.4h-1.3V4z M267.2,17.1c0,0.5-0.1,1,0,1.6c-1.9,0.6-3.9,1.1-5.9,1.4c-1.7,0.2-2.3-0.7-2.3-1.5v-0.9c-1.1,0.5-2,0.8-2.6,1
			c-0.3-0.8-0.8-1.6-1.3-2.2c1.1-0.2,2.2-0.4,3.2-0.8c1-0.3,1.9-0.8,2.8-1.3h-3.3c-0.8,0-1.6,0-2.3,0.1v-2.4c0.8,0.1,1.6,0.1,2.4,0.1
			h6.6v-0.4c0-0.1,0-0.2,0-0.5h-0.9c-0.1-0.5-0.2-0.9-0.4-1.4c0.3,0.1,0.6,0.1,0.9,0.1c0.2,0,0.3-0.1,0.3-0.3V8.9h-1.7v0.8
			c0,0.7,0,1.2,0.1,1.7h-2.6c0-0.6,0.1-0.9,0.1-1.7V8.9h-1.5V10c0,0.4,0,0.8,0.1,1.1h-2.5c0-0.2,0-0.3,0-0.5c0-0.1,0-0.6,0-0.8V8.3
			c0-0.1,0-0.5,0-1.1c0.3,0,0.9,0,1.3,0h2.6V6.5h-2.7c-0.7,0-1.3,0-2,0.1V4.6c0.5,0.1,1,0.1,1.5,0.1c-0.5-0.4-1.1-0.7-1.7-1
			c0.8-0.9,1.4-1.9,1.7-3l2.4,0.4c-0.2,0.4-0.2,0.6-0.4,0.9h1.2c0-0.4,0-0.9-0.1-1.3h2.6c-0.1,0.4-0.1,0.9-0.1,1.3h1.9
			c0.7,0,1.4,0,2-0.1v2c-0.7,0-1.4-0.1-2-0.1h-1.9v0.8h2.2c0.7,0,1.5,0,2.2-0.1v2c-0.7-0.1-1.4-0.1-2.1-0.1h-2.3v0.7h2.1
			c0.7,0,1.1,0,1.7,0c0,0.2,0,0.5,0,0.8v1.6c0,0.3-0.1,0.7-0.2,0.9h1c-0.1,0.4-0.1,0.7-0.1,1.1V12h5.3c0.8,0,1.7,0,2.5-0.1v2.4
			c-0.8-0.1-1.6-0.1-2.3-0.1h-1.1l2.1,1.1c-0.7,0.6-1.4,1.1-2.1,1.5c1.3,0.5,2.6,0.9,4,1.1c-0.6,0.8-1,1.6-1.3,2.5
			C271.5,19.9,269.1,18.8,267.2,17.1L267.2,17.1z M261.3,17.2c0,0.3,0.3,0.7,1.6,0.4c1.3-0.3,2.5-0.7,3.7-1.2
			c-0.6-0.6-1.1-1.4-1.4-2.2h-0.2c-1.1,0.9-2.4,1.7-3.7,2.3L261.3,17.2z M269.2,15.7c0.6-0.4,1.2-0.9,1.8-1.4h-3.2
			C268.2,14.8,268.6,15.3,269.2,15.7L269.2,15.7z M257.5,4.7h2.6V3.9H258C257.9,4.2,257.8,4.3,257.5,4.7L257.5,4.7z M207.1,17.4
			l2.4-0.2c0.3,1,0.5,2,0.6,3l-2.6,0.2C207.4,19.4,207.3,18.4,207.1,17.4L207.1,17.4z M243.5,20.4v-0.7h-9.6v0.7h-2.9
			c0.1-0.6,0.1-1.2,0.1-1.8v-2c0-0.8,0-1-0.1-1.6c0.7,0.1,1.5,0.1,2.2,0.1h11c0.7,0,1.5,0,2.2-0.1c-0.1,0.6-0.1,1.1-0.1,1.7v1.9
			c0,0.6,0,1.2,0.1,1.8H243.5z M233.9,17.8h9.6v-0.9h-9.6V17.8z M281.4,17.5c1.2-0.2,2.2-0.9,2.9-1.8v-4.3h-1c-0.5,0-0.9,0-1.4,0.1
			V8.7c0.6,0.1,1.2,0.1,1.7,0.1h1.8c0.5,0,1.1,0,1.6-0.1c-0.1,0.8-0.1,1.6-0.1,2.3v4.7c0.3,0.6,0.8,1,1.4,1.3c1.3,0.4,2.7,0.6,4.1,0.5
			c3.2,0.1,6.3-0.1,9.5-0.4c-0.4,0.9-0.6,1.9-0.7,2.9c-1.7,0.1-4.9,0.1-7.2,0.1c-3.5,0-4.9-0.1-6-0.5c-1-0.2-1.9-0.8-2.5-1.6
			c-0.6,1.1-1.7,1.9-3,2.2C282.4,19.3,282,18.3,281.4,17.5L281.4,17.5z M210.7,17.4l2.1-0.3c0.4,0.9,0.8,1.8,1,2.7l-2.3,0.4
			C211.3,19.2,211,18.3,210.7,17.4L210.7,17.4z M298,16.5h-7.4c-0.9,0-1.3,0-1.8,0.1c0.1-0.9,0.1-1.9,0.1-2.9v-1.5
			c0-0.6,0-1.2-0.1-1.8c0.8,0.1,1.5,0.1,2.3,0.1h6.7c0.7,0,1.5,0,2.2-0.1c-0.1,0.7-0.1,1.5-0.1,2.2v2.1c0,0.7,0,1.3,0.1,2
			C299.4,16.5,299,16.4,298,16.5L298,16.5z M291.4,14.2h5.9v-1.6h-5.9V14.2z M245.9,14.4h-14.5c-0.8,0-1.7,0-2.5,0.1v-2.4
			c0.8,0.1,1.7,0.2,2.5,0.1h2.6c-0.1-0.3-0.3-0.6-0.4-0.9h-0.3c-0.9,0-1.3,0-2,0c0.1-0.5,0.1-0.9,0.1-1.4V8.7c0-0.5,0-0.9-0.1-1.4
			c0.6,0,0.9,0,2.1,0h10.5c1.1,0,1.4,0,2.1,0c-0.1,0.5-0.1,0.9-0.1,1.4V10c0,0.5,0,0.9,0.1,1.4c-0.7,0-0.9,0-2.1,0h-0.4
			c-0.1,0.3-0.3,0.6-0.5,0.9h2.9c0.8,0,1.7,0,2.5-0.1v2.4C247.6,14.4,246.7,14.4,245.9,14.4L245.9,14.4z M237,12.3h3.1
			c0.2-0.3,0.3-0.6,0.5-0.9h-4C236.8,11.7,236.9,12,237,12.3L237,12.3z M234.1,9.7h9.1V9h-9.1V9.7z M269,11.2
			c-0.1-0.8-0.3-1.5-0.7-2.3c0.8,0.1,1.6,0.1,2.1,0.1c0.9,0,1-0.1,1-0.6V2.7c0-0.6,0-1.2-0.1-1.8h2.8c-0.1,0.6-0.1,1.3-0.1,1.9v5.9
			c0,1.2-0.2,1.7-0.8,2.1c-0.8,0.4-1.8,0.5-2.7,0.4C270,11.2,269.5,11.2,269,11.2L269,11.2z M299.2,9.4h-9.8c-0.6,0-1.2,0-1.8,0.1V7
			c0.6,0.1,1.2,0.1,1.8,0.1c-0.7-0.5-1.5-1-2.3-1.3c1.2-0.6,2.3-2.8,2.5-4.6l2.7,0.5c0,0.5-0.2,1.1-0.4,1.6h1.3V2.7
			c0-0.6,0-1.2-0.1-1.8h2.8c-0.1,0.6-0.1,1.2-0.1,1.8v0.5h2.3c0.8,0,1.6,0,2.4-0.1v2.5c-0.8-0.1-1.5-0.1-2.3-0.1h-2.4V7h3.4
			c0.7,0,1.3,0,2-0.1v2.5C300.6,9.4,299.9,9.4,299.2,9.4L299.2,9.4z M289.6,7h3.6V5.5h-2.4C290.5,6.1,290.1,6.6,289.6,7L289.6,7z
				M267.4,8.3c0-0.5,0.1-1,0.1-1.4V3.5c0-0.5,0-1.2-0.1-1.6h2.7C270,2.4,270,3,270,3.5v3.3c0,0.5,0,1,0.1,1.5L267.4,8.3z M244.8,6.7
			h-12.3c-0.7,0-1.4,0-2.1,0.1V4.7c0.7,0.1,1.4,0.1,2.1,0.1h4.7V4h-5.4c-0.9,0-1.7,0-2.6,0.1V1.8c0.9,0.1,1.8,0.1,2.7,0.1h5.3
			c0-0.4,0-0.8-0.1-1.2h3c-0.1,0.4-0.1,0.8-0.1,1.2h5.5c0.9,0,1.8,0,2.7-0.1v2.3C247.3,4,246.4,4,245.5,4H240v0.8h4.9
			c0.7,0,1.4,0,2.1-0.1v2.1C246.2,6.7,245.5,6.7,244.8,6.7L244.8,6.7z M281.8,2.9l2.1-1.8c1.7,0.7,3,2,3.7,3.7l-2.2,2
			C284.9,4.9,283.6,3.5,281.8,2.9L281.8,2.9z"/>
		</g>  
	</g>
</svg>