<svg id="圖層_2" data-name="圖層 2" xmlns="http://www.w3.org/2000/svg" viewBox="0 0 90 90"><defs><style>.cls-1{fill:#ffe0ba;}</style></defs><title>icon-about</title><rect class="cls-1" x="28.79" y="13.23" width="32.4" height="3.16" rx="1.44"/><rect class="cls-1" x="28.79" y="77.62" width="32.4" height="3.16" rx="1.44"/><path class="cls-1" d="M35.56,61.9C33,58.49,29.42,53.82,29.42,46c0-9.55,4.65-13.65,7.72-16.36l.44-.38c2.84-2.53,3.41-8.68,3.44-9H32.64s0,0,0,.06c0,.34-1.4,8.23-7.08,10.52C20.28,33,14,37.31,14,46c0,8.33,6.56,13.08,10.48,15.92.6.44,1.13.82,1.55,1.16,4.4,3.51,6,8.83,6.46,10.69h8.38a33.19,33.19,0,0,0-3.57-9.42A28.7,28.7,0,0,0,35.56,61.9Z"/><path class="cls-1" d="M51.26,64A27.65,27.65,0,0,1,53,61.44c2.53-3.32,6-7.88,6-15.45,0-9.21-4.49-13.17-7.47-15.79l-.44-.39C48,27,47.45,20.54,47.43,20.27c0,0,0,0,0,0H41.77s0,0,0,0c0,.27-.55,6.76-3.69,9.54l-.44.39c-3,2.62-7.46,6.58-7.46,15.79,0,7.58,3.46,12.13,6,15.45A27.65,27.65,0,0,1,38,64a33.81,33.81,0,0,1,3.69,9.8h5.93A33.51,33.51,0,0,1,51.26,64Z"/><path class="cls-1" d="M63.17,63.07c.42-.34,1-.72,1.55-1.16C68.65,59.07,75.21,54.32,75.21,46c0-8.68-6.29-13-11.56-15.17-5.68-2.29-7-10.18-7.08-10.52,0,0,0,0,0-.06H48.19c0,.33.6,6.48,3.44,9l.43.38c3.08,2.71,7.73,6.81,7.73,16.36,0,7.83-3.55,12.5-6.14,15.91a28.7,28.7,0,0,0-1.74,2.44,33.3,33.3,0,0,0-3.57,9.42h8.37C57.16,71.9,58.78,66.58,63.17,63.07Z"/><path class="cls-1" d="M25.56,63.66c-.41-.33-.93-.71-1.52-1.13-3.78-2.74-10.8-7.82-10.8-16.54,0-7.1,4.27-12.74,12-15.87,5.1-2.05,6.5-9.27,6.61-9.88H31a3.38,3.38,0,0,0-3.19,2.31c-.54,1.59-1.4,3.56-2.57,4.46-4,3.07-11.49,4.44-13.83,6.18l0,.05a16.08,16.08,0,0,0,0,27.51l.07.07c2.34,1.74,9.83,3.11,13.83,6.18,1.17.9,2,2.87,2.57,4.45A3.36,3.36,0,0,0,31,73.76h.67C31.21,71.84,29.58,66.88,25.56,63.66Z"/><path class="cls-1" d="M74.35,31.44C71.16,30.3,67.05,29,64.43,27c-1.17-.9-2-2.87-2.57-4.46a3.38,3.38,0,0,0-3.19-2.31H57.33c.11.61,1.52,7.83,6.6,9.88C71.69,33.25,76,38.89,76,46c0,8.72-7,13.8-10.8,16.54-.59.42-1.11.8-1.52,1.13-4,3.22-5.65,8.18-6.15,10.1h1.16a3.37,3.37,0,0,0,3.19-2.3c.54-1.59,1.41-3.56,2.58-4.46,2.63-2,6.76-3.3,10-4.44a16.09,16.09,0,0,0,0-31.12Z"/></svg>